<?xml version="1.0" encoding="UTF-8"?>
<svg width="457px" height="290px" viewBox="0 0 457 290" version="1.1" xmlns="http://www.w3.org/2000/svg" xmlns:xlink="http://www.w3.org/1999/xlink">
    <!-- Generator: Sketch 63.1 (92452) - https://sketch.com -->
    <title>Illu - Le paywall vraiment dynamique</title>
    <desc>Created with Sketch.</desc>
    <defs>
        <linearGradient x1="64.1048622%" y1="65.3649038%" x2="23.9760512%" y2="11.1543321%" id="linearGradient-1">
            <stop stop-color="#8985E6" offset="0%"></stop>
            <stop stop-color="#00A99D" offset="100%"></stop>
        </linearGradient>
        <linearGradient x1="0%" y1="50%" x2="100%" y2="50%" id="linearGradient-2">
            <stop stop-color="#FFFFFF" offset="0%"></stop>
            <stop stop-color="#EEF4F9" offset="100%"></stop>
        </linearGradient>
    </defs>
    <g id="Interfaces" stroke="none" stroke-width="1" fill="none" fill-rule="evenodd">
        <g id="HOME-PAGE" transform="translate(-202.000000, -1979.000000)">
            <g id="Illu---Le-paywall-vraiment-dynamique." transform="translate(154.000000, 1959.000000)">
                <g id="Group" opacity="0.23" transform="translate(48.000000, 20.000000)" fill="url(#linearGradient-1)" fill-rule="nonzero">
                    <path d="M18.4969733,85.7519139 C-11.865727,10.4893027 18.6461424,0.318679525 40.1943027,3.83093472 C53.4567953,5.98032641 66.068368,11.6962166 77.8459496,18.7071662 C91.0202967,26.5588872 107.001736,36.9329228 119.613309,27.9827745 C126.108947,23.3585312 129.288961,14.754184 135.011632,9.03151335 C144.958501,-0.867893175 160.017804,-0.216973294 173.354881,1.03062315 C178.955504,1.55271513 184.664614,2.1087092 189.81095,4.58356083 C201.100341,10.0078932 207.806172,23.7517953 219.251513,28.7896439 C234.941395,35.6988872 251.858531,23.8738427 268.606157,21.3854303 C286.350504,18.7478487 305.118694,27.7386795 315.445267,43.8218249 C317.93368,47.7002226 320.137315,52.1278338 323.927567,54.3924926 C328.88405,57.3487537 335.183056,55.6672107 339.956469,52.358368 C344.729881,49.0495252 348.513353,44.3167953 353.008769,40.5333234 C373.173724,23.4805786 417.33457,9.15356083 442.713665,42.1199407 C449.58858,51.2503045 451.678128,63.1196434 448.334629,74.0489169 C444.856276,84.9450445 437.845326,93.9358754 431.688709,103.286068 C425.532092,112.636261 419.938249,123.288294 420.067077,134.828561 C420.297611,155.203709 437.384258,169.666335 447.134496,186.983516 C458.166231,206.572136 459.739288,232.208887 451.202745,253.248516 C448.239703,260.544243 443.744288,267.67046 436.963872,270.626721 C433.404154,272.192997 429.505415,272.464214 425.674481,272.660846 C404.168883,273.657374 382.620826,272.11205 361.477507,268.056944 C345.306217,264.958294 328.131424,260.503561 312.963635,267.378902 C307.851202,269.704585 303.274421,273.21684 298.473887,276.247685 C279.570089,288.181217 256.794674,292.520682 235.34822,288.262582 C204.124407,282.065282 175.890757,258.53724 144.219436,260.591706 C131.675668,261.398576 119.687893,266.239792 107.659436,270.240237 C95.6309792,274.240682 82.9380415,277.46138 70.5841246,274.939065 C58.2302077,272.416751 46.3102374,262.808902 43.8489466,249.254852 C42.5945697,242.37273 43.8489466,235.19227 42.7979822,228.269466 C41.1164392,216.864807 33.5427151,207.670564 25.6842136,200.022255 C17.8257122,192.373947 9.15356083,185.166365 3.89873887,175.158472 C-4.99038576,158.248116 3.09864985,149.887864 10.8486647,136.60503 C19.2089169,122.169525 24.6807122,101.089214 18.4969733,85.7519139 Z" id="Path"></path>
                </g>
                <polygon id="Path" fill="#FFFFFF" fill-rule="nonzero" points="317.840193 270.292255 255.128131 271.336439 159.171691 270.292255 159.171691 167.853739 265.786944 170.165861 317.840193 169.426795"></polygon>
                <g id="Group" opacity="0.2" transform="translate(163.267062, 198.324926)" fill="#2696AF" fill-rule="nonzero">
                    <path d="M6.96348665,6.69227003 C8.55010386,5.66164688 8.99761128,2.9901632 10.5367656,1.81715134 C13.5743917,-0.515311573 16.9510386,4.72594955 20.5243175,4.95648368 C23.6365282,5.15311573 26.097819,1.49847181 29.182908,0.989940653 C33.8071513,0.23731454 37.3194065,6.55666172 41.8894065,7.45167656 C45.9576558,8.23142433 49.7275668,4.67848665 53.8093769,4.40727003 C54.9150608,4.27907955 56.0275475,4.58270582 56.9148071,5.25482196 C57.5386053,5.77013353 58.0200148,6.52954006 58.6438131,7.05163205 C60.732181,8.77385757 63.5867359,7.25504451 65.5191543,5.2751632 C67.4515727,3.2952819 69.268724,0.752626113 71.7503561,0.244094955 C74.5913501,-0.339020772 77.2153709,1.9324184 79.8258309,3.43089021 C84.4394174,6.11360828 90.0663516,6.39659734 94.925816,4.19029674 C97.7057864,2.92913947 100.729852,0.867893175 103.428457,2.3731454 C105.157463,3.34274481 106.228769,5.56672107 107.903531,6.67192878 C113.070208,10.0621365 118.548783,1.03740356 124.386721,1.66120178 C127.878635,2.03412463 130.590801,5.83115727 134.048813,6.55666172 C136.808442,7.13977745 139.601973,5.67520772 142.388724,5.93964392 C145.175475,6.20408012 148.131736,9.89262611 146.55868,12.7200593 C145.880638,13.9676558 144.565237,14.5033086 143.846513,15.7034421 C141.717463,19.0936499 145.609421,24.1247181 144.416068,28.1794065 C143.426128,31.5696142 139.629095,32.0035608 136.896588,30.8237685 C134.16408,29.6439763 131.614644,27.4335608 128.719407,27.4335608 C124.841009,27.4335608 121.647433,31.5018101 117.796157,32.0306825 C113.504154,32.6477003 109.659659,28.8642285 105.381217,27.9624332 C100.492537,26.9114688 95.6513205,29.705 90.715178,30.3559199 C81.2225964,31.6170772 71.5469436,24.9315875 62.2916766,27.8810682 C59.4439021,28.7964243 56.8266617,30.5932344 53.9788872,31.4950297 C51.1311128,32.3968249 47.7680267,32.1730712 45.6796588,29.6507567 C44.7643027,28.5387685 44.1540653,27.0402967 43.0963205,26.1385015 C42.1884454,25.4183575 41.0456157,25.0607702 39.889184,25.135 C33.6986647,25.2299258 28.2743323,32.234095 22.1787389,30.9322552 C16.8832344,29.8067062 13.0794214,25.2638279 7.70933234,25.4604599 C5.16667656,25.5553858 1.83071217,24.3010089 0.63735905,21.5345994 C0.32550141,20.6361809 0.216664507,19.6798056 0.318679525,18.7342878 C0.427166172,16.2119733 0.447507418,11.5809496 1.76290801,9.47902077 C3.19357567,7.18045994 5.10565282,7.89918398 6.96348665,6.69227003 Z" id="Path"></path>
                </g>
                <path d="M181.791157,212.10273 C180.22782,211.289956 178.312265,211.641793 177.139792,212.957062 C176.033822,214.207421 175.940926,216.056908 176.916039,217.411795 C178.068709,218.808561 179.974006,218.442418 181.174139,217.289748 C182.358849,216.124208 182.856437,214.428821 182.48954,212.807893 C182.259006,211.641662 180.53678,211.973902 180.489318,213.07911 C180.405707,215.35654 182.130056,217.296059 184.401617,217.479599 C185.703457,217.628769 185.689896,215.594644 184.401617,215.445475 C183.250089,215.274356 182.428662,214.239418 182.523442,213.07911 L180.53,213.343546 C180.679169,214.123294 180.37405,215.940445 179.323086,216.143858 C178.041588,216.401513 178.150074,215.147136 178.502656,214.536899 C178.965388,213.755113 179.951094,213.459991 180.767315,213.858858 C181.953887,214.374169 182.991291,212.618042 181.791157,212.10273 L181.791157,212.10273 Z" id="Path" fill="#2696AF" fill-rule="nonzero"></path>
                <path d="M185.032196,217.377893 C187.351098,215.187819 186.89003,211.756929 184.510104,209.797389 C181.704398,207.573856 177.69252,207.744144 175.085326,210.197433 C172.692525,212.510409 172.4349,216.257689 174.48865,218.876365 C176.841454,221.758042 180.787656,221.554629 183.859184,220.035816 C185.032196,219.459481 184.001573,217.703353 182.828561,218.279688 C180.85546,219.256068 178.163635,219.635772 176.421068,217.988131 C174.882355,216.473165 174.691633,214.057351 175.973561,212.319703 C177.227975,210.589771 179.440405,209.844131 181.486039,210.461869 C183.818501,211.139911 185.771261,213.852077 183.594748,215.940445 C182.638709,216.83546 184.076157,218.272908 185.032196,217.377893 L185.032196,217.377893 Z" id="Path" fill="#2696AF" fill-rule="nonzero"></path>
                <path d="M167.931988,183.102893 L169.091439,194.561795 C169.105695,195.117491 169.552805,195.564602 170.108501,195.578858 C175.722685,195.850074 181.323309,195.307641 186.930712,195.578858 C187.489367,195.571554 187.940471,195.12045 187.947774,194.561795 C187.656217,191.469926 187.323976,188.384837 187.018858,185.292967 C186.89681,184.058932 187.154466,182.445193 186.062819,181.645104 C184.706736,180.634822 180.52322,181.272181 178.855237,181.238279 C175.356543,181.170475 171.862369,181.186296 168.372715,181.285742 C167.967793,181.298484 167.607893,181.547271 167.452907,181.921575 C167.297922,182.29588 167.376601,182.726266 167.653991,183.021528 L174.115727,188.832344 C175.010742,189.632433 176.461751,191.680119 177.892418,191.659777 C179.099332,191.659777 180.177418,190.154525 180.970727,189.41546 C183.106558,187.428798 185.120341,185.347211 187.073101,183.170697 C187.940994,182.201098 186.510326,180.756869 185.635653,181.733249 C184.076157,183.462255 180.157077,188.913709 177.831395,188.778101 C176.258338,188.683175 174.732745,186.64905 173.573294,185.604866 L169.105,181.58408 L168.386276,183.319866 C173.02408,183.197819 178.197537,182.641825 182.794659,183.394451 C185.398338,183.801276 184.977953,185.157359 185.228828,187.584748 C185.466142,189.91043 185.710237,192.229332 185.906869,194.561795 L186.923932,193.544733 C181.316528,193.273516 175.715905,193.81595 170.101721,193.544733 L171.118783,194.561795 L169.959332,183.102893 C169.823724,181.814614 167.789599,181.801053 167.925208,183.102893 L167.931988,183.102893 Z" id="Path" fill="#000A24" fill-rule="nonzero"></path>
                <path d="M158.873353,169.121677 C211.602384,171.259768 264.372097,171.863225 317.182493,170.932047 C317.744201,170.932047 318.199555,170.476693 318.199555,169.914985 C318.199555,169.353277 317.744201,168.897923 317.182493,168.897923 C264.412779,169.8291 211.649847,169.225643 158.893694,167.087552 C157.585074,167.040089 157.585074,169.074214 158.893694,169.121677 L158.873353,169.121677 Z" id="Path" fill="#000A24" fill-rule="nonzero"></path>
                <path d="M157.964777,169.121677 L157.802047,269.417582 C157.802047,269.97929 158.257402,270.434644 158.81911,270.434644 C159.380818,270.434644 159.836172,269.97929 159.836172,269.417582 L159.998902,169.121677 C159.998902,168.559969 159.543548,168.104614 158.98184,168.104614 C158.420132,168.104614 157.964777,168.559969 157.964777,169.121677 Z" id="Path" fill="#000A24" fill-rule="nonzero"></path>
                <path d="M159.198813,271.03132 C212.167418,273.119688 265.160885,273.323101 318.179214,271.641558 C319.487834,271.600875 319.487834,269.566751 318.179214,269.607433 C265.197047,271.288976 212.203581,271.085564 159.198813,268.997196 C157.890193,268.949733 157.890193,270.983858 159.198813,271.03132 Z" id="Path" fill="#000A24" fill-rule="nonzero"></path>
                <path d="M316.402745,169.847181 L317.13503,270.143086 C317.13503,270.704794 317.590384,271.160148 318.152092,271.160148 C318.7138,271.160148 319.169154,270.704794 319.169154,270.143086 L318.436869,169.847181 C318.436869,169.285473 317.981515,168.830119 317.419807,168.830119 C316.858099,168.830119 316.402745,169.285473 316.402745,169.847181 Z" id="Path" fill="#000A24" fill-rule="nonzero"></path>
                <path d="M192.992404,190.703739 C195.148576,189.490045 197.406454,188.256009 199.867745,187.78816 C203.000297,187.198264 204.071602,188.649273 206.688843,189.42224 C207.661899,189.719572 208.715678,189.586308 209.58408,189.056098 C210.56046,188.561128 211.21138,187.78138 212.397953,188.534006 C212.804777,188.791662 213.353991,189.890089 213.754036,190.276573 C215.686454,192.310697 217.896869,193.205712 220.412404,191.720801 C221.354881,191.164807 222.073605,190.174866 223.12457,189.727359 C224.480653,189.137463 226.284243,189.218828 227.789496,189.110341 C230.746005,188.896609 233.716308,188.971548 236.658279,189.334095 C241.296083,189.896869 245.791499,191.239392 250.463205,190.174866 C252.151528,189.788383 253.677122,189.273071 255.433249,189.456142 C256.713645,189.659849 257.974701,189.970577 259.20316,190.385059 C261.325506,190.970602 263.50193,191.33864 265.698798,191.483487 C275.435475,192.073383 284.446647,186.025252 294.176543,187.693234 C295.458042,187.910208 296.007255,185.950668 294.718976,185.733694 C285.097567,184.086053 276.5,189.625653 266.959955,189.510386 C262.281469,189.442582 257.555519,186.710074 252.951617,187.476261 C249.561409,188.039036 246.849243,188.832344 243.336988,188.357715 C240.719748,188.011914 238.14319,187.442359 235.512389,187.191484 C231.484822,186.81178 225.165475,186.235445 221.436246,188.26957 C221.063323,188.472982 220.18865,189.449362 219.822507,189.57819 L215.903427,189.57819 C215.244408,188.980632 214.6696,188.296336 214.194763,187.544065 C213.516721,186.743976 213.048872,185.971009 211.909763,185.862522 C210.635045,185.747255 210.024807,186.743976 208.919599,187.12368 C206.885475,187.801721 205.061543,185.971009 203.007077,185.679451 C199.121899,185.130237 195.277404,187.144021 192.009243,188.981513 C191.546658,189.274149 191.398646,189.880408 191.67434,190.353286 C191.950033,190.826164 192.550535,190.996031 193.033086,190.737641 L192.992404,190.703739 Z" id="Path" fill="#000A24" fill-rule="nonzero"></path>
                <path d="M168.982953,205.959674 C215.021973,206.339377 261.063254,206.361978 307.106795,206.027478 L306.089733,205.010415 C306.394852,211.485712 306.591484,217.947448 306.442315,224.422745 C306.442315,224.984453 306.897669,225.439807 307.459377,225.439807 C308.021085,225.439807 308.476439,224.984453 308.476439,224.422745 C308.625608,217.947448 308.428976,211.485712 308.123858,205.010415 C308.109602,204.454719 307.662491,204.007609 307.106795,203.993353 C261.067774,204.327854 215.026494,204.305252 168.982953,203.925549 C168.421245,203.925549 167.96589,204.380903 167.96589,204.942611 C167.96589,205.504319 168.421245,205.959674 168.982953,205.959674 L168.982953,205.959674 Z" id="Path" fill="#000A24" fill-rule="nonzero"></path>
                <path d="M167.79638,205.105341 L168.860905,223.934555 C168.868209,224.49321 169.319313,224.944314 169.877967,224.951617 L240.09595,224.802448 L275.211721,224.768546 C285.97224,224.768546 296.698858,225.412685 307.459377,225.446588 C308.021085,225.446588 308.476439,224.991233 308.476439,224.429525 C308.476439,223.867817 308.021085,223.412463 307.459377,223.412463 C296.698858,223.365 285.97224,222.693739 275.211721,222.734421 L240.09595,222.809006 L169.877967,222.958175 L170.89503,223.975237 L169.830504,205.105341 C169.75592,203.803501 167.721795,203.796721 167.79638,205.105341 Z" id="Path" fill="#000A24" fill-rule="nonzero"></path>
                <path d="M203.271513,237.529288 C230.922047,238.55087 258.586142,238.629975 286.263798,237.766602 L285.246736,236.74954 C285.741706,243.970682 286.107849,251.198605 286.602819,258.446869 L287.619881,257.429807 C270.397626,258.602819 253.134688,258.568917 235.878531,258.338383 C227.355549,258.223116 218.839347,258.067166 210.316365,257.999362 C208.363605,257.999362 205.353101,258.677404 204.376721,256.480549 C203.610534,254.744763 203.861409,251.402018 203.752923,249.523843 C203.488487,245.211499 203.461365,240.905935 203.603754,236.593591 C203.651217,235.28497 201.617092,235.28497 201.569629,236.593591 C201.402342,241.340695 201.479288,246.093262 201.800163,250.832463 C201.962893,253.151365 201.576409,257.287418 203.495267,259.050326 C205.753145,261.118353 210.953724,260.060608 213.66589,260.08773 C218.602033,260.135193 223.531395,260.209777 228.467537,260.284362 C248.184985,260.57592 267.915994,260.826795 287.60632,259.484273 C288.16649,259.480575 288.619685,259.02738 288.623383,258.467211 C288.135193,251.246068 287.76905,244.018145 287.2673,236.769881 C287.253044,236.214185 286.805933,235.767075 286.250237,235.752819 C258.590663,236.620712 230.926568,236.541607 203.257953,235.515504 C201.942552,235.468042 201.949332,237.502166 203.257953,237.549629 L203.271513,237.529288 Z" id="Path" fill="#000A24" fill-rule="nonzero"></path>
                <path d="M220.900593,249.300089 C221.612537,248.242344 223.077107,246.242122 224.677285,246.893042 C225.457033,247.211721 226.480875,249.130579 226.982626,249.754377 C227.240112,250.015734 227.61905,250.116957 227.972567,250.018813 C229.708353,249.408576 230.64405,246.004807 232.718858,246.676068 C234.508887,247.252404 235.308976,249.80862 237.051543,250.62905 C240.001024,251.985134 242.726751,249.679792 242.767433,246.676068 L241.235059,247.557522 C243.160697,248.913605 247.378116,253.341217 249.690237,250.554466 C250.659837,249.388234 250.619154,247.693131 252.67362,248.554243 C253.989021,249.110237 254.707745,250.303591 256.314703,250.201884 C257.589421,250.113739 258.077611,249.130579 259.101454,248.635608 C261.908546,247.279525 262.566246,249.591647 265.020757,249.937448 C267.799046,250.298575 270.412815,248.538637 271.123131,245.828516 C271.489273,244.567359 269.522953,244.031706 269.15681,245.286083 C268.607596,247.177819 267.251513,247.862641 265.488605,247.706691 C264.132522,247.591424 263.807062,246.994748 262.728976,246.398071 C261.984534,245.903283 261.098851,245.665196 260.206662,245.72003 C259.20316,245.862418 258.769214,246.520119 257.962344,246.974407 C255.575638,248.33049 254.992522,247.496499 253.148249,246.404852 C251.900653,245.665786 250.585252,245.414911 249.466484,246.526899 C248.679955,247.306647 248.788442,248.269466 247.757819,248.744095 C246.401736,249.354332 243.513279,246.662507 242.292804,245.828516 C242.055563,245.69484 241.774843,245.66118 241.512724,245.73498 C241.250605,245.808781 241.028684,245.983961 240.896039,246.22178 C240.812464,246.368523 240.768096,246.534319 240.767211,246.70319 C238.909377,248.696632 237.469669,248.949768 236.448086,247.462596 L235.892092,246.784555 C235.485209,246.289531 235.031033,245.835355 234.536009,245.428472 C233.545462,244.594136 232.242817,244.228308 230.96273,244.42497 C230.128568,244.629483 229.409373,245.15608 228.962507,245.88954 C228.630267,246.350608 228.603145,247.245623 227.992908,247.320208 C227.382671,247.394792 225.870638,245.116573 225.396009,244.533457 C225.144223,244.262466 224.759448,244.159684 224.406068,244.269021 C222.257482,244.973998 220.418107,246.399034 219.198709,248.303368 C218.473205,249.395015 220.229332,250.412077 220.954837,249.327211 L220.900593,249.300089 Z" id="Path" fill="#000A24" fill-rule="nonzero"></path>
                <path d="M94.6831602,173.522166 C95.2188131,130.127507 95.2391543,43.4805786 95.2391543,43.4805786 C112.393605,43.2636053 129.690445,43.4805786 146.844896,43.2975074 L236.556573,42.1787389 L271.536736,41.7651335 L273.225059,171.318531 C213.442136,171.976231 94.6831602,173.522166 94.6831602,173.522166 Z" id="Path" fill="url(#linearGradient-2)" fill-rule="nonzero"></path>
                <path d="M103.98589,81.6068546 C108.583012,80.2507715 113.064866,81.3220772 117.709451,81.85773 C120.082596,82.1289466 122.740519,82.3933828 124.354258,80.3185757 C125.154347,79.2947329 123.72368,77.843724 122.91681,78.8811276 C120.943709,81.417003 115.383769,79.4710237 112.746187,79.1455638 C109.64073,78.642372 106.463345,78.8134976 103.429896,79.6473145 C102.1823,80.0202374 102.751855,81.9865579 103.972329,81.6068546 L103.98589,81.6068546 Z" id="Path" fill="#000A24" fill-rule="nonzero"></path>
                <path d="M105.13178,91.8724036 C107.437122,91.4587982 109.627196,91.194362 111.912196,91.7910386 C113.539496,92.1978635 115.031187,93.1471217 116.658487,93.5064837 C118.950267,93.9811128 120.265668,92.401276 122.204866,91.4723591 C123.391439,90.9231454 122.360816,89.1670178 121.174243,89.7162315 C119.302849,90.5841246 118.787537,91.6486499 116.299125,91.2079228 C114.807433,90.9502671 113.383546,89.9806677 111.885074,89.6348665 C109.430564,89.072092 107.016736,89.4382344 104.575786,89.872181 C103.287507,90.1027151 103.829941,92.0622552 105.111439,91.8385015 L105.13178,91.8724036 Z" id="Path" fill="#000A24" fill-rule="nonzero"></path>
                <path d="M105.470801,105.670549 C106.670935,103.555059 111.681662,104.646706 113.44457,105.141677 C115.207478,105.636647 117.051751,106.429955 119.00451,106.348591 C121.999181,106.168994 124.708464,104.511909 126.232433,101.92776 C126.944377,100.829332 125.181469,99.8054896 124.476306,100.903917 C120.875905,106.50454 115.966884,103.060089 110.99684,102.565119 C108.684718,102.334585 105.016513,102.348145 103.714674,104.646706 C103.456283,105.129257 103.62615,105.729759 104.099029,106.005453 C104.571907,106.281146 105.178166,106.133135 105.470801,105.670549 L105.470801,105.670549 Z" id="Path" fill="#000A24" fill-rule="nonzero"></path>
                <path d="M107.667656,118.397389 C108.196528,117.448131 111.966439,117.76003 112.902136,117.793932 C114.766751,117.875297 116.577122,118.329585 118.428175,118.471973 C120.472534,118.641172 122.499459,117.984253 124.05592,116.648042 C125.086543,115.847953 123.635534,114.417285 122.618472,115.210593 C119.567285,117.5973 114.231098,115.590297 110.522211,115.766588 C108.87457,115.841172 106.806543,115.766588 105.911528,117.359985 C105.28095,118.512656 107.037077,119.536499 107.667656,118.390608 L107.667656,118.397389 Z" id="Path" fill="#000A24" fill-rule="nonzero"></path>
                <polygon id="Path" fill="#E3EBF2" fill-rule="nonzero" points="271.292641 59.7332344 273.503056 171.047315 135.189362 172.701736 134.538442 61.3062908"></polygon>
                <path d="M95.7002226,173.522166 C96.181632,133.870297 96.2019733,94.1913056 96.2426558,54.5597774 C96.2426558,50.8667112 96.2426558,47.1736449 96.2426558,43.4805786 L95.2255935,44.4976409 C141.881632,43.9484273 188.544451,43.8195994 235.20727,43.2161424 C247.312572,43.0579327 259.417873,42.9132839 271.523175,42.7821958 L270.506113,41.7651335 L271.075668,85.5530564 L271.984243,155.330312 L272.194436,171.318531 L273.211499,170.301469 C244.462537,170.622409 215.715836,170.96595 186.971395,171.332092 C161.341424,171.648511 135.715974,171.973971 110.095045,172.308472 L94.6695994,172.505104 C93.3609792,172.505104 93.3609792,174.539228 94.6695994,174.539228 L138.267671,173.983234 C167.834802,173.603531 197.401934,173.235129 226.969065,172.878027 C242.378689,172.688175 257.792834,172.507364 273.211499,172.335593 C273.770153,172.32829 274.221257,171.877186 274.228561,171.318531 L273.659006,127.530608 L272.763991,57.7533531 L272.553798,41.7651335 C272.546495,41.2064787 272.095391,40.7553748 271.536736,40.7480712 C226.013027,41.3108457 180.475757,42.2329822 134.945267,42.3685905 C121.709896,42.3685905 108.501647,42.3075668 95.2391543,42.4635163 C94.6804995,42.4708199 94.2293956,42.9219238 94.222092,43.4805786 C94.222092,75.7237141 94.1316864,107.96459 93.9508754,140.203205 C93.8830712,151.309525 93.7881454,162.415846 93.6660979,173.522166 C93.6660979,174.083874 94.1214523,174.539228 94.6831602,174.539228 C95.2448682,174.539228 95.7002224,174.083874 95.7002226,173.522166 Z" id="Path" fill="#000A24" fill-rule="nonzero"></path>
                <path d="M271.570638,58.9941691 C226.243561,59.2721662 180.930045,60.1129377 135.602967,60.4722997 C122.516766,60.5807864 109.428304,60.63955 96.3375816,60.6485905 C95.7758736,60.6485905 95.3205193,61.1039448 95.3205193,61.6656528 C95.3205193,62.2273608 95.7758736,62.6827151 96.3375816,62.6827151 C141.820608,62.6827151 187.290074,61.8961869 232.76632,61.3808754 C245.703353,61.2317062 258.638126,61.114179 271.570638,61.0282938 C272.132346,61.0282938 272.5877,60.5729395 272.5877,60.0112315 C272.5877,59.4495234 272.132346,58.9941691 271.570638,58.9941691 L271.570638,58.9941691 Z" id="Path" fill="#000A24" fill-rule="nonzero"></path>
                <path d="M156.405282,67.5713947 C155.228488,67.7051097 154.177292,68.369202 153.551123,69.3745059 C152.924955,70.3798098 152.792455,71.6161256 153.191365,72.7312908 C153.943991,75.036632 156.520549,76.5690059 158.866573,75.6943323 C161.056647,74.8874629 162.426291,72.3041246 161.497374,70.0665875 C161.020894,69.0109424 160.144541,68.1878401 159.061137,67.7783843 C157.977732,67.3689285 156.776038,67.4066661 155.72046,67.8832938 C154.520326,68.3918249 155.55095,70.1479525 156.744303,69.6394214 C159.327641,68.5409941 160.907478,72.4058309 158.405504,73.7076706 C155.55095,75.1722404 153.625312,69.8835163 156.37138,69.6394214 C157.666439,69.5173739 157.68,67.4764688 156.37138,67.6052967 L156.405282,67.5713947 Z" id="Path" fill="#000A24" fill-rule="nonzero"></path>
                <path d="M153.727018,83.2070326 C153.462582,81.0779822 153.652433,78.6709347 155.395,77.1656825 C157.564733,75.3078487 160.181973,76.3791543 161.314303,78.7387389 C161.741852,79.6243661 162.027845,80.5715744 162.161855,81.5458309 C162.25678,82.3052374 162.711068,81.9594362 162.08049,82.2238724 C161.520472,82.2857549 160.954582,82.2697822 160.398947,82.1764095 C158.019369,82.1524694 155.640871,82.2883836 153.27951,82.5832344 C151.991231,82.739184 151.977671,84.7733086 153.27951,84.6173591 C155.502086,84.3439007 157.739227,84.2057776 159.978561,84.2037537 C161.144792,84.2037537 163.145015,84.7665282 164.04681,83.702003 C164.785875,82.820549 164.21632,81.2610534 163.992567,80.3117953 C163.694695,78.7506021 163.014446,77.2876013 162.012685,76.0536944 C160.283446,74.0811232 157.400641,73.6068094 155.130564,74.921365 C152.174303,76.5757864 151.333531,80.0609199 151.740356,83.2070326 C151.903086,84.4885312 153.937211,84.502092 153.774481,83.2070326 L153.727018,83.2070326 Z" id="Path" fill="#000A24" fill-rule="nonzero"></path>
                <g id="Group" opacity="0.2" transform="translate(151.062315, 86.448071)" fill="#2696AF" fill-rule="nonzero">
                    <path d="M7.28894659,1.68832344 C9.6688724,0.867893175 11.7368991,3.81737389 14.2049703,4.25810089 C17.0527448,4.75985163 19.3784273,1.9324184 22.0905935,0.867893175 C27.4742433,-1.23403561 33.0070623,3.9122997 38.7365134,4.01400593 C44.1608457,4.10215134 49.3343027,-0.38648368 54.6230267,1.00350148 C58.0674777,1.90529674 60.813546,5.20057864 64.3597033,5.39721068 C66.9905045,5.54637982 69.3772107,3.94620178 71.8859644,3.07152819 C75.9542136,1.6679822 80.5242136,-0.264436202 84.1585163,2.06802671 C86.1926409,3.42410979 88.2267656,5.33618694 90.5931306,5.07853116 C92.9594955,4.82087537 95.1088872,3.04440653 97.5837389,3.43089021 C100.167077,3.85127596 101.651988,7.8652819 98.939822,11.6623145 C97.7350444,13.5129273 97.4122517,15.8022728 98.058368,17.9138576 C98.4923145,19.3648665 99.6788872,20.6260237 99.6517656,22.1177151 C99.5306969,23.3811039 98.8123663,24.5102692 97.7193472,25.1553412 C94.647819,27.223368 90.6405935,26.5114243 87.1554599,25.3723145 C83.6703264,24.2332047 80.056365,22.7957567 76.5034273,23.6229674 C74.4693027,24.090816 72.7199555,25.2570475 70.8146588,26.0435757 C68.1488842,27.1464013 65.2372794,27.5185438 62.379822,27.1216617 C56.8673442,26.3486944 51.4226706,22.7618546 46.1610682,24.612908 C44.3981602,25.2231454 42.8386647,26.4164985 41.0350742,26.8572255 C36.6752671,27.9353116 32.5595549,24.4569585 28.1522849,23.4670178 C21.5210386,21.9888872 14.5168694,26.3351335 8.01445104,24.3077893 C5.67520772,23.5755045 3.31562315,21.4735757 3.62752226,18.883457 C3.76313056,17.7172255 4.43439169,16.6187982 4.3055638,15.4932493 C4.11571217,13.987997 2.67148368,13.106543 1.63408012,12.0623591 C-1.00350148,9.42477745 1.63408012,8.62468843 3.08508902,7.13977745 C4.65136499,5.54637982 5.02428783,2.46807122 7.28894659,1.68832344 Z" id="Path"></path>
                </g>
                <path d="M159.097107,98.4155045 C159.085303,101.72885 159.346099,105.03755 159.876855,108.308131 C159.999078,108.749877 160.401674,109.055295 160.860015,109.053981 C187.778264,108.936449 214.691993,108.46182 241.601202,107.630089 C242.154029,107.609206 242.597381,107.165854 242.618264,106.613027 C243.064466,102.533095 243.148419,98.4216595 242.869139,94.3269139 C242.854884,93.7712179 242.407773,93.3241072 241.852077,93.3098516 L196.321588,94.3879377 L174.230994,94.9100297 C170.461083,94.9981751 166.609807,94.9100297 162.846677,95.1812463 C161.260059,95.3032938 159.890415,95.56773 159.110668,97.0662018 C158.507211,98.2256528 160.263338,99.256276 160.866795,98.0968249 C161.877077,96.1508457 168.94905,97.0662018 170.881469,97.0255193 L180.252003,96.8017656 L201.006855,96.3135757 L241.852077,95.3439763 L240.835015,94.3269139 C241.114295,98.4216595 241.030342,102.533095 240.584139,106.613027 L241.601202,105.595964 C214.691993,106.423175 187.778264,106.897804 160.860015,107.019852 L161.836395,107.765697 C161.33505,104.674472 161.090121,101.54709 161.10411,98.4155045 C161.10411,97.8537964 160.648755,97.3984421 160.087047,97.3984421 C159.525339,97.3984421 159.069985,97.8537964 159.069985,98.4155045 L159.097107,98.4155045 Z" id="Path" fill="#000A24" fill-rule="nonzero"></path>
                <path d="M159.008542,121.150237 L159.388665,135.253501 C159.395224,135.568466 159.545477,135.863132 159.796548,136.053418 C160.04762,136.243704 160.371932,136.308708 160.676944,136.229881 C167.870964,135.158576 175.390445,135.423012 182.65227,135.138234 C189.493709,134.873798 196.328368,134.683947 203.169807,134.494095 C217.151024,134.09405 231.13224,133.666884 245.079555,132.663383 C245.588086,132.6227 246.157641,132.222656 246.096617,131.64632 C245.588086,126.635593 245.208383,121.570623 244.18454,116.6277 C244.058328,116.188673 243.658177,115.88511 243.20138,115.881855 L160.107389,119.122893 C158.798769,119.177136 158.791988,121.211261 160.107389,121.157018 L243.20138,117.915979 L242.21822,117.170134 C243.20816,121.916424 243.574303,126.811884 244.062493,131.64632 L245.079555,130.629258 C230.691513,131.666662 216.26957,132.087047 201.847626,132.493872 C194.789214,132.697285 187.724021,132.900697 180.665608,133.171914 C173.885193,133.449911 166.887804,133.246499 160.13451,134.25678 L161.422789,135.239941 L161.043086,121.136677 C161.009184,119.834837 158.975059,119.828056 159.008542,121.136677 L159.008542,121.150237 Z" id="Path" fill="#000A24" fill-rule="nonzero"></path>
                <path d="M159.619199,145.539392 C158.897403,150.303839 158.828967,155.144485 159.415786,159.927433 C159.430042,160.483129 159.877153,160.93024 160.432849,160.944496 C188.747864,161.283516 217.017676,160.304876 245.242285,158.008576 C245.799449,157.997754 246.248525,157.548677 246.259347,156.991513 C246.171202,152.604585 245.940668,148.217656 245.859303,143.823947 C245.848481,143.266783 245.399404,142.817706 244.84224,142.806884 C216.669614,142.583131 188.463086,142.400059 160.378605,144.949496 C159.090326,145.064763 159.076766,147.105668 160.378605,146.98362 C188.463086,144.434184 216.656053,144.617255 244.84224,144.841009 L243.825178,143.823947 C243.906543,148.217656 244.137077,152.604585 244.225223,156.991513 L245.242285,155.974451 C217.017676,158.266231 188.747864,159.244871 160.432849,158.910371 L161.449911,159.927433 C160.862083,155.327902 160.905427,150.669622 161.578739,146.081825 C161.768591,144.800326 159.80905,144.251113 159.619199,145.539392 L159.619199,145.539392 Z" id="Path" fill="#000A24" fill-rule="nonzero"></path>
                <path d="M152.737077,97.5747329 L152.696395,167.229941 C152.696395,167.791649 153.151749,168.247003 153.713457,168.247003 C154.275165,168.247003 154.730519,167.791649 154.730519,167.229941 L154.771202,97.5747329 C154.771202,97.0130249 154.315847,96.5576706 153.754139,96.5576706 C153.192431,96.5576706 152.737077,97.0130249 152.737077,97.5747329 L152.737077,97.5747329 Z" id="Path" fill="#000A24" fill-rule="nonzero"></path>
                <path d="M155.198368,129.164688 C155.035638,129.001958 154.893249,128.778205 154.730519,128.622255 C154.567789,128.466306 154.805104,128.506988 154.479644,128.622255 C154.154184,128.737522 154.310134,128.676499 154.438961,128.893472 C154.501092,129.002771 154.53161,129.127191 154.527107,129.252834 C154.562612,129.475121 154.491922,129.701203 154.336113,129.863671 C154.180304,130.026138 153.957376,130.106222 153.733798,130.080045 C153.498816,130.098006 153.271362,129.992665 153.133078,129.801833 C152.994794,129.611001 152.965518,129.362054 153.055757,129.144347 C153.11678,129.015519 153.232047,128.839228 153.367656,128.886691 C153.503264,128.934154 153.367656,129.205371 153.564288,128.995178 C153.185384,129.39942 153.185384,130.028384 153.564288,130.432626 C153.961373,130.829217 154.604651,130.829217 155.001736,130.432626 C155.593546,129.774826 155.692232,128.8099 155.245831,128.04592 C154.863248,127.318041 154.115202,126.855707 153.293071,126.839006 C151.414896,126.839006 150.431736,129.18503 151.306409,130.697062 C151.859548,131.701225 152.964292,132.271988 154.10334,132.142087 C155.242388,132.012186 156.190254,131.207337 156.503093,130.104415 C156.815932,129.001494 156.431816,127.818834 155.530608,127.110223 C155.126648,126.769913 154.588866,126.633793 154.071648,126.740941 C153.554431,126.848088 153.114985,127.186652 152.879466,127.659436 C152.316691,128.771424 152.981172,129.829169 153.76092,130.602136 C154.689837,131.524273 156.134065,130.086825 155.198368,129.164688 L155.198368,129.164688 Z" id="Path" fill="#2696AF" fill-rule="nonzero"></path>
                <path d="M154.127062,102.09727 C154.228769,101.541276 155.008516,101.649763 155.096662,102.178635 C155.128544,102.536591 154.990651,102.88877 154.724194,103.129913 C154.457738,103.371056 154.093587,103.473228 153.740579,103.40589 C153.062537,103.277062 152.601469,102.524436 153.326973,102.049807 C153.693116,101.819273 154.005015,102.09727 154.133843,102.463412 C154.221988,102.687166 154.133843,102.9177 154.133843,103.100772 C153.977893,103.161795 154.052478,103.249941 154.350816,103.371988 C154.348999,103.473917 154.307672,103.571157 154.235549,103.643205 L153.008294,102.043027 L152.547226,102.524436 C151.63865,103.473694 153.076098,104.917923 153.984674,103.961884 L154.445742,103.480475 C154.777685,103.112493 154.798422,102.559598 154.494976,102.167785 C154.191529,101.775973 153.651026,101.657741 153.211706,101.887077 C152.753416,102.157152 152.440922,102.619053 152.360727,103.144923 C152.280532,103.670793 152.441143,104.204843 152.798101,104.599243 C153.24495,104.990609 153.840544,105.167099 154.428474,105.082364 C155.016403,104.997629 155.53792,104.660137 155.856068,104.158516 C157.212151,101.954881 154.615252,98.8426706 152.276009,100.266558 C151.331777,100.842365 150.822511,101.926276 150.982017,103.020665 C151.141523,104.115053 151.938988,105.00851 153.008294,105.290846 C154.066169,105.605113 155.211323,105.352183 156.038418,104.621582 C156.865513,103.890981 157.257845,102.7858 157.076543,101.697226 C156.866363,100.534886 155.864077,99.6830845 154.683056,99.6631009 C153.508694,99.5955181 152.452324,100.372847 152.167522,101.514154 C151.936988,102.795653 153.896528,103.344866 154.127062,102.056588 L154.127062,102.09727 Z" id="Path" fill="#2696AF" fill-rule="nonzero"></path>
                <path d="M154.127062,152.218101 C154.228769,151.668887 155.008516,151.770593 155.096662,152.306246 C155.125687,152.663427 154.986936,153.01379 154.721232,153.254252 C154.455528,153.494714 154.093099,153.597919 153.740579,153.533501 C153.062537,153.404674 152.601469,152.652047 153.326973,152.177418 C153.693116,151.940104 154.005015,152.218101 154.133843,152.584243 C154.221988,152.814777 154.133843,153.045312 154.133843,153.228383 C153.977893,153.282626 154.052478,153.377552 154.350816,153.499599 C154.350198,153.599804 154.308538,153.695377 154.235549,153.764036 L153.008294,152.218101 L152.547226,152.69951 C151.63865,153.648769 153.076098,155.086217 153.984674,154.136958 L154.445742,153.655549 C154.788171,153.289069 154.814696,152.728479 154.5084,152.331303 C154.202103,151.934128 153.653177,151.817318 153.211706,152.055371 C152.743818,152.325786 152.424461,152.794475 152.343974,153.328858 C152.263487,153.863241 152.430622,154.405204 152.798101,154.801439 C153.24495,155.192805 153.840544,155.369295 154.428474,155.28456 C155.016403,155.199825 155.53792,154.862333 155.856068,154.360712 C157.212151,152.157077 154.615252,149.044866 152.276009,150.468754 C151.330379,151.042192 150.819712,152.125854 150.979424,153.220176 C151.139136,154.314498 151.938216,155.207007 153.008294,155.486261 C154.066169,155.800529 155.211323,155.547599 156.038418,154.816998 C156.865513,154.086397 157.257845,152.981215 157.076543,151.892641 C156.866363,150.730301 155.864077,149.8785 154.683056,149.858516 C153.507876,149.78817 152.449929,150.566659 152.167522,151.70957 C151.936988,152.984288 153.896528,153.533501 154.127062,152.245223 L154.127062,152.218101 Z" id="Path" fill="#2696AF" fill-rule="nonzero"></path>
                <path d="M235.315757,121.862181 L235.790386,127.849288 C235.892092,129.144347 237.926217,129.157908 237.82451,127.849288 L237.349881,121.862181 C237.248175,120.567122 235.21405,120.553561 235.315757,121.862181 Z" id="Path" fill="#2696AF" fill-rule="nonzero"></path>
                <path d="M233.959674,126.160964 C235.85583,125.871458 237.766117,125.683598 239.682344,125.59819 C240.984184,125.537166 240.990964,123.503042 239.682344,123.564065 C237.583827,123.660911 235.492268,123.873689 233.41724,124.201424 C232.128961,124.398056 232.671395,126.364377 233.959674,126.160964 L233.959674,126.160964 Z" id="Path" fill="#2696AF" fill-rule="nonzero"></path>
                <path d="M237.221053,148.197315 L237.221053,154.930267 C237.221053,155.491975 237.676408,155.947329 238.238116,155.947329 C238.799824,155.947329 239.255178,155.491975 239.255178,154.930267 L239.255178,148.231217 C239.255178,147.669509 238.799824,147.214154 238.238116,147.214154 C237.676408,147.214154 237.221053,147.669509 237.221053,148.231217 L237.221053,148.197315 Z" id="Path" fill="#2696AF" fill-rule="nonzero"></path>
                <path d="M236.102285,152.896142 L242.082611,151.70957 C243.37089,151.458694 242.828457,149.499154 241.546958,149.75003 L235.559852,150.936602 C234.278353,151.187478 234.820786,153.147018 236.102285,152.896142 Z" id="Path" fill="#2696AF" fill-rule="nonzero"></path>
                <path d="M164.874021,103.717789 C165.035077,103.006874 165.295279,102.322132 165.646988,101.683665 C167.111558,100.711805 168.162522,100.870015 168.799881,102.158294 C169.389777,102.673605 169.694896,103.426231 170.352596,103.921202 C171.183584,104.590579 172.276241,104.840615 173.315638,104.599243 C174.237774,104.409392 174.902255,103.663546 175.763368,103.365208 C177.526276,102.74819 178.07549,103.805935 179.587522,104.043249 C180.801268,104.267292 182.05073,103.92244 182.97773,103.107552 C184.225326,102.178635 184.408398,101.195475 186.551009,101.920979 C186.971395,102.063368 187.574852,102.863457 188.049481,103.039748 C189.405564,103.548279 189.98868,102.992285 191.046424,102.361706 C192.104169,101.731128 191.724466,101.324303 193.195816,101.548056 C193.724688,101.629421 194.280682,102.117611 194.89092,102.185415 C196.138516,102.321024 197.243724,101.636202 198.389614,101.324303 C200.4108,100.717362 202.565729,100.717362 204.586914,101.324303 C205.12107,101.455259 205.662566,101.137871 205.80929,100.607829 C205.956014,100.077788 205.654809,99.5271262 205.129347,99.3647626 C202.213769,98.5239911 200.159303,98.9647181 197.311528,99.5885163 C196.152146,99.8179714 194.955773,99.7808746 193.812834,99.4800297 C193.507715,99.4054451 193.222938,99.0054006 192.897478,99.0054006 C192.362272,98.9444314 191.82059,99.0311944 191.331202,99.256276 C190.65316,99.5817359 190.212433,100.761528 189.608976,100.95138 C188.503769,101.28362 187.37822,99.7987092 186.395059,99.4732493 C184.950831,98.9986202 183.920208,99.697003 182.828561,100.558116 C181.289407,101.76503 180.719852,101.914199 178.604362,101.487033 C177.689006,101.303961 177.044866,100.964941 176.109169,101.134451 C174.502211,101.426009 173.152908,103.229599 171.281513,102.056588 C170.542448,101.595519 170.128843,100.46319 169.484703,99.8597329 C166.386053,96.9509347 163.782374,100.103828 162.894139,103.188917 C162.798524,103.710821 163.117466,104.219297 163.628951,104.360397 C164.140437,104.501496 164.674968,104.228461 164.86046,103.73135 L164.874021,103.717789 Z" id="Path" fill="#2696AF" fill-rule="nonzero"></path>
                <path d="M247.784941,99.8800742 C252.002359,101.392107 254.314481,105.351869 254.565356,109.711677 C254.768769,113.291736 253.887315,118.851677 249.927552,120.194199 C248.693516,120.607804 249.24951,122.574125 250.469985,122.153739 C255.412908,120.478976 256.836795,114.410504 256.572359,109.711677 C256.301142,104.37549 253.399125,99.7444659 248.300252,97.9205341 C247.066217,97.4798071 246.530564,99.4461276 247.757819,99.8800742 L247.784941,99.8800742 Z" id="Path" fill="#2696AF" fill-rule="nonzero"></path>
                <path d="M248.442641,118.74997 C248.537567,119.800935 248.646053,120.851899 248.727418,121.909644 C248.774881,122.411395 248.822344,122.513101 248.307033,122.540223 C247.907776,122.546039 247.511925,122.614684 247.134021,122.743635 L248.388398,123.998012 L250.103843,119.007626 L248.10362,118.736409 C247.976435,120.03562 247.749756,121.323157 247.425579,122.587685 C247.106899,123.855623 249.066439,124.398056 249.385119,123.130119 C249.738223,121.686107 249.98076,120.217284 250.110623,118.736409 C250.21911,117.536276 248.462982,117.44135 248.110401,118.465193 L246.401736,123.455579 C246.307927,123.80759 246.408228,124.182934 246.665125,124.441228 C246.922023,124.699521 247.296818,124.801855 247.649332,124.709955 C248.76132,124.276009 250.069941,124.757418 250.619154,123.353872 C250.79411,122.707968 250.817316,122.030352 250.686958,121.373991 L250.449644,118.770312 C250.334377,117.475252 248.300252,117.468472 248.415519,118.770312 L248.442641,118.74997 Z" id="Path" fill="#2696AF" fill-rule="nonzero"></path>
                <path d="M249.276632,127.327196 C252.131187,129.788487 254.517893,134.358487 254.497552,138.175861 C254.477211,141.993234 252.043042,145.227493 249.710579,148.143071 C248.903709,149.153353 250.334377,150.604362 251.154807,149.580519 C253.80595,146.264896 256.579139,142.637374 256.531677,138.175861 C256.29239,133.476908 254.209205,129.062017 250.734421,125.889748 C249.751261,125.042196 248.307033,126.472864 249.296973,127.327196 L249.276632,127.327196 Z" id="Path" fill="#2696AF" fill-rule="nonzero"></path>
                <path d="M249.378338,145.566513 C249.521038,147.74577 250.442768,149.801012 251.975237,151.356988 L252.422745,149.661884 L248.022255,150.509436 L249.276632,151.763813 C249.631223,149.807814 250.447092,147.964555 251.656558,146.386944 L249.798724,146.149629 C250.142803,147.051134 250.406016,147.981456 250.585252,148.929599 C250.625053,149.126812 250.654475,149.325979 250.673398,149.526276 C250.673398,149.885638 250.795445,149.811053 251.04632,149.302522 C251.04632,149.302522 249.459703,149.411009 249.324095,149.417789 L250.341157,150.434852 C250.238682,150.071334 250.402082,149.685371 250.734421,149.505935 C251.832849,148.827893 250.809006,147.037864 249.703798,147.749807 C248.764353,148.294822 248.233169,149.341255 248.347715,150.421291 C248.355019,150.979946 248.806123,151.43105 249.364777,151.438353 C250.55135,151.356988 252.388843,151.587522 252.721083,150.08227 C253.026202,148.726187 252.260015,146.848012 251.805727,145.593635 C251.684245,145.209156 251.350987,144.929898 250.951183,144.87756 C250.55138,144.825223 250.157469,145.009287 249.941113,145.34954 C248.631483,147.072873 247.744349,149.079374 247.350994,151.207819 C247.267643,151.559042 247.372858,151.928342 247.628799,152.182899 C247.88474,152.437457 248.254605,152.540669 248.605371,152.455415 L252.971958,151.607864 C253.318918,151.508238 253.587776,151.233265 253.679575,150.884152 C253.771373,150.53504 253.672545,150.163384 253.419466,149.905979 C252.240474,148.746471 251.518394,147.201218 251.385341,145.552953 C251.283635,144.257893 249.24951,144.244332 249.351217,145.552953 L249.378338,145.566513 Z" id="Path" fill="#2696AF" fill-rule="nonzero"></path>
                <path d="M104.175742,49.1083234 C104.248066,51.6848813 104.223205,54.259179 104.101157,56.8312166 C104.033353,58.1398368 106.067478,58.1398368 106.135282,56.8312166 C106.257329,54.2636993 106.282191,51.6894016 106.209866,49.1083234 C106.169184,47.7997033 104.135059,47.7997033 104.175742,49.1083234 L104.175742,49.1083234 Z" id="Path" fill="#000A24" fill-rule="nonzero"></path>
                <path d="M105.633531,49.8880712 C105.954066,49.6972697 106.353657,49.6986192 106.672896,49.8915814 C106.992135,50.0845436 107.179069,50.437716 107.159125,50.8102077 C107.159125,51.7798071 106.325134,52.2612166 105.491142,52.3968249 C104.202864,52.6070178 104.745297,54.5665579 106.026795,54.356365 C107.022166,54.2279845 107.919052,53.6907224 108.501905,52.8736991 C109.084758,52.0566758 109.300877,51.0337642 109.098323,50.0508012 C108.87362,49.1141955 108.218951,48.3391691 107.333094,47.9610431 C106.447237,47.5829171 105.434696,47.6462988 104.602908,48.1319436 C104.117967,48.4165424 103.955557,49.0403777 104.240156,49.525319 C104.524755,50.0102602 105.14859,50.1726699 105.633531,49.8880712 L105.633531,49.8880712 Z" id="Path" fill="#000A24" fill-rule="nonzero"></path>
                <path d="M110.847671,52.5459941 C109.70178,53.9020772 109.695,56.0650297 111.600297,56.72273 C113.12589,57.2516024 115.505816,56.2141988 115.512596,54.4038279 C115.512596,53.0477448 114.387047,51.5899555 112.95638,51.6238576 C112.167454,51.6759424 111.421542,52.0021289 110.847671,52.5459941 C109.86451,53.4138872 111.308739,54.8513353 112.285119,53.9902226 C112.47497,53.8207122 112.14951,54.0648071 112.285119,53.9902226 C112.420727,53.915638 112.576677,53.8003709 112.739407,53.7257864 C112.529214,53.8274926 112.861454,53.6851039 112.908917,53.671543 C113.132671,53.6105193 112.79365,53.671543 113.003843,53.671543 C113.091988,53.671543 113.078427,53.671543 113.044525,53.671543 C113.241157,53.8003709 113.044525,53.5766172 113.186914,53.7800297 C113.262654,53.8795552 113.324261,53.98908 113.369985,54.1054896 C113.419708,54.2275371 113.460391,54.3495846 113.492033,54.471632 C113.492033,54.3834866 113.492033,54.3631454 113.492033,54.4038279 C113.31271,54.6326014 113.053573,54.7851771 112.766528,54.8309941 C112.088487,54.9666024 111.857953,54.5462166 112.30546,54.0173442 C113.132671,52.9731602 111.695223,51.5289318 110.847671,52.5459941 Z" id="Path" fill="#000A24" fill-rule="nonzero"></path>
                <path d="M125.934095,54.0037834 C126.062923,54.4106083 125.405223,55.1428932 124.950935,55.0954303 C124.496647,55.0479674 124.720401,54.3495846 124.856009,54.0919288 C124.923202,53.9466613 125.028681,53.8224306 125.161128,53.7325668 C125.248419,53.7152118 125.338273,53.7152118 125.425564,53.7325668 C125.711529,53.7815958 125.946625,53.9853455 126.035801,54.2614392 C126.319664,54.7236974 126.916353,54.8818202 127.391884,54.6208012 C127.864161,54.3285719 128.02505,53.7177876 127.758027,53.230816 C127.231403,52.1022709 125.994859,51.4873087 124.777157,51.7483606 C123.559455,52.0094126 122.683663,53.0772192 122.665935,54.3224629 C122.455742,55.956543 123.635534,57.4143323 125.378101,57.0956528 C126.951157,56.804095 128.388605,55.0615282 127.886855,53.474911 C127.507151,52.2137537 125.540831,52.7494065 125.934095,54.0037834 Z" id="Path" fill="#000A24" fill-rule="nonzero"></path>
                <path d="M129.866736,47.1216617 L129.520935,55.5564985 C129.473472,56.8651187 131.507596,56.8651187 131.555059,55.5564985 L131.900861,47.1216617 C131.948323,45.8130415 129.914199,45.8130415 129.866736,47.1216617 Z" id="Path" fill="#000A24" fill-rule="nonzero"></path>
                <path d="M118.51632,51.5696142 C116.977166,51.9560979 115.397329,53.7868101 116.292344,55.4208902 C117.065312,56.8312166 119.48592,57.0753116 120.808101,56.39727 C121.472841,56.0749556 121.970918,55.4873607 122.18,54.7788057 C122.389082,54.0702506 122.289796,53.3063845 121.906528,52.674822 C121.107269,51.5264333 119.606178,51.105673 118.326469,51.6713205 C117.126335,52.2001929 118.163739,53.9495401 119.350312,53.4274481 C118.963828,53.6037389 119.302849,53.4274481 119.397774,53.4274481 C119.601187,53.4274481 119.933427,53.4274481 120.075816,53.590178 C120.202525,53.7113147 120.269555,53.8820419 120.259108,54.0570279 C120.248661,54.2320138 120.161794,54.3935532 120.021573,54.4987537 C119.495399,54.7399925 118.894326,54.7595396 118.353591,54.552997 C117.736573,54.2004154 118.699392,53.6037389 119.085875,53.5020326 C120.340252,53.2240356 119.804599,51.2509347 118.51632,51.5696142 Z" id="Path" fill="#000A24" fill-rule="nonzero"></path>
                <polygon id="Path" fill="#FFFFFF" fill-rule="nonzero" points="485.777522 298.93273 430.103531 299.861647 344.914392 298.93273 344.914392 195.95178 439.568991 198.006246 485.777522 197.348546"></polygon>
                <g id="Group" opacity="0.2" transform="translate(349.050445, 202.393175)" fill="#2696AF" fill-rule="nonzero">
                    <path d="M7.14655786,0.827210682 C10.0621365,0.447507418 12.9438131,1.7154451 15.4593472,3.23425816 C16.4644632,3.97328765 17.6232608,4.47620577 18.8495549,4.70560831 C20.2666617,4.84121662 21.6159644,4.17673591 22.9178042,3.59362018 C29.020178,0.840771513 35.9294214,-0.535652819 42.4386202,0.969599407 C48.6766024,2.40704748 54.3789318,6.39393175 60.7457418,6.29900593 C66.3870475,6.20408012 71.4452374,2.90879822 76.9373739,1.60017804 C81.4404393,0.533992245 86.1581194,0.821770732 90.4982047,2.42738872 C93.7053412,3.61396142 96.688724,5.51925816 100.065371,6.05491098 C108.04592,7.3364095 115.938323,0.739065282 123.796825,2.66470326 C125.362823,2.99114496 126.786239,3.80249166 127.865074,4.98360534 C128.931781,6.43031047 129.538912,8.16429693 129.607641,9.96043027 C129.878814,12.7176537 129.614033,15.5013005 128.827893,18.1579525 C127.526053,22.5448813 124.793546,26.8368843 125.634318,31.3322997 C126.224214,34.471632 128.468531,37.0142878 129.75681,39.9366469 C131.045089,42.8590059 131.370549,46.1475074 131.424792,49.3614243 C131.492596,53.6873294 130.787433,58.6302522 127.200593,61.0576409 C124.488427,62.8815727 120.969392,62.7052819 117.708012,62.4611869 C115.0093,62.3673558 112.330868,61.9577399 109.727463,61.2407122 C107.876409,60.6440356 106.127062,59.7490208 104.303131,59.1184421 C98.4651929,57.1317804 92.0577003,57.9725519 86.0705935,59.4371217 C80.0834866,60.9016914 74.1980861,62.9900593 68.0550297,63.4511276 C57.0910979,64.2783383 46.4255045,59.9185312 35.5090356,59.0370772 C29.9595027,58.5980502 24.3754819,59.0559444 18.9716024,60.3931602 C15.5813947,61.2271513 12.1572849,62.4272849 8.65181009,62.2374332 C5.14633531,62.0475816 1.42388724,59.9998961 0.650919881,56.5825668 C0.0610237389,53.9992285 1.24759644,51.395549 2.31212166,48.9749407 C6.12949555,40.3502522 8.84844214,30.3287982 5.19379822,21.6430861 C4.02756677,18.8766766 1.26115727,16.6594807 1.03062315,13.6625371 C0.101706231,2.55621662 4.52253709,1.17301187 7.14655786,0.827210682 Z" id="Path"></path>
                </g>
                <polygon id="Path" fill="#FFFFFF" fill-rule="nonzero" points="459.557656 183.54362 398.079629 184.560682 304.937062 183.54362 304.937062 73.2262611 408.426543 74.2636647 459.557656 73.5449407"></polygon>
                <g id="Group" opacity="0.2" transform="translate(382.952522, 121.028190)" fill="#2696AF" fill-rule="nonzero">
                    <path d="M10.2519881,2.32568249 C11.3232938,2.18329377 12.2861128,1.55949555 13.3235163,1.14589021 C16.1044724,0.0608123023 19.2541275,0.555536076 21.5685015,2.44094955 C22.5381009,3.22747774 23.4670178,4.26488131 24.6535905,4.33946588 C25.7113353,4.40048961 26.6877151,3.66142433 27.5962908,3.10543027 C30.3078708,1.47156289 33.6334991,1.2200025 36.56,2.42738872 C37.9838872,3.02406528 39.3128487,3.95976261 40.8113205,4.29200297 C45.5576113,5.34296736 49.9445401,0.135608309 54.7179525,0.820430267 C58.4064985,1.34930267 61.8712908,4.35980712 65.5666172,4.21063798 C70.4417359,3.98688427 71.2282641,8.80097923 70.9909496,10.8622255 C70.6315875,14.2524332 68.353368,12.143724 67.7295697,15.4525668 C67.667505,16.0697908 67.6425986,16.6901876 67.6549852,17.3104006 C67.4108902,21.5820623 62.3187982,23.0873145 58.725178,21.8397181 C55.1315579,20.5921217 51.8498368,17.7714688 48.0934866,17.8731751 C44.5541098,17.9409792 41.4690208,20.5446588 38.0652522,21.6566469 C30.8373294,24.0162315 23.2568249,19.4801335 15.7441246,19.846276 C13.1472255,19.9751039 10.543546,20.6938279 7.97376855,20.2395401 C5.4039911,19.7852522 2.7664095,17.6697626 2.67826409,14.7067211 C2.56977745,11.0927596 -0.78652819,7.98054896 0.867893175,4.40727003 C3.05796736,-0.244094955 7.01094955,2.74606825 10.2519881,2.32568249 Z" id="Path"></path>
                </g>
                <polygon id="Path" stroke="#000000" points="459.557656 183.54362 398.079629 184.560682 304.937062 183.54362 304.937062 73.2262611 408.426543 74.2636647 459.557656 73.5449407"></polygon>
                <path d="M304.645504,74.4874184 C356.041053,76.521543 407.490846,75.9519881 458.899955,75.036632 C459.461663,75.036632 459.917018,74.5812777 459.917018,74.0195697 C459.917018,73.4578617 459.461663,73.0025074 458.899955,73.0025074 C407.490846,73.9178635 356.041053,74.5213205 304.645504,72.4532938 C303.336884,72.4058309 303.343665,74.4399555 304.645504,74.4874184 Z" id="Path" fill="#000A24" fill-rule="nonzero"></path>
                <path d="M303.743709,74.4602967 C303.662344,110.541147 303.608101,146.631039 303.580979,182.72997 C303.580979,183.291678 304.036334,183.747033 304.598042,183.747033 C305.15975,183.747033 305.615104,183.291678 305.615104,182.72997 C305.673867,146.65364 305.728111,110.575049 305.777834,74.4941988 C305.777834,73.9324908 305.32248,73.4771365 304.760772,73.4771365 C304.199064,73.4771365 303.743709,73.9324908 303.743709,74.4941988 L303.743709,74.4602967 Z" id="Path" fill="#000A24" fill-rule="nonzero"></path>
                <path d="M304.977745,184.296246 C356.590267,186.330371 408.232171,186.527003 459.903457,184.886142 C461.205297,184.84546 461.212077,182.811335 459.903457,182.852018 C408.277374,184.483838 356.63547,184.287206 304.977745,182.262122 C303.669125,182.207878 303.669125,184.242003 304.977745,184.296246 Z" id="Path" fill="#000A24" fill-rule="nonzero"></path>
                <path d="M458.133769,73.9246439 C458.395945,110.412319 458.621958,146.895475 458.81181,183.37411 C458.81181,183.935818 459.267164,184.391172 459.828872,184.391172 C460.39058,184.391172 460.845935,183.935818 460.845935,183.37411 L460.845935,183.37411 C460.583759,146.895475 460.357745,110.412319 460.167893,73.9246439 C460.167893,73.3629359 459.712539,72.9075816 459.150831,72.9075816 C458.589123,72.9075816 458.133769,73.3629359 458.133769,73.9246439 L458.133769,73.9246439 Z" id="Path" fill="#000A24" fill-rule="nonzero"></path>
                <path d="M347.694362,151.770593 C374.544807,152.769575 401.399773,152.84868 428.259258,152.007908 L427.242196,150.990846 C427.716825,158.001795 428.076187,165.012745 428.550816,172.010134 L429.567878,170.993071 C412.78635,172.152522 395.835312,172.11184 378.985979,171.881306 C370.659629,171.766039 362.326499,171.610089 353.993368,171.555846 C351.525297,171.555846 349.497953,171.976231 348.718205,169.230163 C348.216454,167.460475 348.324941,165.209377 348.216454,163.358323 C347.958798,159.174807 347.938457,154.991291 348.074065,150.807774 C348.121528,149.499154 346.087404,149.499154 346.039941,150.807774 C345.87717,155.410203 345.951854,160.017964 346.263694,164.6127 C346.419644,166.823116 346.060282,170.789659 347.82319,172.532226 C349.78951,174.478205 354.291706,173.58997 356.698754,173.610312 C361.648457,173.657774 366.604941,173.732359 371.561424,173.806944 C390.91273,174.091721 410.277596,174.356157 429.595,173.040757 C430.155169,173.037059 430.608365,172.583864 430.612062,172.023694 C430.137433,165.012745 429.778071,158.001795 429.303442,151.004407 C429.296139,150.445752 428.845035,149.994648 428.28638,149.987344 C401.435935,150.828116 374.580969,150.749011 347.721484,149.75003 C346.412864,149.702567 346.419644,151.736691 347.721484,151.784154 L347.694362,151.770593 Z" id="Path" fill="#000A24" fill-rule="nonzero"></path>
                <path d="M364.855593,163.188813 C365.594659,162.083605 366.889718,160.347819 368.469555,160.85635 C369.147596,161.080104 370.279926,163.093887 370.707092,163.62954 C370.963036,163.893535 371.343537,163.995176 371.697033,163.893976 C373.148042,163.392226 373.053116,162.470089 373.982033,161.493709 C376.694199,158.673056 378.382522,163.493932 380.477671,164.463531 C383.40003,165.819614 386.044392,163.595638 386.085074,160.625816 L384.5527,161.50049 C386.322389,162.720964 390.187226,166.802774 392.519688,164.76865 C392.818027,164.510994 392.912953,164.090608 393.150267,163.78549 C393.347451,162.844683 394.138448,162.144637 395.096246,162.063264 C395.381024,162.266677 395.665801,162.476869 395.943798,162.693843 C397.150712,163.154911 397.788071,164.165193 399.211958,164.049926 C400.445994,163.968561 400.954525,162.998961 401.924125,162.524332 C404.710875,161.168249 405.456721,163.588858 407.918012,163.832953 C410.537287,164.022907 412.916438,162.309232 413.566098,159.764703 C413.681807,159.235832 413.36294,158.709012 412.840718,158.566259 C412.318497,158.423507 411.775976,158.714861 411.606558,159.22905 C411.077685,161.046202 409.775846,161.703902 408.080742,161.554733 C406.724659,161.446246 406.446662,160.876691 405.409258,160.286795 C404.684749,159.792849 403.816361,159.554281 402.941187,159.608754 C402.01905,159.737582 401.537641,160.381721 400.791795,160.795326 C397.910119,162.422626 397.855875,161.168249 395.835312,160.117285 C394.479228,159.439243 393.238412,159.439243 392.241691,160.69362 C391.502626,161.615757 391.855208,163.039644 390.166884,162.876914 C388.885386,162.754866 386.654629,160.456306 385.576543,159.71046 C385.337451,159.577018 385.055086,159.544202 384.791763,159.619255 C384.528441,159.694309 384.305808,159.871061 384.172997,160.110504 C384.090258,160.257589 384.045949,160.423164 384.044169,160.591914 C382.150173,162.287018 380.735326,162.48139 379.799629,161.17503 C379.48095,160.795326 379.121588,160.422404 378.83003,160.049481 C378.382928,159.581666 377.871531,159.179854 377.311217,158.856128 C376.436819,158.335273 375.398949,158.161085 374.402418,158.367938 C373.638938,158.603007 372.986276,159.106351 372.564926,159.785045 C372.158101,160.347819 372.232685,161.141128 371.391914,161.236053 C371.012211,161.236053 369.357789,158.720519 369.154377,158.456083 C368.897773,158.193156 368.516662,158.093963 368.164436,158.198427 C366.071977,158.883524 364.280376,160.270337 363.092685,162.124288 C362.360401,163.215935 364.123309,164.239777 364.848813,163.154911 L364.855593,163.188813 Z" id="Path" fill="#000A24" fill-rule="nonzero"></path>
                <path d="M320.382849,119.048309 C320.626944,117.780371 320.89816,116.525994 321.210059,115.278398 C321.521958,114.030801 321.725371,112.518769 322.566142,111.589852 L320.965964,111.379659 C322.349355,113.549779 323.51665,115.850304 324.451098,118.24822 C324.918947,119.455134 326.885267,118.926261 326.410638,117.705786 C325.423929,115.141295 324.188521,112.679563 322.722092,110.355816 C322.583898,110.121645 322.357691,109.952559 322.093976,109.886312 C321.830262,109.820065 321.551002,109.862173 321.318546,110.003234 C321.249781,110.042913 321.18604,110.090719 321.128694,110.145623 C319.243739,112.227211 318.93184,115.847953 318.416528,118.505875 C318.172433,119.780593 320.131973,120.329807 320.382849,119.048309 L320.382849,119.048309 Z" id="Path" fill="#000000" fill-rule="nonzero"></path>
                <path d="M320.518457,116.851454 C321.954292,116.981398 323.396114,117.033458 324.837582,117.007404 C325.39929,117.007404 325.854644,116.552049 325.854644,115.990341 C325.854644,115.428633 325.39929,114.973279 324.837582,114.973279 C323.396114,114.999333 321.954292,114.947274 320.518457,114.817329 C319.216617,114.695282 319.216617,116.729407 320.518457,116.851454 Z" id="Path" fill="#000000" fill-rule="nonzero"></path>
                <path d="M390.546588,111.535608 C390.923879,113.754554 391.139161,115.998018 391.190727,118.24822 C391.190727,118.809928 391.646081,119.265282 392.207789,119.265282 C392.769497,119.265282 393.224852,118.809928 393.224852,118.24822 C393.161834,115.815623 392.921623,113.390853 392.506128,110.993175 C392.289154,109.711677 390.329614,110.25411 390.546588,111.535608 Z" id="Path" fill="#000000" fill-rule="nonzero"></path>
                <path d="M392.05184,112.145846 C392.729881,112.078042 394.452107,111.989896 393.082463,112.87135 C392.302715,113.36632 392.526469,114.871573 393.597774,114.763086 C394.66908,114.654599 396.655742,114.803769 396.493012,116.376825 C396.330282,117.949881 394.004599,117.631202 392.906172,117.448131 C391.624674,117.231157 391.07546,119.190697 392.363739,119.407671 C394.675861,119.794154 398.235579,119.760252 398.58816,116.695504 C398.90684,113.881632 395.964139,112.525549 393.597774,112.756083 L394.106306,114.654599 C395.170831,113.976558 396.269258,112.905252 395.753947,111.522047 C395.238635,110.138843 393.326558,110.010015 392.05184,110.165964 C390.777122,110.321914 390.74322,112.328917 392.05184,112.200089 L392.05184,112.145846 Z" id="Path" fill="#000A24" fill-rule="nonzero"></path>
                <path d="M324.417196,128.283234 C321.806736,128.235772 319.250519,130.317359 319.236958,133.029525 C319.173607,134.245913 319.818073,135.389577 320.89138,135.965445 C321.521904,136.196307 322.195817,136.284309 322.864481,136.223101 L325.94957,136.223101 C326.511278,136.223101 326.966632,135.767747 326.966632,135.206039 C326.966632,134.644331 326.511278,134.188976 325.94957,134.188976 L323.088234,134.188976 C322.118635,134.188976 321.257522,134.24322 321.271083,133.029525 C321.271083,131.395445 322.905163,130.263116 324.417196,130.317359 C324.978904,130.317359 325.434258,129.862005 325.434258,129.300297 C325.434258,128.738589 324.978904,128.283235 324.417196,128.283234 L324.417196,128.283234 Z" id="Path" fill="#000A24" fill-rule="nonzero"></path>
                <path d="M391.190727,129.164688 C390.98634,131.015023 390.920613,132.878052 390.994095,134.73819 C391.048338,136.04681 393.082463,136.053591 393.02822,134.73819 C392.954737,132.878052 393.020465,131.015023 393.224852,129.164688 C393.374021,127.862849 391.339896,127.876409 391.190727,129.164688 Z" id="Path" fill="#2696AF" fill-rule="nonzero"></path>
                <path d="M392.173887,130.303798 C393.801187,129.829169 396.737107,129.327418 397.028665,131.768368 C397.340564,134.372047 394.167329,134.263561 392.479006,134.107611 C391.177166,133.985564 391.183947,136.019688 392.479006,136.141736 C394.126647,136.290905 395.916677,136.351929 397.340564,135.361988 C398.572538,134.481894 399.227392,133.000675 399.049228,131.497151 C398.554258,127.734021 394.526691,127.489926 391.638234,128.344258 C390.383858,128.710401 390.91273,130.676721 392.173887,130.303798 L392.173887,130.303798 Z" id="Path" fill="#2696AF" fill-rule="nonzero"></path>
                <path d="M428.076187,86.8345549 C429.391127,85.9334785 431.172625,86.1609038 432.219021,87.3634273 C433.941246,89.234822 430.862938,91.5062611 429.039006,90.9095846 C428.733749,90.8279484 428.4079,90.8918356 428.15607,91.0826961 C427.90424,91.2735567 427.754648,91.5700045 427.750727,91.8859644 L428.110089,95.9948961 C428.218576,97.2899555 430.2527,97.2967359 430.144214,95.9948961 L429.784852,91.8859644 L428.496573,92.8691246 C431.344347,93.8116024 435.663472,90.9706083 434.754896,87.7092285 C433.907344,84.6716024 429.520415,83.1731306 427.052344,85.0784273 C426.028501,85.8649555 427.052344,87.6346439 428.076187,86.8345549 L428.076187,86.8345549 Z" id="Path" fill="#000A24" fill-rule="nonzero"></path>
                <path d="M427.615119,98.3273591 C427.249619,98.8562089 427.147138,99.5235812 427.337122,100.13773 C427.555461,100.695566 428.094164,101.061884 428.693205,101.059866 C429.245499,101.080372 429.766389,100.80319 430.057919,100.333659 C430.349449,99.8641278 430.366858,99.2743369 430.103531,98.7884273 C429.597465,98.0299406 428.574614,97.8211338 427.811751,98.3205786 C427.626809,98.4445565 427.46788,98.6034851 427.343902,98.7884273 C426.925462,99.6160843 427.256122,100.626265 428.082967,101.046306 C428.368469,101.195323 428.691638,101.256654 429.011884,101.222596 C429.941303,101.025329 430.543343,100.122269 430.367967,99.1884718 C430.302453,98.8631723 430.147473,98.562605 429.92046,98.3205786 C429.519724,97.9471691 428.895248,97.9581873 428.507934,98.345501 C428.120621,98.7328147 428.109602,99.3572909 428.483012,99.7580267 C428.483012,99.7173442 428.333843,99.4596884 428.394866,99.6359792 L428.394866,99.4732493 C428.394866,99.3444214 428.45589,99.3376409 428.394866,99.3986647 C428.333843,99.4596884 428.394866,99.4461276 428.442329,99.3444214 C428.527089,99.2690739 428.634337,99.2237914 428.747448,99.2155935 L429.018665,99.290178 L429.018665,99.290178 C429.102164,99.3928971 429.136706,99.5269275 429.113255,99.6572093 C429.089804,99.7874912 429.010694,99.9010641 428.896617,99.9682196 C428.848301,100.012663 428.790247,100.045173 428.727107,100.063145 L428.591499,100.063145 C428.45589,99.9953412 428.435549,99.9953412 428.530475,100.063145 L428.299941,99.8393917 C428.198589,99.6558196 428.198589,99.4330676 428.299941,99.2494955 C428.299941,99.2088131 428.571157,99.0257418 428.428769,99.1071068 C428.564377,99.0528635 428.591499,99.0393027 428.516914,99.0596439 C428.442329,99.0799852 428.476231,99.0596439 428.625401,99.0596439 C428.832454,99.0674585 429.021396,99.1798027 429.127151,99.3579822 L429.194955,99.5817359 L429.194955,99.5817359 L429.296662,99.3851039 C429.555052,98.9025529 429.385185,98.302051 428.912307,98.0263574 C428.439428,97.7506639 427.833169,97.8986755 427.540534,98.3612611 L427.615119,98.3273591 Z" id="Path" fill="#000A24" fill-rule="nonzero"></path>
                <path d="M317.223175,93.1132196 C317.901217,91.6961128 319.352226,88.3669288 320.972745,89.3365282 C321.766053,89.8247181 321.772834,90.6926113 322.132196,91.553724 C322.559362,92.5436647 323.298427,94.2252077 324.600267,94.2658902 C325.278309,94.2658902 325.576647,93.8794065 326.044496,93.3505341 C326.668294,92.6724926 328.004036,89.5874036 328.980415,89.6145252 C329.956795,89.6416469 330.885712,91.8859644 331.482389,92.5640059 C332.106445,93.3097619 332.877327,93.9190815 333.747047,94.3540356 C335.05566,95.0458648 336.639593,94.9571437 337.86276,94.1235015 C338.662849,93.6217507 339.157819,92.6996142 339.896884,92.2114243 C341.415697,91.2418249 342.893828,91.8385015 343.836306,93.2352671 C346.18911,96.7339614 349.057226,96.0762611 351.294763,92.7402967 C352.033828,91.6486499 350.27092,90.6315875 349.538635,91.7096736 C348.901276,92.6589318 347.50451,93.8794065 346.18911,93.0657567 C345.741602,92.7877596 345.37546,91.7842582 345.029659,91.3164095 C344.646834,90.7100743 344.173512,90.1658674 343.626113,89.7026706 C342.561027,88.9023143 341.118794,88.8220416 339.971469,89.4992582 C339.214272,89.9994697 338.529767,90.601834 337.937344,91.2892878 C336.018487,93.12 334.058947,92.6453709 332.513012,90.4891988 C331.679021,89.350089 330.777226,87.7770326 329.21095,87.4922552 C327.481944,87.1939169 326.559807,88.8483383 325.759718,90.0823739 C325.325772,90.7604154 324.939288,91.9130861 324.403635,91.6283086 C324.051053,91.4316766 323.773056,90.312908 323.657789,89.9399852 C323.420475,89.1466766 323.495059,88.2381009 322.979748,87.5600593 C320.267582,84.1698516 316.395964,90.0891543 315.460267,92.0893769 C314.911053,93.2691691 316.667181,94.2997923 317.216395,93.1132196 L317.223175,93.1132196 Z" id="Path" fill="#000A24" fill-rule="nonzero"></path>
                <path d="M360.983976,93.2284866 C364.225015,91.635089 367.811855,89.9332047 371.527522,90.0620326 C374.673635,90.1772997 376.951855,92.0283531 379.725045,93.1810237 C383.458441,94.7070202 387.739099,93.9118514 390.675415,91.1468991 L389.237967,91.1468991 C390.757875,92.481675 392.700915,93.2358338 394.723323,93.2759496 C395.882482,93.1899539 397.023757,92.9411561 398.113531,92.5368843 C400.249362,91.960549 401.612226,92.3334718 403.680252,92.9369288 C409.823309,94.7472997 416.264703,93.7844807 422.468783,92.8216617 C423.757062,92.6182493 423.207849,90.6587092 421.92635,90.8621217 C416.088412,91.7639169 410.00638,92.679273 404.215905,90.9773887 C402.541142,90.4824184 400.913843,89.7230119 399.123813,90.0416914 C395.950579,90.6044659 393.821528,92.2317656 390.695757,89.709451 C390.288942,89.3371114 389.665123,89.3371114 389.258309,89.709451 C386.33595,92.2927893 382.884718,92.4216172 379.49451,90.8146588 C377.270534,89.7365727 375.426261,88.4889763 372.937849,88.1024926 C368.38819,87.4719139 363.953798,89.4585757 359.973694,91.4316766 C358.800682,92.0080119 359.831306,93.7641395 361.004318,93.1878042 L360.983976,93.2284866 Z" id="Path" fill="#000A24" fill-rule="nonzero"></path>
                <path d="M317.338442,107.467359 L379.609777,108.78276 C380.171485,108.78276 380.62684,108.327405 380.62684,107.765697 C380.62684,107.203989 380.171485,106.748635 379.609777,106.748635 L317.338442,105.433234 C316.776734,105.433234 316.32138,105.888589 316.32138,106.450297 C316.32138,107.012005 316.776734,107.467359 317.338442,107.467359 Z" id="Path" fill="#000A24" fill-rule="nonzero"></path>
                <path d="M378.755445,107.691113 C378.755445,112.396721 378.680861,117.100069 378.531691,121.801157 C378.491009,123.109777 380.525134,123.109777 380.565816,121.801157 C380.705945,117.095549 380.780529,112.392201 380.78957,107.691113 C380.78957,107.129405 380.334215,106.67405 379.772507,106.67405 C379.210799,106.67405 378.755445,107.129405 378.755445,107.691113 Z" id="Path" fill="#000A24" fill-rule="nonzero"></path>
                <path d="M317.13503,122.730074 C338.014189,123.79686 358.904649,123.909866 379.806409,123.069095 C381.11503,123.014852 381.12181,120.980727 379.806409,121.03497 C358.92273,121.875742 338.03227,121.762735 317.13503,120.69595 C315.826409,120.628145 315.826409,122.66227 317.13503,122.730074 Z" id="Path" fill="#000A24" fill-rule="nonzero"></path>
                <path d="M315.941677,106.240104 C315.546239,111.35593 315.408196,116.4884 315.528071,121.618086 C315.528071,122.179794 315.983426,122.635148 316.545134,122.635148 C317.106842,122.635148 317.562196,122.179794 317.562196,121.618086 C317.442321,116.4884 317.580364,111.35593 317.975801,106.240104 C318.077507,104.938264 316.036602,104.945045 315.941677,106.240104 Z" id="Path" fill="#000A24" fill-rule="nonzero"></path>
                <path d="M387.875104,107.731795 C408.568932,107.731795 429.26276,107.858363 449.956588,108.111499 C450.518296,108.111499 450.97365,107.656144 450.97365,107.094436 C450.97365,106.532728 450.518296,106.077374 449.956588,106.077374 C429.26276,105.819718 408.568932,105.69315 387.875104,105.697671 C387.313396,105.697671 386.858042,106.153025 386.858042,106.714733 C386.858042,107.276441 387.313396,107.731795 387.875104,107.731795 Z" id="Path" fill="#000A24" fill-rule="nonzero"></path>
                <path d="M449.17684,106.884243 C449.01411,111.40452 449.01411,115.906716 449.17684,120.390831 C449.224303,121.692671 451.258427,121.699451 451.210964,120.390831 C451.043714,115.870554 451.043714,111.368358 451.210964,106.884243 C451.258427,105.575623 449.224303,105.582404 449.17684,106.884243 Z" id="Path" fill="#000000" fill-rule="nonzero"></path>
                <path d="M388.281929,122.485979 L450.16,122.485979 C450.721708,122.485979 451.177062,122.030625 451.177062,121.468917 C451.177062,120.907209 450.721708,120.451855 450.16,120.451855 L388.281929,120.451855 C387.720221,120.451855 387.264866,120.907209 387.264866,121.468917 C387.264866,122.030625 387.720221,122.485979 388.281929,122.485979 Z" id="Path" fill="#000000" fill-rule="nonzero"></path>
                <path d="M387.054674,106.884243 C387.501208,111.649653 387.455765,116.448382 386.919065,121.204481 C386.769896,122.49954 388.804021,122.49276 388.95319,121.204481 C389.48989,116.448382 389.535333,111.649653 389.088798,106.884243 C388.966751,105.595964 386.925846,105.582404 387.054674,106.884243 Z" id="Path" fill="#000000" fill-rule="nonzero"></path>
                <path d="M316.931617,126.655935 C337.489837,126.226508 358.057097,126.346296 378.633398,127.015297 C379.942018,127.055979 379.942018,125.021855 378.633398,124.981172 C358.079698,124.307651 337.512438,124.187864 316.931617,124.62181 C316.369909,124.62181 315.914555,125.077164 315.914555,125.638872 C315.914555,126.20058 316.369909,126.655935 316.931617,126.655935 Z" id="Path" fill="#000A24" fill-rule="nonzero"></path>
                <path d="M377.745163,125.632092 C377.745163,129.99868 377.668318,134.365267 377.514629,138.731855 C377.467166,140.040475 379.501291,140.033694 379.548754,138.731855 C379.720524,134.365267 379.797369,129.99868 379.779288,125.632092 C379.779288,125.070384 379.323934,124.61503 378.762226,124.61503 C378.200518,124.61503 377.745163,125.070384 377.745163,125.632092 Z" id="Path" fill="#000A24" fill-rule="nonzero"></path>
                <path d="M315.955237,125.835504 L315.745045,138.908145 C315.7593,139.463841 316.206411,139.910952 316.762107,139.925208 C337.37457,140.28683 357.989293,140.424698 378.606276,140.338813 C379.167984,140.338813 379.623338,139.883459 379.623338,139.321751 C379.623338,138.760043 379.167984,138.304688 378.606276,138.304688 L378.606276,138.304688 C357.989293,138.386053 337.37457,138.248185 316.762107,137.891083 L317.779169,138.908145 L317.989362,125.835504 C317.989362,125.273796 317.534008,124.818442 316.9723,124.818442 C316.410592,124.818442 315.955237,125.273796 315.955237,125.835504 L315.955237,125.835504 Z" id="Path" fill="#000A24" fill-rule="nonzero"></path>
                <path d="M387.698813,125.964332 C408.040059,126.565529 428.397127,126.823185 448.770015,126.7373 C449.331723,126.7373 449.787077,126.281945 449.787077,125.720237 C449.787077,125.158529 449.331723,124.703175 448.770015,124.703175 C428.428769,124.793581 408.071701,124.535925 387.698813,123.930208 C386.390193,123.889525 386.390193,125.92365 387.698813,125.964332 Z" id="Path" fill="#000A24" fill-rule="nonzero"></path>
                <path d="M448.105534,125.835504 C448.214021,129.99868 448.177859,134.164115 447.997047,138.33181 C447.942804,139.64043 449.976929,139.64043 450.031172,138.33181 C450.207463,134.168635 450.243625,130.0032 450.139659,125.835504 C450.139659,124.526884 448.04451,124.520104 448.105534,125.835504 Z" id="Path" fill="#000A24" fill-rule="nonzero"></path>
                <path d="M387.698813,139.403116 C408.121424,140.090198 428.546296,140.300391 448.973427,140.033694 C449.535135,140.033694 449.99049,139.57834 449.99049,139.016632 C449.99049,138.454924 449.535135,137.99957 448.973427,137.99957 C428.550816,138.257226 408.125945,138.047033 387.698813,137.368991 C386.390193,137.301187 386.390193,139.335312 387.698813,139.403116 Z" id="Path" fill="#000A24" fill-rule="nonzero"></path>
                <path d="M386.654629,125.028635 L386.654629,138.128398 C386.654629,138.690106 387.109983,139.14546 387.671691,139.14546 C388.233399,139.14546 388.688754,138.690106 388.688754,138.128398 L388.688754,125.028635 C388.688754,124.466927 388.233399,124.011573 387.671691,124.011573 C387.109983,124.011573 386.654629,124.466927 386.654629,125.028635 Z" id="Path" fill="#000A24" fill-rule="nonzero"></path>
                <path d="M344.649955,197.192596 C391.461944,199.086592 438.303314,199.622245 485.174065,198.799555 C485.735773,198.799555 486.191128,198.344201 486.191128,197.782493 C486.191128,197.220785 485.735773,196.76543 485.174065,196.76543 C438.330435,197.588121 391.489065,197.052468 344.649955,195.158472 C343.341335,195.104228 343.341335,197.145134 344.649955,197.192596 Z" id="Path" fill="#000A24" fill-rule="nonzero"></path>
                <path d="M344.982196,299.705697 C391.993076,301.559011 439.040119,301.739822 486.123323,300.248131 C487.431944,300.207448 487.438724,298.173323 486.123323,298.214006 C439.089842,299.705697 392.042799,299.524886 344.982196,297.671573 C343.673576,297.62411 343.680356,299.658234 344.982196,299.705697 Z" id="Path" fill="#000A24" fill-rule="nonzero"></path>
                <path d="M484.387537,197.701128 C484.631632,231.395272 484.857646,265.087156 485.065579,298.77678 C485.065579,299.338488 485.520933,299.793843 486.082641,299.793843 C486.644349,299.793843 487.099703,299.338488 487.099703,298.77678 C486.855608,265.087156 486.629594,231.395272 486.421662,197.701128 C486.421662,197.13942 485.966307,196.684065 485.404599,196.684065 C484.842891,196.684065 484.387537,197.13942 484.387537,197.701128 L484.387537,197.701128 Z" id="Path" fill="#000A24" fill-rule="nonzero"></path>
                <path d="M384.044169,269.960015 C408.598314,270.86407 433.159238,270.936395 457.726944,270.176988 L456.709881,269.159926 C457.143828,275.567418 457.476068,281.988472 457.910015,288.395964 L458.927077,287.378902 C444.091528,288.382404 429.215297,288.389184 414.352626,288.199332 C407.145045,288.104407 399.930682,287.975579 392.71632,287.907774 C391.394139,287.907774 388.465,288.443427 387.291988,287.867092 C385.590104,287.01954 384.87138,284.57181 384.735772,282.897047 C384.658927,281.992992 384.597903,281.111538 384.5527,280.252685 C384.328947,276.496335 384.308605,272.746766 384.430653,268.990415 C384.478116,267.681795 382.443991,267.688576 382.396528,268.990415 C382.250702,273.185966 382.318594,277.386221 382.599941,281.574866 C382.742329,283.608991 382.416869,287.446706 384.166217,289.033323 C386.363071,291.006424 391.380579,289.94868 394.052062,289.975801 C398.330504,290.016484 402.615727,290.084288 406.894169,290.145312 C424.238472,290.409748 441.589555,290.60638 458.906736,289.433368 C459.466905,289.42967 459.920101,288.976475 459.923798,288.416306 C459.489852,282.008813 459.157611,275.58776 458.723665,269.180267 C458.716361,268.621612 458.265257,268.170508 457.706602,268.163205 C433.152458,268.927132 408.591533,268.854807 384.023828,267.946231 C382.715208,267.898769 382.715208,269.932893 384.023828,269.980356 L384.044169,269.960015 Z" id="Path" fill="#000A24" fill-rule="nonzero"></path>
                <path d="M399.788294,280.367953 C400.425653,279.411914 401.578323,277.845638 402.954748,278.252463 C403.585326,278.435534 404.62951,280.32049 404.988872,280.788338 C405.248131,281.066073 405.645714,281.166794 406.005935,281.045994 C407.362018,280.557804 407.199288,279.554303 408.141766,278.815237 C410.677641,276.828576 412.277819,280.80868 414.101751,281.608769 C416.813917,282.795341 419.187062,280.666291 419.227745,277.974466 L417.695371,278.849139 C419.356573,279.99503 422.868828,283.764941 425.086024,281.825742 C426.238694,280.82224 426.055623,279.113576 428.143991,279.954347 C429.310223,280.428976 429.852656,281.364674 431.276543,281.195163 C432.70043,281.025653 433.358131,279.778056 434.761677,279.588205 C436.477122,279.35089 437.365356,280.849362 439.135045,281.005312 C441.55076,281.161237 443.739932,279.588213 444.362745,277.248961 C444.749228,275.994585 442.782908,275.452151 442.403205,276.706528 C441.874332,278.442315 439.941914,279.133917 438.280712,278.672849 C437.650134,278.496558 437.114481,277.703249 436.490682,277.418472 C435.895531,277.081718 435.212455,276.932812 434.531142,276.991306 C433.656469,277.113353 433.263205,277.730371 432.497018,278.096513 C430.286602,279.215282 429.737389,278.238902 427.988042,277.418472 C426.876053,276.889599 425.791187,276.876039 424.896172,277.791395 C424.469006,278.225341 424.319837,279.459377 423.919792,279.750935 C422.685757,280.65273 419.743056,277.838858 418.685312,277.113353 C418.369995,276.936053 417.98452,276.938305 417.671296,277.119279 C417.358073,277.300252 417.163598,277.633082 417.159718,277.994807 C417.098694,282.252908 411.735386,276.720089 411.253976,276.428531 C410.415534,275.874005 409.394284,275.667324 408.406202,275.852196 C407.531528,276.08951 407.226409,276.598042 406.670415,277.208279 C406.311053,277.601543 406.351736,278.449095 405.734718,278.516899 C405.409258,278.550801 403.863323,276.204777 403.700593,275.981024 C403.44465,275.717028 403.064149,275.615388 402.710653,275.716588 C400.773559,276.349237 399.115504,277.633511 398.018605,279.35089 C397.28632,280.442537 399.049228,281.459599 399.774733,280.381513 L399.788294,280.367953 Z" id="Path" fill="#000A24" fill-rule="nonzero"></path>
                <path d="M413.76273,220.388398 C427.323561,221.744481 433.18184,241.021202 418.841261,246.364169 C415.301884,247.67957 411.63368,246.404852 408.528249,244.513116 C405.083798,242.411187 403.876884,239.407463 403.700593,235.481602 C403.571766,232.715193 403.463279,229.636884 404.527804,227.039985 C405.883887,223.751484 410.264036,220.313813 413.939021,220.679955 C415.240861,220.808783 415.2273,218.774659 413.939021,218.645831 C410.189451,218.272908 405.92457,221.147804 403.768398,224.117626 C401.551202,227.195935 401.52408,231.264184 401.632567,234.905267 C401.754614,239.007418 402.636068,242.634941 405.992374,245.258961 C408.955415,247.571083 413.450831,249.496721 417.274985,248.933947 C425.34368,247.727033 430.286602,240.248234 429.113591,232.484659 C427.940579,224.721083 421.499184,219.134021 413.749169,218.354273 C412.447329,218.225445 412.46089,220.25957 413.749169,220.388398 L413.76273,220.388398 Z" id="Path" fill="#2696AF" fill-rule="nonzero"></path>
                <path d="M413.186395,239.224392 C415.936505,238.052019 418.758321,237.055551 421.634792,236.241009 C421.897421,236.158405 422.116444,235.974793 422.24362,235.730614 C422.370797,235.486434 422.395696,235.201717 422.312834,234.939169 C422.237417,234.707146 422.08411,234.508327 421.878887,234.376395 C419.024332,232.491439 416.644407,229.975905 413.667804,228.274021 C413.185253,228.015631 412.584751,228.185497 412.309058,228.658376 C412.033364,229.131254 412.181376,229.737513 412.643961,230.030148 C415.613783,231.738813 417.993709,234.254347 420.848264,236.132522 L421.092359,234.274688 C418.052226,235.152432 415.069828,236.219029 412.162552,237.468264 C410.962418,237.976795 411.999822,239.732923 413.186395,239.224392 Z" id="Path" fill="#2696AF" fill-rule="nonzero"></path>
                <path d="M411.491291,228.836795 L411.592997,238.105623 C411.592997,238.667331 412.048351,239.122685 412.610059,239.122685 C413.171767,239.122685 413.627122,238.667331 413.627122,238.105623 L413.525415,228.836795 C413.525415,228.275087 413.070061,227.819733 412.508353,227.819733 C411.946645,227.819733 411.491291,228.275087 411.491291,228.836795 Z" id="Path" fill="#2696AF" fill-rule="nonzero"></path>
                <path d="M354.271365,205.783383 L421.790742,207.024199 L455.855549,207.654777 L472.623516,207.959896 C474.461009,207.993798 475.247537,208.088724 475.640801,210.048264 C475.891677,211.275519 475.640801,212.814674 475.640801,214.06905 L475.688264,222.781884 L475.905237,261.640445 C475.905237,262.202153 476.360592,262.657507 476.9223,262.657507 C477.484008,262.657507 477.939362,262.202153 477.939362,261.640445 L477.73595,224.788887 L477.681706,216.076053 C477.681706,213.675786 478.156335,210.651721 477.559659,208.298917 C476.630742,204.644273 471.396261,205.90543 468.568828,205.857967 L395.747166,204.501884 L354.271365,203.749258 C353.709657,203.749258 353.254303,204.204612 353.254303,204.76632 C353.254303,205.328028 353.709657,205.783383 354.271365,205.783383 L354.271365,205.783383 Z" id="Path" fill="#000A24" fill-rule="nonzero"></path>
                <path d="M354.474777,262.406632 L477.268101,262.738872 C477.829809,262.738872 478.285163,262.283518 478.285163,261.72181 C478.285163,261.160102 477.829809,260.704748 477.268101,260.704748 L354.474777,260.372507 C353.913069,260.372507 353.457715,260.827862 353.457715,261.38957 C353.457715,261.951278 353.913069,262.406632 354.474777,262.406632 Z" id="Path" fill="#000000" fill-rule="nonzero"></path>
                <path d="M353.240742,204.651053 L353.118694,235.454481 L353.064451,250.188323 C353.064451,252.866588 353.010208,255.551632 353.064451,258.229896 C353.064451,259.355445 352.908501,260.264021 353.742493,261.077671 C354.144003,261.463419 354.77843,261.463419 355.179941,261.077671 L355.430816,260.826795 C355.80972,260.422554 355.80972,259.793589 355.430816,259.389347 L355.247745,259.206276 C354.847009,258.832866 354.222533,258.843885 353.835219,259.231198 C353.447905,259.618512 353.436887,260.242988 353.810297,260.643724 L353.986588,260.826795 L353.986588,259.389347 L353.742493,259.640223 L355.152819,259.640223 C354.474777,258.901157 355.112136,253.856528 355.152819,252.859807 L355.152819,246.167537 L355.207062,232.098175 L355.315549,204.644273 C355.315549,204.082565 354.860195,203.627211 354.298487,203.627211 C353.736779,203.627211 353.281424,204.082565 353.281424,204.644273 L353.240742,204.651053 Z" id="Path" fill="#000000" fill-rule="nonzero"></path>
                <path d="M343.734599,197.077329 C343.671316,230.771474 343.621592,264.465618 343.58543,298.159763 C343.58543,298.721471 344.040785,299.176825 344.602493,299.176825 C345.164201,299.176825 345.619555,298.721471 345.619555,298.159763 C345.673798,264.461098 345.723521,230.766954 345.768724,197.077329 C345.768724,196.515621 345.31337,196.060267 344.751662,196.060267 C344.189954,196.060267 343.734599,196.515621 343.734599,197.077329 L343.734599,197.077329 Z" id="Path" fill="#000A24" fill-rule="nonzero"></path>
                <rect id="Rectangle" fill="#D8D8D8" opacity="0" x="0" y="0" width="554" height="330"></rect>
            </g>
        </g>
    </g>
</svg>