<?xml version="1.0" encoding="UTF-8"?>
<svg width="454px" height="279px" viewBox="0 0 454 279" version="1.1" xmlns="http://www.w3.org/2000/svg" xmlns:xlink="http://www.w3.org/1999/xlink">
    <!-- Generator: Sketch 63.1 (92452) - https://sketch.com -->
    <title>Illu - Des fonctionnalités. Tout en simplicité.</title>
    <desc>Created with Sketch.</desc>
    <defs>
        <linearGradient x1="43.0615105%" y1="68.8169944%" x2="65.6167814%" y2="24.3287188%" id="linearGradient-1">
            <stop stop-color="#8985E6" offset="0%"></stop>
            <stop stop-color="#00A99D" offset="100%"></stop>
        </linearGradient>
        <linearGradient x1="0%" y1="50%" x2="100.00474%" y2="50%" id="linearGradient-2">
            <stop stop-color="#FFFFFF" offset="0%"></stop>
            <stop stop-color="#EEF4F9" offset="100%"></stop>
        </linearGradient>
        <linearGradient x1="0%" y1="49.9903232%" x2="99.9892907%" y2="49.9903232%" id="linearGradient-3">
            <stop stop-color="#FFFFFF" offset="0%"></stop>
            <stop stop-color="#EEF4F9" offset="100%"></stop>
        </linearGradient>
    </defs>
    <g id="Interfaces" stroke="none" stroke-width="1" fill="none" fill-rule="evenodd">
        <g id="HOME-PAGE" transform="translate(-793.000000, -2433.000000)">
            <g id="Illu---Des-fonctionnalités.-Tout-en-simplicité." transform="translate(738.000000, 2409.000000)">
                <g id="Group" opacity="0.23" transform="translate(55.000000, 24.000000)" fill="url(#linearGradient-1)" fill-rule="nonzero">
                    <path d="M14.5904335,95.3467862 C23.1478924,85.303139 36.5846637,75.0830493 47.0354858,67.034559 C56.6244544,59.6511211 57.8934828,45.8886099 63.5735725,35.2138416 C71.3641854,20.6166218 87.956562,12.0998804 104.460717,10.9597907 C120.964873,9.81970105 137.333303,15.1740508 152.011958,22.7950075 C160.284395,27.0974888 168.41432,32.2143199 177.616472,33.7412257 C212.158475,39.4552466 240.307833,-6.50122571 274.510523,1.01115097 C292.073333,4.87252616 303.20278,21.4784753 314.678326,35.2884903 C317.589626,38.8037668 320.833453,42.3529746 325.156293,43.8255904 C328.753004,45.0539013 332.66867,44.6942302 336.44861,44.2666966 C362.962481,41.2875336 392.292646,36.3878625 414.293662,51.4804783 C430.499223,62.5963528 438.893812,84.0544694 434.543827,103.184903 C431.585022,116.241644 423.332945,128.232945 423.68583,141.615426 C424.099791,158.038146 437.068311,170.965949 444.818206,185.447803 C454.317301,203.437975 455.995968,224.544017 449.46,243.809537 C446.928729,251.138685 443.114858,258.196383 437.346547,263.381076 C424.310164,275.107713 404.38574,274.870194 387.392975,270.567713 C370.400209,266.265232 354.045351,258.589985 336.536831,257.673842 C299.110673,255.637967 263.577877,284.533812 226.904993,276.824634 C212.049895,273.70296 198.972795,264.799402 184.246637,261.141614 C147.030852,251.898744 91.2750374,282.694738 40.3781764,248.084873 C32.0650224,242.431928 21.1188042,225.235575 20.6980568,215.191928 C20.2637369,204.266069 27.8236173,194.086697 26.4663677,183.377997 C24.7223019,169.819073 -22.8289387,139.267384 14.5904335,95.3467862 Z" id="Path"></path>
                </g>
                <path d="M445.501076,129.56009 C445.501076,129.56009 451.703707,131.643468 449.620329,137.846099 C447.536951,144.048729 439.223797,178.387145 423.289686,182.635336 C409.785052,186.252407 386.168909,179.744395 386.168909,179.744395 L389.562033,175.536921 C389.562033,175.536921 411.712347,176.303767 417.066697,176.269836 C422.896084,176.269836 432.63435,158.62559 434.500568,150.25136 C436.366786,141.87713 438.423019,129.736532 445.501076,129.56009 Z" id="Path" fill="#065B5B" fill-rule="nonzero"></path>
                <polygon id="Path" fill="#B0BAD1" fill-rule="nonzero" points="388.069058 185.275187 415.044395 185.275187 426.105979 190.805979 410.327952 190.595605 385.992466 190.113782"></polygon>
                <path d="M451.595127,226.406637 L451.595127,282.318535 C451.595127,282.880726 452.050873,283.336472 452.613064,283.336472 C453.175255,283.336472 453.631001,282.880726 453.631001,282.318535 L453.631001,226.406637 C453.631001,225.844446 453.175255,225.3887 452.613064,225.3887 C452.050873,225.3887 451.595127,225.844446 451.595127,226.406637 Z" id="Path" fill="#000000" fill-rule="nonzero"></path>
                <path d="M435.029895,252.065441 C435.796741,254.365979 444.985321,268.915695 444.985321,268.915695 L441.924723,271.976293 L430.435605,256.659731 L435.029895,252.065441 Z" id="Path" fill="#000000" fill-rule="nonzero"></path>
                <polygon id="Path" fill="#000000" fill-rule="nonzero" points="386.36571 261.254021 378.324006 280.404813 374.489776 279.637967 380.237728 258.960269"></polygon>
                <path d="M444.95139,198.454081 C444.95139,198.454081 400.535396,196.920389 395.93432,203.048371 C391.333244,209.176353 377.306069,262.088729 377.306069,262.088729 L386.74574,263.554559 C386.74574,263.554559 405.129686,231.387743 404.389985,216.838027 C404.389985,216.838027 434.249477,216.071181 440.3571,214.537489 L444.95139,198.454081 Z" id="Path" fill="#19275E" fill-rule="nonzero"></path>
                <path d="M402.795217,79.0975486 C402.795217,79.0975486 396.769028,89.6501644 405.808311,98.6894469 L413.341046,100.195994 L413.341046,80.6040957 L402.795217,79.0975486 Z" id="Path" fill="#4759A5" fill-rule="nonzero"></path>
                <path d="M403.54849,82.8639163 C403.54849,82.8639163 400.535396,90.403438 403.54849,96.4364126 C406.561584,102.469387 405.055037,105.475695 403.54849,108.488789 C403.54849,108.488789 408.068132,109.995336 408.068132,111.501883 C408.068132,113.00843 409.574679,125.07438 424.640149,114.514978 C424.640149,114.514978 429.159791,116.021525 430.666338,120.541166 L436.692526,119.034619 C436.692526,119.034619 435.185979,116.021525 435.185979,109.995336 C435.185979,109.995336 441.212167,87.39713 426.146697,84.3772496 C411.081226,81.3573692 403.54849,82.8639163 403.54849,82.8639163 Z" id="Path" fill="#000000" fill-rule="nonzero"></path>
                <polygon id="Path" fill="#C6CEE3" fill-rule="nonzero" points="354.578924 155.938236 401.28867 155.938236 410.830135 190.385232 363.618206 190.595605"></polygon>
                <path d="M479.914141,158.103049 C479.914141,158.103049 491.27432,213.153094 469.429387,225.3887 C447.584454,237.624305 421.389537,224.581136 416.618804,222.199163 C410.511181,219.131779 406.140837,209.943199 422.726428,209.943199 C439.312018,209.943199 467.563169,220.475456 471.15988,208.78275 C474.654798,197.422571 473.779372,187.813244 470.284454,176.453064 C466.789537,165.092885 478.163288,149.369148 479.914141,158.103049 Z" id="Path" fill="#000000" fill-rule="nonzero"></path>
                <path d="M473.609716,192.102152 C473.609716,192.102152 478.36009,217.713453 457.030912,217.713453 C451.375319,217.657061 445.77084,216.63577 440.458894,214.693572 L407.314858,211.680478 C407.314858,211.680478 430.388102,235.975247 438.056562,253.592347 L431.372108,262.875934 C431.372108,262.875934 413.313901,240.311659 405.808311,232.778924 C400.481106,227.451719 381.696771,207.167623 383.210105,196.621794 C384.723438,186.075964 426.89997,192.102152 441.965441,192.102152 L473.609716,192.102152 Z" id="Path" fill="#212F79" fill-rule="nonzero"></path>
                <path d="M436.482152,114.03994 C443.926229,117.77265 450.27458,123.37276 454.906816,130.293004 C462.56849,141.782123 468.906846,163.423468 470.223378,169.354649 C471.75707,176.242691 474.804096,195.407055 474.044036,198.460867 C474.044036,198.460867 469.558326,196.262123 455.673662,194.626637 C442.657638,193.092945 442.657638,191.559253 442.657638,191.559253 C442.657638,191.559253 448.018774,185.451629 446.485082,173.182093 C444.95139,160.912556 441.476831,159.38565 441.476831,159.38565 C437.649387,158.618804 426.547085,157.349776 430.618834,142.42003 C434.235904,129.166487 431.976084,120.025411 431.976084,120.025411 L436.482152,114.03994 Z" id="Path" fill="#00A99D" fill-rule="nonzero"></path>
                <path d="M402.795217,79.0975486 C402.795217,79.0975486 401.28867,88.1436173 411.834499,92.6700448 C422.380329,97.1964723 426.89997,95.683139 426.89997,95.683139 C426.89997,95.683139 431.297459,94.2444544 431.419611,98.6962332 C431.562123,103.745202 428.58296,105.102451 428.58296,105.102451 C429.448368,111.875499 428.596587,118.757426 426.105979,125.115097 C424.633363,128.80003 447.821973,117.073393 446.85154,105.061734 C444.781734,78.7718087 428.406517,59.5124365 402.795217,79.0975486 Z" id="Path" fill="#5E6DBE" fill-rule="nonzero"></path>
                <path d="M405.6658,181.70562 C405.6658,181.70562 394.984245,176.955247 395.33713,172.883482 C395.33713,172.883482 400.515037,172.835994 407.464155,177.973184 L405.6658,181.70562 Z" id="Path" fill="#000000" fill-rule="nonzero"></path>
                <path d="M450.753632,133.604694 C450.753632,133.604694 457.200568,134.731211 456.074051,141.178146 C454.947534,147.625082 450.102152,181.753124 437.072556,191.857848 C424.04296,201.962571 404.009955,181.617399 404.009955,181.617399 L406.765172,176.941674 C406.765172,176.941674 420.724484,184.908729 426.513154,185.64843 C432.301824,186.388132 439.698834,165.045381 441.490404,156.671151 C443.512706,147.170404 443.804514,134.853363 450.753632,133.604694 Z" id="Path" fill="#00A99D" fill-rule="nonzero"></path>
                <path d="M433.991599,141.212078 C435.070613,142.392885 436.611091,143.105441 438.192287,142.569327 C439.420598,142.141794 438.870912,140.173782 437.649387,140.608102 C436.726457,140.933842 436.054619,140.479163 435.430284,139.800538 C434.541286,138.830105 433.109387,140.275575 433.991599,141.239223 L433.991599,141.212078 Z" id="Path" fill="#FFFFFF" fill-rule="nonzero"></path>
                <path d="M433.482631,141.788909 C433.414768,143.729776 433.204395,150.611031 436.726457,150.068132 C439.495247,149.647384 439.128789,144.435546 439.088072,142.542182 C439.054141,141.232436 437.018266,141.22565 437.052197,142.542182 C437.084994,143.533251 437.066874,144.525349 436.997907,145.514559 C436.950404,146.003169 436.923259,147.652227 436.441435,147.916891 C436.339641,148.039043 436.353214,148.066188 436.441435,147.998326 C436.217818,147.732382 436.047338,147.425979 435.939253,147.095755 C435.778296,146.643128 435.666805,146.174409 435.606726,145.697788 C435.440668,144.401767 435.399762,143.092769 435.484574,141.788909 C435.525291,140.479163 433.489417,140.479163 433.4487,141.788909 L433.482631,141.788909 Z" id="Path" fill="#FFFFFF" fill-rule="nonzero"></path>
                <path d="M410.443318,113.137369 L411.556263,115.573632 C411.556263,115.573632 416.795247,113.266308 415.811241,106.710792 C415.811241,106.710792 413.87716,111.929417 410.443318,113.137369 Z" id="Path" fill="#FFFFFF" fill-rule="nonzero"></path>
                <path d="M444.781734,267.673812 C444.781734,267.673812 447.584454,267.96562 448.941704,272.037369 C448.941704,272.037369 441.354679,278.653961 439.440957,280.180867 C437.313355,281.80697 434.634654,282.537525 431.976084,282.216741 C431.976084,282.216741 431.22281,279.196861 434.690583,277.466368 C436.047833,276.787743 437.405082,276.787743 440.072078,270.062571 C440.072078,270.062571 443.947025,270.829417 444.781734,267.673812 Z" id="Path" fill="#00A99D" fill-rule="nonzero"></path>
                <path d="M379.518386,277.954978 C380.721198,279.244466 381.390497,280.941963 381.39139,282.705351 L362.138804,282.854649 C362.138804,282.854649 361.541614,278.986487 367.147055,279.386876 C370.017638,279.590463 370.669118,278.335007 374.53728,277.045608 C374.53728,277.038834 377.048191,279.875486 379.518386,277.954978 Z" id="Path" fill="#00A99D" fill-rule="nonzero"></path>
                <line x1="346.360777" y1="283.458625" x2="485.926756" y2="283.058236" id="Path" stroke="#000A24" stroke-width="3" stroke-linecap="round"></line>
                <g id="Group" opacity="0.44" transform="translate(375.310912, 169.904335)" fill="#FFFFFF" fill-rule="nonzero">
                    <path d="M4.94717489,0.529327354 C1.76442451,2.04944694 1.00436472,6.8948281 4.07174888,8.95784753 C6.98983558,10.912287 11.4212556,9.29037369 11.6452018,5.56472347 C11.869148,1.83907324 7.47844544,-0.542899851 5.14397608,2.85022422 C4.41784753,3.90887892 4.02424514,6.1890583 5.57150972,6.79303438 C7.11877429,7.39701046 8.51674141,5.81581465 8.76104634,4.49928251 C9.14107623,2.46340807 7.30878924,1.02472347 5.42899851,1.03829596 C2.95201794,1.03829596 1.49976084,3.17596413 0.678624813,5.2593423 C0.532124999,5.7920348 0.83133486,6.34557305 1.35724963,6.51479821 L4.21426009,7.34272048 C5.47650224,7.70917788 6.01261584,5.74116592 4.75715994,5.37470852 L1.90014948,4.54678625 L2.61270553,5.80224215 C3.04702541,4.68929746 3.75958146,3.34562033 5.04896861,3.0877429 C5.6122272,2.97916293 6.52158445,3.0877429 6.7251719,3.76636771 C6.77576797,3.97888699 6.73885556,4.20282353 6.62272851,4.38786113 C6.50660147,4.57289874 6.32099874,4.70351928 6.10762332,4.75037369 C5.99804575,4.77405137 5.88467473,4.77405137 5.77509716,4.75037369 L6.65052317,5.25255605 C5.74116592,3.69850523 8.5438864,2.30053812 9.36502242,4.22104634 C9.91610309,5.45434953 9.37118867,6.90140005 8.14349776,7.46487294 C7.9815497,7.53303106 7.81336656,7.5853042 7.6413154,7.62095665 C4.09889387,8.39458894 2.8909417,3.67814649 5.9786846,2.19195815 C7.15949178,1.62869955 6.12798206,-0.128938714 4.94717489,0.427533632 L4.94717489,0.529327354 Z" id="Path"></path>
                </g>
                <g id="Group" opacity="0.3" transform="translate(285.053812, 34.179372)" fill="#5E6DBE" fill-rule="nonzero">
                    <path d="M30.6806278,15.9748281 C34.0737519,15.0111809 34.9559641,10.7086996 36.5303737,7.51916293 C40.5139013,-0.563258595 53.2584753,-2.28696562 59.2507324,4.43820628 C61.7073543,7.19342302 63.1596114,11.0140807 66.3966517,12.7852915 C70.7602093,15.1672646 76.1552765,12.7852915 81.0956652,13.2739013 C88.8998505,14.0950374 94.328849,23.7518685 90.935725,30.8027803 C89.1509417,34.569148 85.5406577,37.276861 83.9458894,41.1314499 C81.9100149,46.0175486 83.5590732,51.5483408 84.6788042,56.7398206 C85.7985351,61.9313004 86.0835575,68.0660688 82.2493274,71.710284 C76.5828102,77.098565 67.3942302,72.8639462 59.5832586,73.2304036 C52.9395217,73.542571 46.9947683,77.4175187 40.4596114,78.6594021 C32.2482511,80.2202392 23.8740209,77.5193124 16.0291181,74.6758744 C11.8623617,73.1761136 6.85411061,70.1833782 7.72275037,65.8537519 C8.40137519,62.5556353 12.2491779,60.797997 13.3214051,57.6152466 C16.9656203,46.8251121 -4.49249626,41.2943199 1.69656203,27.0092676 C3.67814649,22.3946188 9.50074738,15.9001794 14.2104036,14.1153961 C20.4741106,11.7944993 25.1566218,17.5424514 30.6806278,15.9748281 Z" id="Path"></path>
                </g>
                <path d="M315.897309,47.8400897 C307.848819,46.8764425 302.419821,53.9002093 301.693692,61.276861 C300.913274,69.1421226 304.571061,76.2608969 312.035934,79.2604185 C319.154709,82.1242152 330.630254,81.0452018 335.455277,74.4557549 C339.3913,69.0742601 340.20565,59.254559 336.459641,53.6084006 C330.955994,45.2477429 319.955486,45.6209865 311.248729,46.86287 C309.952556,47.0460987 310.502242,49.0141106 311.784843,48.8308819 C317.587085,47.9961734 330.460598,46.8900149 335.204185,55.4542601 C337.24006,59.0781166 336.948251,64.0252915 336.072825,67.9477429 C334.973453,72.8949178 331.967145,75.9962332 327.155695,77.495994 C319.412586,79.9051121 309.212855,78.64287 305.161465,70.7097459 C301.110075,62.7766218 305.059671,48.6069357 315.897309,49.9031091 C317.193483,50.0591928 317.17991,48.0233184 315.897309,47.8672347 L315.897309,47.8400897 Z" id="Path" fill="#000A24" fill-rule="nonzero"></path>
                <path d="M323.212885,53.4998206 C325.506637,54.056293 330.603109,59.6074439 329.924484,63.6791928 C329.693752,64.9617937 331.654978,65.5114798 331.892496,64.2220927 C332.922013,58.5210995 329.364734,52.9954601 323.748999,51.5725262 C322.473184,51.2603587 321.930284,53.2283707 323.206099,53.5337519 L323.212885,53.4998206 Z" id="Path" fill="#000A24" fill-rule="nonzero"></path>
                <path d="M329.938057,78.7718087 C335.538974,84.988012 340.891061,91.4100648 345.99432,98.0379671 C346.781525,99.0626906 348.552735,98.0379671 347.751958,97.0132436 C342.54012,90.2269955 337.081714,83.6669557 331.376741,77.3331241 C330.501315,76.3559043 329.062631,77.7945889 329.938057,78.7718087 L329.938057,78.7718087 Z" id="Path" fill="#000A24" fill-rule="nonzero"></path>
                <path d="M349.428161,62.3423019 L350.69719,73.8178475 C350.714407,74.2685559 351.022456,74.6558125 351.457743,74.773962 C351.893031,74.8921115 352.354603,74.7137519 352.597339,74.3336024 C359.108185,63.9652276 367.137421,54.6320995 376.41707,46.64571 C377.414649,45.7906428 375.969178,44.3587444 374.978386,45.2070254 C365.562099,53.3018796 357.423889,62.7739597 350.839701,73.3020927 L352.733064,73.8178475 L351.464036,62.3423019 C351.321525,61.0529148 349.28565,61.0393423 349.428161,62.3423019 Z" id="Path" fill="#000A24" fill-rule="nonzero"></path>
                <path d="M309.328221,92.6428999 L301.279731,104.586697 C300.546816,105.672496 302.311241,106.69722 303.037369,105.61142 L311.085859,93.6676233 C311.818774,92.5818236 310.061136,91.5638864 309.328221,92.6428999 Z" id="Path" fill="#000A24" fill-rule="nonzero"></path>
                <path d="M298.171629,92.7446936 L312.232735,105.726786 C313.196383,106.615785 314.635067,105.1771 313.67142,104.288102 L299.610314,91.306009 C298.646667,90.4170105 297.207982,91.8556951 298.171629,92.7446936 L298.171629,92.7446936 Z" id="Path" fill="#000A24" fill-rule="nonzero"></path>
                <path d="M183.524753,287.652526 C183.952287,252.859432 183.965859,183.354679 183.965859,183.354679 C197.721584,183.178236 211.599462,183.354679 225.361973,183.205381 L297.296203,182.309596 L325.350553,181.97707 L326.707803,285.888102 C278.783318,286.410643 183.524753,287.652526 183.524753,287.652526 Z" id="Path" fill="url(#linearGradient-2)" fill-rule="nonzero"></path>
                <path d="M191.03713,214.123528 C194.830643,213.017369 198.502003,213.987803 202.302302,214.374619 C204.229596,214.57142 206.136532,214.639283 207.466637,213.017369 C208.294559,212.019791 206.862661,210.57432 206.021166,211.578685 C204.324604,213.614559 199.913543,211.938356 197.613004,211.680478 C195.233411,211.347995 192.810983,211.505026 190.49423,212.141943 C189.238774,212.508401 189.774888,214.476413 191.03713,214.103169 L191.03713,214.123528 Z" id="Path" fill="#000A24" fill-rule="nonzero"></path>
                <path d="M191.96006,222.334888 C193.712591,221.927972 195.532662,221.907132 197.294051,222.273812 C198.603797,222.599552 199.798176,223.373184 201.107922,223.631061 C203.008072,224.038236 204.107444,222.748849 205.708999,222.002362 C206.896592,221.452676 205.865082,219.701824 204.684275,220.244723 C203.238804,220.923348 202.811271,221.751271 200.924694,221.425531 C199.7371,221.221943 198.590224,220.434738 197.389058,220.163288 C195.353184,219.701824 193.412317,219.993632 191.41716,220.353303 C190.127773,220.584036 190.670673,222.545262 191.96006,222.314529 L191.96006,222.334888 Z" id="Path" fill="#000A24" fill-rule="nonzero"></path>
                <path d="M192.346876,233.335396 C194.457399,230.512317 200.632885,234.183677 203.394888,233.939372 C205.725574,233.685113 207.801403,232.350651 209.000329,230.335874 C209.719671,229.236502 207.962033,228.211779 207.242691,229.304365 C203.123438,235.595217 194.810284,226.650942 190.589238,232.310673 C189.808819,233.355755 191.573244,234.346547 192.346876,233.335396 Z" id="Path" fill="#000A24" fill-rule="nonzero"></path>
                <path d="M194.118087,243.541913 C194.484544,242.863288 197.47728,243.134738 198.142332,243.161883 C199.62852,243.22296 201.067205,243.589417 202.546607,243.704783 C204.248148,243.846587 205.935324,243.298866 207.229118,242.184664 C208.260628,241.383886 206.808371,239.951988 205.790433,240.745979 C203.428819,242.591839 199.112765,240.99707 196.22861,241.132795 C194.830643,241.200658 193.113722,241.132795 192.360448,242.490045 C191.729327,243.643707 193.486966,244.66843 194.118087,243.521555 L194.118087,243.541913 Z" id="Path" fill="#000A24" fill-rule="nonzero"></path>
                <polygon id="Path" fill="#E3EBF2" fill-rule="nonzero" points="325.174111 196.391061 326.938535 285.664155 216.003737 286.99426 215.487982 197.646517"></polygon>
                <path d="M184.542691,287.652526 C184.92272,255.906457 184.943079,224.146816 184.97701,192.393961 C184.97701,189.380867 184.97701,186.367773 184.97701,183.354679 L183.959073,184.372616 C231.089567,183.82293 278.226846,183.578625 325.357339,183.015366 L324.339402,181.997429 L325.520209,272.844933 L325.689865,285.90846 L326.707803,284.890523 C283.099372,285.365561 239.486418,285.901674 195.868939,286.498864 L183.517967,286.654948 C182.208221,286.654948 182.201435,288.690822 183.517967,288.690822 C218.892417,288.238406 254.269128,287.785989 289.648102,287.333572 L326.707803,286.906039 C327.266938,286.898729 327.71843,286.447237 327.72574,285.888102 L326.551719,195.013453 L326.382063,181.949925 C326.374753,181.39079 325.923261,180.939298 325.364126,180.931988 C278.233632,181.515605 231.096353,181.75991 183.965859,182.289238 C183.406724,182.296548 182.955232,182.74804 182.947922,183.307175 C182.947922,209.094918 182.875536,234.862302 182.730762,260.609327 C182.676472,269.607892 182.601824,278.606457 182.506664,287.605022 C182.486457,288.962272 184.522332,288.962272 184.542691,287.652526 Z" id="Path" fill="#000A24" fill-rule="nonzero"></path>
                <path d="M325.391271,195.590284 C278.566158,195.888879 231.700329,196.906816 184.848072,196.947534 C184.285881,196.947534 183.830135,197.40328 183.830135,197.965471 C183.830135,198.527662 184.285881,198.983408 184.848072,198.983408 C231.673184,198.983408 278.5458,197.951898 325.391271,197.626158 C325.953462,197.626158 326.409208,197.170412 326.409208,196.608221 C326.409208,196.04603 325.953462,195.590284 325.391271,195.590284 Z" id="Path" fill="#000A24" fill-rule="nonzero"></path>
                <path d="M233.023647,202.478326 C232.016445,202.586982 231.11404,203.149754 230.573329,204.00643 C230.032618,204.863107 229.912832,205.919845 230.248072,206.875815 C230.549468,207.848101 231.225759,208.660275 232.127398,209.132744 C233.029037,209.605213 234.081743,209.699053 235.052735,209.393513 C236.340006,208.987521 237.290753,207.893779 237.513601,206.562526 C237.736449,205.231273 237.193731,203.887529 236.108856,203.084447 C235.02398,202.281364 233.580324,202.154687 232.372167,202.756562 C231.171001,203.265531 232.209297,205.023169 233.396891,204.5142 C234.197076,204.201247 235.099453,204.596227 235.412407,205.396413 C235.72536,206.196598 235.33038,207.098975 234.530194,207.411928 C232.49432,208.423079 231.13707,204.697429 233.023647,204.5142 C234.319821,204.392048 234.333393,202.356173 233.023647,202.478326 L233.023647,202.478326 Z" id="Path" fill="#000A24" fill-rule="nonzero"></path>
                <path d="M231.075994,215.216114 C230.872407,213.573842 230.994559,211.666906 232.358595,210.513244 C234.000867,209.155994 235.914589,209.943199 236.776442,211.71441 C237.081824,212.345531 237.075037,213.390613 237.455067,213.933513 C237.6858,214.279611 238.06583,214.225321 237.584006,214.232108 C237.102182,214.238894 236.681435,214.232108 236.226756,214.198176 C234.316995,214.181105 232.408184,214.289921 230.512735,214.523916 C229.230135,214.68 229.216562,216.715874 230.512735,216.559791 C232.298195,216.340255 234.095326,216.229209 235.89423,216.227265 C236.918954,216.227265 238.527294,216.668371 239.287354,215.745441 C239.932048,214.978595 239.477369,213.709567 239.287354,212.847713 C239.037858,211.563937 238.476171,210.361319 237.651868,209.346009 C236.198647,207.689401 233.776905,207.291462 231.869985,208.395934 C229.440508,209.753184 228.71438,212.616981 229.033333,215.182182 C229.196203,216.464783 231.232078,216.478356 231.069208,215.182182 L231.075994,215.216114 Z" id="Path" fill="#000A24" fill-rule="nonzero"></path>
                <g id="Group" opacity="0.2" transform="translate(228.727952, 218.086697)" fill="#2696AF" fill-rule="nonzero">
                    <path d="M5.85653214,1.0857997 C7.76346786,0.407174888 9.41931241,2.78914798 11.4076831,3.12167414 C13.6878625,3.52206278 15.5540807,1.24866966 17.7256801,0.407174888 C22.0485202,-1.2826009 26.4799402,2.85022422 31.0810164,2.93165919 C35.4377877,2.99952167 39.5773991,-0.603976084 43.8188042,0.515754858 C46.5875934,1.23509716 48.7863378,3.90887892 51.6297758,4.03781764 C53.740299,4.15318386 55.6540209,2.87058296 57.6627504,2.1715994 C60.906577,1.04508221 64.598296,-0.542899851 67.5095964,1.37082212 C69.1518685,2.43626308 70.7602093,3.9903139 72.6739312,3.77994021 C74.5876532,3.56956652 76.2910015,2.13766816 78.2725859,2.42269058 C80.2541704,2.707713 81.55713,5.98547085 79.3787444,9.02571001 C78.4107133,10.5095465 78.1497834,12.3459964 78.6661883,14.0407474 C79.012287,15.2079821 79.969148,16.191988 79.9487892,17.4338714 C79.850957,18.4462005 79.2762064,19.3511807 78.4015247,19.8701345 C75.9313303,21.5259791 72.721435,20.9423617 69.9255007,20.046577 C67.1295665,19.1507922 64.2318386,18.0107025 61.3816143,18.6418236 C59.7732735,19.0150673 58.3413752,19.9515695 56.8144694,20.5826906 C54.6712878,21.4757908 52.3278892,21.7780893 50.0282212,21.4581166 C45.6035874,20.840568 41.2400299,17.9564126 37.0189836,19.4222422 C35.6074439,19.910852 34.351988,20.867713 32.9133034,21.2205979 C29.4115994,22.0824514 26.1270553,19.2933034 22.5982063,18.5060987 C17.2777877,17.3185052 11.6587743,20.8066368 6.44693572,19.1847235 C4.57393124,18.6011061 2.68056801,16.9113303 2.92487294,14.8415247 C3.04023916,13.9118087 3.60349776,13.0295964 3.4542003,12.1270254 C3.29811659,10.9190732 2.13766816,10.2133034 1.30295964,9.37180867 C-0.807563528,7.2612855 1.30295964,6.61659193 2.47019432,5.42899851 C3.637429,4.24140508 4.07174888,1.70334828 5.85653214,1.0857997 Z" id="Path"></path>
                </g>
                <path d="M234.978087,227.411001 C234.993592,230.08944 235.220505,232.762476 235.656712,235.405202 C235.78036,235.843551 236.178494,236.147681 236.633931,236.151689 C258.227773,236.052157 279.814828,235.669865 301.395097,235.004813 C301.949824,234.98719 302.395411,234.541603 302.413034,233.986876 C302.762417,230.714189 302.830529,227.417569 302.616622,224.133244 C302.602354,223.57707 302.154859,223.129574 301.598685,223.115306 L264.525411,223.990732 L246.324694,224.425052 C243.528759,224.492915 240.21707,224.112885 237.502571,224.676143 C236.476425,224.759301 235.556113,225.339883 235.039163,226.230194 C234.78055,226.71316 234.950563,227.314179 235.423849,227.59011 C235.897134,227.86604 236.503914,227.717901 236.796801,227.254918 C237.617937,225.897668 243.583049,226.522003 244.940299,226.494858 L253.029507,226.298057 L269.207922,225.918027 L301.564753,225.151181 L300.546816,224.133244 C300.760723,227.417569 300.692611,230.714189 300.343229,233.986876 L301.361166,232.968939 C279.780897,233.633991 258.193842,234.016283 236.6,234.115815 L237.584006,234.862302 C237.19577,232.392959 237.00064,229.897106 237.000389,227.397429 C237.000389,226.835238 236.544643,226.379492 235.982451,226.379492 C235.42026,226.379492 234.964514,226.835238 234.964514,227.397429 L234.978087,227.411001 Z" id="Path" fill="#000A24" fill-rule="nonzero"></path>
                <path d="M234.909805,245.64565 L235.215605,256.958326 C235.22217,257.273561 235.372552,257.568481 235.62384,257.75893 C235.875127,257.94938 236.199719,258.01444 236.504993,257.935546 C242.314021,257.094051 248.380927,257.256921 254.251031,257.066906 C259.68003,256.856532 265.156532,256.700448 270.605889,256.544365 C281.796413,256.232197 293.000508,255.86574 304.143528,255.085321 C304.652496,255.044604 305.222541,254.644215 305.161465,254.067384 C304.852468,250.010681 304.338317,245.97222 303.620987,241.967504 C303.494666,241.528099 303.094171,241.224275 302.636981,241.221016 L235.989238,243.820149 C234.686278,243.874439 234.679492,245.910314 235.989238,245.856024 L302.636981,243.256891 L301.652975,242.510404 C302.340325,246.328305 302.83184,250.178882 303.12559,254.047025 L304.143528,253.029088 C292.54583,253.85701 280.920987,254.196323 269.296143,254.528849 C263.62284,254.691719 257.956323,254.854589 252.289806,255.085321 C246.860807,255.309268 241.343587,255.173543 235.962093,255.953961 L237.25148,256.937967 L236.946099,245.625291 C236.912167,244.322332 234.876293,244.315546 234.909805,245.625291 L234.909805,245.64565 Z" id="Path" fill="#000A24" fill-rule="nonzero"></path>
                <path d="M235.40562,265.156114 C234.83359,268.994992 234.776534,272.89305 235.235964,276.747025 C235.250232,277.303199 235.697727,277.750695 236.253901,277.764963 C258.960688,278.027364 281.633543,277.242422 304.272466,275.410135 C304.831602,275.402825 305.283094,274.951333 305.290404,274.392197 C305.222541,270.870135 305.039312,267.354858 304.97145,263.832795 C304.960619,263.275152 304.511156,262.825689 303.953513,262.814858 C281.362093,262.631629 258.736741,262.495904 236.213184,264.531779 C234.91701,264.653931 234.910224,266.689806 236.213184,266.567653 C258.736741,264.531779 281.362093,264.667504 303.953513,264.850732 L302.935575,263.832795 C303.003438,267.354858 303.186667,270.870135 303.254529,274.392197 L304.272466,273.37426 C281.651639,275.183926 258.978784,275.968869 236.253901,275.729088 L237.271839,276.747025 C236.814728,273.076362 236.846676,269.361273 237.366846,265.699013 C237.556861,264.416413 235.595635,263.866726 235.40562,265.156114 L235.40562,265.156114 Z" id="Path" fill="#000A24" fill-rule="nonzero"></path>
                <path d="M229.881614,226.739163 L229.847683,282.603558 C229.847683,283.165749 230.303429,283.621495 230.86562,283.621495 C231.427812,283.621495 231.883558,283.165749 231.883558,282.603558 L231.917489,226.739163 C231.917489,226.176972 231.461743,225.721226 230.899552,225.721226 C230.33736,225.721226 229.881614,226.176972 229.881614,226.739163 L229.881614,226.739163 Z" id="Path" fill="#000A24" fill-rule="nonzero"></path>
                <path d="M232.202511,251.936502 C232.097659,251.796417 231.981935,251.66481 231.856413,251.5429 C231.856413,251.447892 231.856413,251.48861 231.856413,251.671839 C231.782869,251.774843 231.65131,251.818696 231.530673,251.780419 C230.852048,251.984006 231.29994,251.780419 231.286368,251.963647 C231.30732,252.025595 231.323206,252.089142 231.333871,252.153662 C231.340459,252.296214 231.294588,252.43624 231.204933,252.547265 C231.127939,252.596425 231.038404,252.622343 230.947055,252.621913 C230.799737,252.61137 230.661721,252.545994 230.560239,252.438685 C230.492726,252.364452 230.479145,252.255802 230.526308,252.167235 C230.560239,252.092586 230.716323,251.895785 230.526308,252.051868 C230.336293,252.207952 230.478804,251.76006 230.526308,252.106158 C230.526308,251.963647 230.48559,251.970433 230.614529,251.800777 C230.23441,252.20763 230.23441,252.839395 230.614529,253.246248 C231.014955,253.635866 231.652788,253.635866 232.053214,253.246248 C232.582682,252.647144 232.675246,251.778677 232.283946,251.081435 C231.937652,250.436452 231.271731,250.027053 230.53988,250.009208 C228.884036,250.009208 228.001824,252.045082 228.775456,253.402332 C229.264354,254.266077 230.223851,254.752061 231.209452,254.635146 C232.195052,254.518232 233.014224,253.821257 233.287477,252.867103 C233.56073,251.912949 233.234686,250.888004 232.460389,250.267085 C232.089879,249.958395 231.59917,249.8348 231.126642,249.931153 C230.654114,250.027507 230.250975,250.333368 230.030912,250.762481 C229.535516,251.739701 230.085202,252.68299 230.777399,253.368401 C231.17848,253.742131 231.803493,253.731104 232.19114,253.343457 C232.578787,252.95581 232.589814,252.330796 232.216084,251.929716 L232.202511,251.936502 Z" id="Path" fill="#2696AF" fill-rule="nonzero"></path>
                <path d="M231.394948,230.417309 C231.394948,230.295157 231.394948,230.281584 231.578176,230.281584 C231.761405,230.281584 231.727474,230.234081 231.768191,230.430882 C231.813703,230.660862 231.737289,230.898044 231.566084,231.058203 C231.394879,231.218362 231.153135,231.278812 230.926697,231.218087 C230.580598,231.163797 230.193782,230.790553 230.641674,230.539462 C230.831689,230.417309 230.892765,230.539462 230.987773,230.743049 C230.987773,230.804126 231.048849,231.041644 231.062422,231.062003 C231.075994,231.082362 232.026069,231.48275 231.388161,231.815277 L230.153064,230.213722 L229.786607,230.600538 C228.884036,231.550613 230.315934,232.989297 231.225291,232.039223 L231.591749,231.652407 C231.940119,231.289038 231.970578,230.725603 231.663412,230.326796 C231.356246,229.927989 230.803707,229.813587 230.363438,230.057638 C229.933494,230.303326 229.640015,230.732667 229.567206,231.222476 C229.494396,231.712286 229.650303,232.208427 229.990194,232.56855 C230.390766,232.931253 230.931882,233.097044 231.466883,233.02099 C232.001884,232.944936 232.47536,232.634913 232.758984,232.174948 C233.994081,230.234081 231.652825,227.546726 229.610164,228.781824 C228.759297,229.269223 228.292717,230.227106 228.433488,231.197527 C228.574259,232.167947 229.293784,232.953772 230.248072,233.179312 C231.166939,233.449641 232.16026,233.22587 232.874455,232.587653 C233.58865,231.949437 233.92227,230.98743 233.756562,230.044066 C233.560267,229.026179 232.675807,228.286294 231.639253,228.272855 C230.60734,228.219702 229.682551,228.905469 229.433722,229.908341 C229.316002,230.265623 229.40492,230.658704 229.66495,230.930536 C229.92498,231.202369 230.313729,231.308636 230.675882,231.206881 C231.038034,231.105126 231.314548,230.811938 231.394948,230.444454 L231.394948,230.417309 Z" id="Path" fill="#2696AF" fill-rule="nonzero"></path>
                <path d="M231.394948,270.639402 C231.394948,270.510463 231.394948,270.496891 231.578176,270.496891 C231.761405,270.496891 231.727474,270.449387 231.768191,270.652975 C231.813703,270.882954 231.737289,271.120137 231.566084,271.280296 C231.394879,271.440455 231.153135,271.500905 230.926697,271.440179 C230.580598,271.379103 230.193782,271.005859 230.641674,270.727623 C230.831689,270.612257 230.892765,270.727623 230.987773,270.937997 C230.987773,270.999073 231.048849,271.236592 231.062422,271.250164 C231.075994,271.263737 232.026069,271.677698 231.388161,272.003438 L230.153064,270.401883 L229.786607,270.7887 C228.884036,271.738774 230.315934,273.184245 231.225291,272.23417 L231.591749,271.847354 C231.927865,271.480797 231.952256,270.925818 231.649594,270.531187 C231.346932,270.136556 230.804607,270.016218 230.363438,270.2458 C229.933242,270.49298 229.639847,270.92347 229.567088,271.414258 C229.49433,271.905046 229.650213,272.40214 229.990194,272.763498 C230.390766,273.1262 230.931882,273.291992 231.466883,273.215938 C232.001884,273.139884 232.47536,272.829861 232.758984,272.369895 C233.994081,270.429028 231.652825,267.734888 229.610164,268.976771 C228.759297,269.46417 228.292717,270.422054 228.433488,271.392474 C228.574259,272.362895 229.293784,273.14872 230.248072,273.37426 C231.165605,273.643728 232.15724,273.420653 232.870985,272.784219 C233.58473,272.147785 233.919537,271.188095 233.756562,270.2458 C233.562678,269.226495 232.676777,268.485404 231.639253,268.474589 C230.607707,268.415253 229.68052,269.099945 229.433722,270.103288 C229.294509,270.635127 229.591138,271.183891 230.112347,271.358744 C230.655005,271.502406 231.212921,271.185752 231.367803,270.646188 L231.394948,270.639402 Z" id="Path" fill="#2696AF" fill-rule="nonzero"></path>
                <path d="M296.10861,246.222481 L296.48864,251.020359 C296.590433,252.316532 298.626308,252.330105 298.524514,251.020359 L298.144484,246.222481 C298.042691,244.919522 296.006816,244.912735 296.10861,246.222481 Z" id="Path" fill="#2696AF" fill-rule="nonzero"></path>
                <path d="M295.273901,249.85991 C296.778541,249.632763 298.293882,249.483268 299.813901,249.412018 C301.116861,249.357728 301.123647,247.321854 299.813901,247.376143 C298.113667,247.458502 296.419144,247.632938 294.737788,247.898685 C293.448401,248.102272 293.9913,250.063498 295.273901,249.85991 L295.273901,249.85991 Z" id="Path" fill="#2696AF" fill-rule="nonzero"></path>
                <path d="M297.642302,267.341286 L297.642302,272.715994 C297.642302,273.278185 298.098048,273.733931 298.660239,273.733931 C299.22243,273.733931 299.678176,273.278185 299.678176,272.715994 L299.678176,267.341286 C299.678176,266.779094 299.22243,266.323348 298.660239,266.323348 C298.098048,266.323348 297.642302,266.779094 297.642302,267.341286 L297.642302,267.341286 Z" id="Path" fill="#2696AF" fill-rule="nonzero"></path>
                <path d="M296.997608,271.318027 L301.795486,270.367952 C303.078087,270.116861 302.535187,268.155635 301.252586,268.406726 L296.454709,269.356801 C295.172108,269.614679 295.715007,271.575904 296.997608,271.318027 Z" id="Path" fill="#2696AF" fill-rule="nonzero"></path>
                <path d="M240.006697,231.720269 C241.153572,227.953901 242.782272,231.197728 244.336323,232.161375 C245.130598,232.671739 246.119128,232.777384 247.003318,232.446398 C248.53701,231.97136 248.285919,231.279163 250.396442,231.672765 C250.837549,231.7542 251.217578,232.052795 251.665471,232.127444 C252.975217,232.35139 253.701345,231.883139 254.732855,231.116293 C256.090105,230.09157 255.615067,229.901555 257.447354,230.688759 C258.261704,231.041644 258.2142,231.448819 259.164275,231.48275 C260.216143,231.516682 260.433303,230.804126 261.261226,230.424096 C262.380957,229.860837 261.539462,230.071211 262.618475,230.240867 C263.052795,230.308729 263.45997,230.607324 263.921435,230.648042 C264.603433,230.643693 265.279144,230.517284 265.916592,230.274798 C267.99997,229.745471 269.425082,229.317937 271.637399,229.9287 C272.172014,230.059768 272.713976,229.742107 272.860827,229.21161 C273.007677,228.681113 272.706213,228.129977 272.180299,227.967474 C269.526876,227.234559 267.938894,227.967474 265.394051,228.313572 C263.806069,228.537519 262.679552,227.32278 261.247653,227.7571 C260.643677,227.947115 260.317937,228.822541 259.829327,228.978625 C258.947115,229.270433 257.983468,228.24571 257.216622,228.076054 C255.859372,227.777459 255.472556,228.218565 254.278176,228.8429 C252.160867,229.935486 250.457519,228.931121 248.374141,229.487593 C247.817668,229.636891 247.247623,230.288371 246.718296,230.363019 C244.682422,230.654828 244.628132,229.155067 243.501614,228.225351 C240.882123,226.074111 238.832676,228.693602 238.072616,231.177369 C237.692586,232.432825 239.653812,232.975725 240.033842,231.720269 L240.006697,231.720269 Z" id="Path" fill="#2696AF" fill-rule="nonzero"></path>
                <path d="M306.260837,228.78861 C309.51145,229.996562 311.336951,233.009656 311.554111,236.40278 C311.737339,239.185142 311.045142,243.5487 307.977758,244.682003 C306.756233,245.136682 307.299133,247.104694 308.520658,246.650015 C312.592407,245.150254 313.807145,240.386308 313.589985,236.40278 C313.359253,232.018864 310.929776,228.361076 306.803737,226.820598 C305.575426,226.365919 305.039312,228.327145 306.260837,228.78861 L306.260837,228.78861 Z" id="Path" fill="#2696AF" fill-rule="nonzero"></path>
                <path d="M306.640867,243.725142 C306.715516,244.566637 306.796951,245.408132 306.871599,246.256413 C306.871599,246.303916 306.871599,246.758595 306.973393,246.588939 C307.075187,246.419283 306.885172,246.548221 306.729088,246.588939 C306.391742,246.590622 306.056984,246.647944 305.738296,246.758595 L306.993752,248.014051 L308.351001,244.010164 L306.355845,243.738714 C306.259987,244.761806 306.085288,245.77597 305.833303,246.772167 C305.521136,248.041196 307.482362,248.584096 307.801315,247.315067 C308.089186,246.139782 308.286566,244.944164 308.391719,243.738714 C308.493513,242.537549 306.742661,242.442541 306.355845,243.467265 L304.998595,247.471151 C304.903253,247.823132 305.003478,248.199223 305.261335,248.45708 C305.519192,248.714937 305.895284,248.815162 306.247265,248.719821 C306.708729,248.543378 307.210912,248.658744 307.685949,248.502661 C308.202818,248.357934 308.619118,247.974434 308.80568,247.471151 C308.959461,246.930277 308.985021,246.360999 308.880329,245.80852 L308.690314,243.725142 C308.574948,242.428969 306.539073,242.415396 306.654439,243.725142 L306.640867,243.725142 Z" id="Path" fill="#2696AF" fill-rule="nonzero"></path>
                <path d="M307.366996,250.748909 C309.675528,252.831027 311.126911,255.697508 311.438744,258.790613 C311.683049,262.122661 309.708251,264.681076 307.740239,267.144484 C306.932676,268.162422 308.357788,269.614679 309.178924,268.589955 C311.370882,265.834738 313.61713,262.896293 313.542481,259.204574 C313.318825,255.411815 311.618429,251.857549 308.80568,249.303438 C307.82846,248.441584 306.38299,249.873483 307.366996,250.748909 Z" id="Path" fill="#2696AF" fill-rule="nonzero"></path>
                <path d="M307.366996,265.230762 C307.483062,267.033547 308.244299,268.734285 309.51145,270.021854 L309.959342,268.318505 L306.457638,268.99713 L307.706308,270.252586 C307.988351,268.701278 308.637552,267.239994 309.599671,265.990822 L307.740239,265.746517 C308.011263,266.472248 308.222343,267.218974 308.37136,267.979193 C308.37136,268.12849 308.42565,268.284574 308.439223,268.433871 C308.439223,268.793543 308.608879,268.657818 308.934619,268.026697 C308.48049,268.016235 308.026322,268.045756 307.577369,268.114918 L308.595306,269.132855 C308.595306,268.881764 308.541016,268.72568 308.778535,268.576383 C309.877907,267.897758 308.85997,266.106188 307.753812,266.811958 C306.936057,267.285437 306.469411,268.192217 306.559432,269.132855 C306.566742,269.69199 307.018234,270.143482 307.577369,270.150792 C308.64281,270.08293 310.190075,270.239013 310.468311,268.88855 C310.699043,267.755247 310.10864,266.255486 309.721824,265.210404 C309.602968,264.824988 309.270382,264.544199 308.870492,264.491658 C308.470602,264.439118 308.076772,264.624466 307.862392,264.966099 C306.801277,266.363629 306.083029,267.990728 305.765441,269.716472 C305.679119,270.068985 305.783125,270.440986 306.039754,270.697615 C306.296383,270.954244 306.668384,271.05825 307.020897,270.971928 L310.515815,270.293303 C310.86151,270.191937 311.129276,269.917562 311.222186,269.569498 C311.315095,269.221435 311.219685,268.850116 310.970493,268.589955 C310.070556,267.696145 309.521486,266.508901 309.423229,265.244335 C309.321435,263.948161 307.285561,263.934589 307.387354,265.244335 L307.366996,265.230762 Z" id="Path" fill="#2696AF" fill-rule="nonzero"></path>
                <path d="M190.92855,187.867534 C190.987364,189.935077 190.967005,192.000359 190.867474,194.063378 C190.806398,195.373124 192.842272,195.366338 192.903348,194.063378 C193.00288,192.000359 193.023239,189.935077 192.964425,187.867534 C192.930493,186.557788 190.894619,186.557788 190.92855,187.867534 Z" id="Path" fill="#000A24" fill-rule="nonzero"></path>
                <path d="M192.387593,188.668311 C192.582316,188.55189 192.825526,188.552996 193.019182,188.671183 C193.212838,188.78937 193.325026,189.005162 193.310523,189.23157 C193.344454,189.910194 192.686188,190.215575 192.116143,190.310583 C190.826756,190.520957 191.376442,192.482182 192.659043,192.271809 C193.50922,192.152805 194.272038,191.686725 194.765888,190.984532 C195.259737,190.28234 195.440436,189.406857 195.264963,188.566517 C195.065136,187.756778 194.496216,187.088114 193.728932,186.761184 C192.961648,186.434255 192.085299,186.487109 191.36287,186.903886 C190.875638,187.186856 190.71005,187.811228 190.993019,188.29846 C191.275989,188.785693 191.900361,188.95128 192.387593,188.668311 L192.387593,188.668311 Z" id="Path" fill="#000A24" fill-rule="nonzero"></path>
                <path d="M196.343976,190.466667 C195.332825,191.65426 195.346398,193.588341 197.022601,194.158386 C198.379851,194.613064 200.415725,193.683348 200.415725,192.122511 C200.432862,190.840194 199.442435,189.769221 198.162691,189.686248 C197.477777,189.733557 196.830358,190.016503 196.330404,190.487025 C195.956673,190.888106 195.967701,191.513119 196.355347,191.900766 C196.742994,192.288413 197.368008,192.299441 197.769088,191.92571 C197.938744,191.776413 197.592646,192.020717 197.728371,191.959641 C197.864096,191.898565 197.965889,191.803558 198.088042,191.742481 C197.836951,191.87142 198.088042,191.742481 198.183049,191.742481 C198.379851,191.674619 198.006607,191.742481 198.183049,191.742481 C198.359492,191.742481 198.094828,191.742481 198.108401,191.701764 C198.121973,191.661046 198.210194,191.756054 198.108401,191.701764 C198.176263,191.776413 198.196622,191.796771 198.162691,191.749268 C198.128759,191.701764 198.284843,191.966428 198.271271,191.939283 C198.309041,192.034459 198.340773,192.131922 198.366278,192.231091 L198.366278,192.047862 C198.229317,192.149079 198.075322,192.224927 197.911599,192.271809 C197.864096,192.271809 197.606218,192.312526 197.626577,192.319312 C197.646936,192.326099 197.626577,192.08858 197.741943,191.952855 C198.121173,191.548266 198.121173,190.91876 197.741943,190.51417 C197.360897,190.133303 196.749998,190.112544 196.343976,190.466667 Z" id="Path" fill="#000A24" fill-rule="nonzero"></path>
                <path d="M208.369208,191.844275 C208.43707,192.068221 208.00275,192.455037 207.778804,192.46861 C207.778804,192.46861 207.812735,192.583976 207.778804,192.400747 C207.773708,192.249517 207.808835,192.099644 207.880598,191.966428 C207.905353,191.899715 207.944779,191.839416 207.995964,191.789985 C207.995964,191.789985 208.036682,191.789985 208.029895,191.789985 C208.023109,191.789985 208.029895,191.789985 208.029895,191.789985 L208.158834,191.789985 C208.050254,191.789985 208.036682,191.789985 208.11133,191.789985 C208.196597,191.8048 208.276299,191.842307 208.342063,191.898565 C208.213124,191.789985 208.511719,192.102152 208.396353,191.952855 C208.280987,191.803558 208.464215,192.081794 208.477788,192.115725 C208.761877,192.577889 209.356943,192.738556 209.835037,192.482182 C210.30772,192.189702 210.468748,191.578392 210.201495,191.091001 C209.738063,190.107766 208.658858,189.572809 207.595748,189.799347 C206.532639,190.025885 205.765269,190.954328 205.74293,192.041076 C205.588753,192.718466 205.790633,193.427714 206.278423,193.922374 C206.766213,194.417034 207.472568,194.628814 208.152048,194.484126 C209.509297,194.219462 210.744395,192.74006 210.303288,191.335306 C209.963976,190.059492 208.00275,190.588819 208.369208,191.844275 Z" id="Path" fill="#000A24" fill-rule="nonzero"></path>
                <path d="M211.538386,186.286338 L211.260149,193.072586 C211.212646,194.382332 213.24852,194.382332 213.296024,193.072586 L213.57426,186.286338 C213.621764,184.976592 211.585889,184.976592 211.538386,186.286338 L211.538386,186.286338 Z" id="Path" fill="#000A24" fill-rule="nonzero"></path>
                <path d="M202.594111,189.645531 C201.236861,189.984843 199.879611,191.606756 200.693961,193.038655 C201.372586,194.266966 203.40846,194.497698 204.589268,193.893722 C205.161135,193.601184 205.584654,193.082879 205.757372,192.464187 C205.93009,191.845495 205.836277,191.182768 205.498625,190.636323 C204.801833,189.617573 203.474471,189.245683 202.349806,189.754111 C202.035834,189.938372 201.844014,190.276139 201.846603,190.640177 C201.849193,191.004215 202.045797,191.339219 202.362358,191.518996 C202.678919,191.698773 203.067344,191.69601 203.381315,191.511749 C202.980927,191.688191 203.578117,191.511749 203.700269,191.593184 C203.776331,191.702896 203.827303,191.828011 203.849567,191.959641 C203.849567,191.728909 203.802063,192.013931 203.727414,192.041076 C203.532306,192.122655 203.320834,192.157513 203.109865,192.14287 C202.925059,192.099333 202.736374,192.074326 202.546607,192.068221 C202.404096,191.973214 202.397309,192.000359 202.546607,192.149656 C202.567077,192.070737 202.599091,191.995274 202.641614,191.92571 C202.785651,191.775937 202.969185,191.670052 203.170942,191.620329 C204.406039,191.294589 203.869925,189.326577 202.594111,189.645531 Z" id="Path" fill="#000A24" fill-rule="nonzero"></path>
                <path d="M89.3112706,205.389626 C89.8745291,159.202422 89.8948879,66.9501644 89.8948879,66.9501644 C108.156682,66.7262182 126.574559,66.9908819 144.863498,66.7601495 L240.37994,65.5725561 C252.201584,65.4232586 265.787653,65.2739611 277.616084,65.1314499 L279.414439,203.061943 C215.766218,203.740568 89.3112706,205.389626 89.3112706,205.389626 Z" id="Path" fill="url(#linearGradient-3)" fill-rule="nonzero"></path>
                <polygon id="Path" fill="#E3EBF2" fill-rule="nonzero" points="277.337848 84.2415247 279.685889 202.749776 132.431091 204.507414 131.738894 85.9109417"></polygon>
                <g id="Group" opacity="0.2" transform="translate(140.506726, 112.221226)" fill="#2696AF" fill-rule="nonzero">
                    <path d="M8.8831988,3.26418535 C11.8623617,2.20553064 14.4479223,5.9786846 17.5356652,6.57587444 C21.0984454,7.22056801 24.0029596,3.57635277 27.40287,2.21231689 C34.1348281,-0.502182362 41.0568012,6.12798206 48.2298655,6.28406577 C55.0161136,6.39943199 61.4901943,0.61754858 68.1,2.41590433 C72.4160538,3.56956652 76.3113602,6.11440957 80.7495665,6.36550075 C84.0408969,6.54872945 87.026846,4.49249626 90.1620927,3.36597907 C95.2178475,1.56083707 100.979372,-0.929715994 105.519372,2.07659193 C108.077788,3.78672646 110.595486,6.28406577 113.574649,5.95153961 C116.553812,5.61901345 119.220807,3.31168909 122.315336,3.82744395 C125.552377,4.37713004 126.963916,11.2380269 123.564006,16.1241256 C122.053042,18.522523 121.652231,21.4568614 122.464634,24.1726158 C123.000747,26.0388341 124.500508,27.6132436 124.459791,29.6016143 C124.315621,31.2143143 123.420561,32.6650159 122.043886,33.5172795 C118.196084,36.1707025 113.221764,35.2342003 108.824275,33.7955157 C104.426786,32.3568311 99.9410762,30.4770404 95.4960837,31.5492676 C92.9851719,32.1464574 90.74571,33.6462182 88.3773094,34.6641555 C85.0492916,36.0873855 81.3947547,36.5709016 77.8111211,36.0621226 C70.9095067,35.0713303 64.1028999,30.4498954 57.5202392,32.8386547 C55.3147085,33.6258595 53.3602691,35.1595516 51.1072347,35.7295964 C45.6782362,37.086846 40.5071151,32.6350673 35.0238266,31.3796114 C26.7242451,29.4726756 17.9564126,35.0713303 9.81970105,32.4586248 C6.90161435,31.5221226 3.94959641,28.8076233 4.33641256,25.4959342 C4.50606876,23.9961734 5.34756353,22.5846338 5.15754858,21.0848729 C4.91324365,19.1507922 3.12167414,18.024275 1.805142,16.6738117 C-1.48618834,13.2806876 1.805142,12.2559641 3.6238565,10.3422422 C5.58508221,8.23171898 6.05333333,4.26176383 8.8831988,3.26418535 Z" id="Path"></path>
                </g>
                <path d="M99.1920478,107.470852 C103.942422,106.025381 108.570643,107.097608 113.348161,107.681226 C115.967653,108.000179 119.041824,108.441286 120.853752,106.113602 C121.647743,105.095665 120.215845,103.643408 119.415067,104.674918 C117.297758,107.389417 111.339432,105.312825 108.455277,104.95994 C105.187046,104.441457 101.845677,104.628888 98.6559342,105.509626 C97.4004783,105.889656 97.9365919,107.857668 99.1920478,107.470852 L99.1920478,107.470852 Z" id="Path" fill="#000A24" fill-rule="nonzero"></path>
                <path d="M100.413572,118.36278 C102.883767,117.921674 105.218236,117.684155 107.681644,118.274559 C109.412138,118.715665 111.00012,119.740389 112.737399,120.106846 C115.146517,120.615815 116.564843,118.926039 118.593931,117.98275 C119.781525,117.433064 118.750015,115.675426 117.569208,116.225112 C115.533333,117.161614 115.010792,118.301704 112.323438,117.81988 C110.735456,117.541644 109.222123,116.510135 107.627354,116.143677 C105.021435,115.546487 102.463019,115.94009 99.8774589,116.401555 C98.5880717,116.632287 99.1309716,118.593513 100.413572,118.36278 L100.413572,118.36278 Z" id="Path" fill="#000A24" fill-rule="nonzero"></path>
                <path d="M100.739312,133.116084 C102.035486,130.822332 107.491629,132.030284 109.303558,132.518894 C111.414081,133.095725 113.321016,133.950792 115.560478,133.767564 C118.597374,133.484234 121.313591,131.760093 122.862481,129.132556 C123.541106,128.026398 121.803827,127.001674 121.104843,128.107833 C119.509095,130.818363 116.37016,132.218895 113.287085,131.595964 C111.251211,131.209148 109.357848,130.238714 107.281256,129.967265 C104.749985,129.61438 100.461076,129.512586 99.0020329,132.09136 C98.7434204,132.574326 98.9134334,133.175345 99.3867185,133.451276 C99.8600036,133.727206 100.466784,133.579067 100.759671,133.116084 L100.739312,133.116084 Z" id="Path" fill="#000A24" fill-rule="nonzero"></path>
                <path d="M103.073782,146.661435 C103.650613,145.623139 107.674858,145.948879 108.699581,145.98281 C110.694738,146.071031 112.622033,146.559641 114.596831,146.715725 C116.75336,146.895586 118.892042,146.203875 120.534798,144.795217 C121.566308,143.987653 120.114051,142.555755 119.089327,143.349746 C115.818356,145.914948 110.145052,143.770493 106.195456,143.960508 C104.471749,144.041943 102.279791,143.960508 101.343288,145.629925 C100.712167,146.776801 102.469806,147.808311 103.100927,146.654649 L103.073782,146.661435 Z" id="Path" fill="#000A24" fill-rule="nonzero"></path>
                <path d="M90.3292078,205.389626 C90.8381764,163.233453 90.8585351,121.07728 90.9060389,78.9143199 C90.9060389,74.924006 90.9060389,70.9291679 90.9060389,66.9298057 L89.8881016,67.9477429 C114.705411,67.6559342 139.52272,67.8255904 164.34003,67.513423 L239.667384,66.5769208 C252.303378,66.4230992 264.939372,66.2738017 277.575366,66.1290284 L276.557429,65.1110912 L277.168191,111.719043 L278.131839,186.001315 L278.355785,203.041584 L279.373722,202.023647 C248.803936,202.36296 218.23415,202.727155 187.664365,203.116233 L105.550762,204.161315 L89.2637668,204.371689 C87.9540209,204.371689 87.9472347,206.407564 89.2637668,206.407564 L135.586697,205.810374 C167.169895,205.407723 198.750832,205.014121 230.329507,204.629567 C246.670792,204.430503 263.009816,204.240488 279.346577,204.059522 C279.905712,204.052212 280.357204,203.60072 280.364514,203.041584 L279.760538,156.433632 L278.790105,82.1513602 L278.566158,65.1110912 C278.558849,64.5519558 278.107357,64.1004639 277.548221,64.093154 C229.067265,64.6903438 180.565949,65.6743498 132.078206,65.816861 C117.996741,65.8575785 103.922063,65.7489985 89.8473842,65.9118685 C89.2882488,65.9191784 88.8367568,66.3706703 88.8294469,66.9298057 C88.8294469,101.150593 88.7344395,135.369118 88.5444245,169.585381 C88.476562,181.524654 88.3770304,193.459402 88.2458296,205.389626 C88.2526158,206.699372 90.2884903,206.699372 90.3292078,205.389626 Z" id="Path" fill="#000A24" fill-rule="nonzero"></path>
                <path d="M277.636442,83.5153961 C229.250493,83.813991 180.87133,84.716562 132.485381,85.0965919 C118.682152,85.2051719 104.883448,85.263986 91.0892676,85.2730344 C90.5270764,85.2730344 90.0713303,85.7287804 90.0713303,86.2909716 C90.0713303,86.8531628 90.5270764,87.3089088 91.0892676,87.3089088 C139.638087,87.3089088 188.18012,86.4742003 236.722152,85.9516592 C250.362511,85.7978376 264.007394,85.673423 277.656801,85.5784155 C278.218992,85.5784155 278.674738,85.1226695 278.674738,84.5604783 C278.674738,83.9982871 278.218992,83.5425411 277.656801,83.5425411 L277.636442,83.5153961 Z" id="Path" fill="#000A24" fill-rule="nonzero"></path>
                <path d="M155.022511,92.6496861 C153.786795,92.7932715 152.684517,93.4938873 152.029943,94.5517841 C151.375369,95.6096809 151.240327,96.9087739 151.663318,98.0786846 C152.457309,100.501375 155.158236,102.109716 157.62843,101.193572 C159.922182,100.338505 161.360867,97.596861 160.376861,95.2827504 C159.334538,92.9821748 156.628693,91.9568656 154.323528,92.9889985 C153.122362,93.5047534 154.153871,95.2556054 155.348251,94.7466368 C156.536613,94.3245821 157.854614,94.8390649 158.44278,95.9545889 C159.046756,97.1286099 158.300269,98.5944395 157.187324,99.1712706 C154.058864,100.779611 151.948341,94.997728 155.022511,94.7059193 C156.311898,94.5837668 156.325471,92.5411061 155.022511,92.6700448 L155.022511,92.6496861 Z" id="Path" fill="#000A24" fill-rule="nonzero"></path>
                <path d="M152.104425,109.22849 C151.819402,106.948311 152.036562,104.369537 153.90278,102.75441 C156.23725,100.718535 159.080688,101.899342 160.302212,104.450972 C160.772657,105.389841 161.080152,106.401822 161.21157,107.443707 C161.299791,108.278416 161.720538,107.952676 161.062272,108.264843 C160.465632,108.334261 159.862044,108.31597 159.270703,108.210553 C156.737016,108.191142 154.204797,108.338496 151.690463,108.651659 C150.401076,108.800957 150.387504,110.843617 151.690463,110.687534 C154.056505,110.392409 156.438435,110.24283 158.82281,110.239641 C160.037549,110.239641 162.161644,110.843617 163.09136,109.730673 C163.858206,108.821315 163.25423,107.165471 163.023498,106.174679 C162.708497,104.525492 161.990452,102.979828 160.933333,101.675396 C159.113176,99.5778672 156.058836,99.07071 153.658475,100.467444 C150.530015,102.218296 149.654589,105.896442 150.06855,109.22849 C150.23142,110.511091 152.267294,110.53145 152.104425,109.22849 L152.104425,109.22849 Z" id="Path" fill="#000A24" fill-rule="nonzero"></path>
                <path d="M99.4770703,72.928849 C99.5585052,75.6704933 99.5313602,78.4121375 99.3956353,81.1537818 C99.334559,82.4635277 101.370433,82.4567414 101.43151,81.1537818 C101.567235,78.4121375 101.59438,75.6704933 101.512945,72.928849 C101.472227,71.6191031 99.4363528,71.6123169 99.4770703,72.928849 Z" id="Path" fill="#000A24" fill-rule="nonzero"></path>
                <path d="M100.908969,73.6956951 C101.272118,73.4837338 101.722141,73.4874935 102.081698,73.7054925 C102.441255,73.9234916 102.652687,74.3207722 102.632676,74.7407773 C102.632676,75.799432 101.723318,76.3423318 100.807175,76.4916293 C99.5177877,76.702003 100.060688,78.6632287 101.350075,78.452855 C102.391874,78.3174524 103.330602,77.7553377 103.941837,76.9008953 C104.553072,76.0464529 104.781874,74.9764844 104.573543,73.9467862 C104.345097,72.9654107 103.665437,72.1501754 102.741172,71.7489026 C101.816907,71.3476299 100.75722,71.407722 99.8842451,71.9109118 C99.4212616,72.2037989 99.2731226,72.8105793 99.5490533,73.2838645 C99.8249841,73.7571496 100.426003,73.9271625 100.908969,73.6685501 L100.908969,73.6956951 Z" id="Path" fill="#000A24" fill-rule="nonzero"></path>
                <path d="M106.575486,76.6137818 C105.401465,77.9710314 105.353961,80.2919283 107.349118,80.9501943 C108.930314,81.4795217 111.420867,80.448012 111.420867,78.5478625 C111.420867,77.1227504 110.246846,75.609417 108.760658,75.6501345 C107.938197,75.7067647 107.160966,76.0474032 106.561913,76.6137818 C105.577907,77.4824215 107.023378,78.9211061 108.000598,78.0524664 C108.190613,77.8895964 107.878445,78.1271151 108.000598,78.0524664 C108.155821,77.9506943 108.316687,77.8578 108.482422,77.7742302 C108.292407,77.8624514 108.638505,77.7199402 108.679223,77.713154 C108.896383,77.6520777 108.591001,77.713154 108.794589,77.713154 C108.88281,77.713154 108.896383,77.713154 108.876024,77.713154 C109.018535,77.8013752 108.876024,77.713154 109.04568,77.8488789 C109.13042,77.9583986 109.198984,78.0795268 109.249268,78.2085501 C109.296771,78.344275 109.344275,78.4732138 109.378206,78.6089387 C109.378206,78.5410762 109.378206,78.5275037 109.378206,78.6089387 C109.183458,78.8758185 108.890396,79.0540983 108.563857,79.1043348 C107.783438,79.2672048 107.491629,78.7310912 108.007384,78.1203288 C108.848879,77.0616741 107.410194,75.6162033 106.575486,76.6137818 Z" id="Path" fill="#000A24" fill-rule="nonzero"></path>
                <path d="M122.638535,78.1203288 C122.794619,78.6225112 122.061704,79.382571 121.532377,79.3689985 C121.003049,79.355426 121.220209,78.5003587 121.376293,78.1949776 C121.769895,77.4281315 122.489238,77.7945889 122.733543,78.3646338 C123.024111,78.8442598 123.64302,79.0064983 124.13151,78.7310912 C124.602673,78.4338656 124.760395,77.820835 124.491181,77.3331241 C123.975316,76.3154895 122.917022,75.6884507 121.776682,75.7247833 C120.317638,75.7858595 119.347205,77.0820329 119.177549,78.4392825 C118.960389,80.1290583 120.175127,81.6423916 121.95991,81.3166517 C123.602182,81.0180568 125.108729,79.2332735 124.586188,77.5434978 C124.219731,76.3355456 122.251719,76.8648729 122.638535,78.1203288 Z" id="Path" fill="#000A24" fill-rule="nonzero"></path>
                <path d="M126.82565,70.8251121 L126.465979,79.8101046 C126.411689,81.1198505 128.447564,81.1198505 128.501854,79.8101046 L128.861525,70.8251121 C128.915815,69.5153662 126.87994,69.5153662 126.82565,70.8251121 Z" id="Path" fill="#000A24" fill-rule="nonzero"></path>
                <path d="M114.718984,75.609417 C113.117429,76.0098057 111.461584,77.9167414 112.3913,79.6133034 C113.192078,81.0859193 115.730135,81.3370105 117.141674,80.6312407 C117.825728,80.2889037 118.333593,79.6738395 118.540321,78.9373697 C118.74705,78.2009 118.633451,77.4113898 118.227474,76.7630792 C117.401883,75.56376 115.838078,75.1242966 114.50861,75.717997 C113.307444,76.2405381 114.34574,77.9981764 115.533333,77.4756353 C115.153303,77.6385052 115.533333,77.4756353 115.621555,77.4756353 C115.859073,77.4756353 116.232317,77.4756353 116.422332,77.6792227 C116.572987,77.8209693 116.650767,78.0236897 116.633588,78.2298307 C116.61641,78.4359716 116.50615,78.623022 116.334111,78.7378774 C115.75843,79.0022497 115.100673,79.0242564 114.50861,78.7989537 C113.775695,78.3782063 114.800419,77.686009 115.289028,77.5638565 C116.530912,77.2584753 115.988012,75.2904634 114.718984,75.609417 Z" id="Path" fill="#000A24" fill-rule="nonzero"></path>
                <path d="M258.288849,117.684155 L164.095725,119.367145 L150.523229,119.61145 C150.207993,119.618015 149.913074,119.768397 149.722624,120.019684 C149.532175,120.270972 149.467115,120.595563 149.546009,120.900837 C150.686099,128.508221 150.740389,136.35991 150.787892,144.048729 C150.795202,144.607865 151.246694,145.059357 151.80583,145.066667 C187.487922,145.093812 223.167753,144.763548 258.845321,144.075874 C259.404457,144.068565 259.855949,143.617073 259.863259,143.057937 C259.612167,134.914439 259.361076,126.818445 259.279641,118.702093 C259.279641,118.139901 258.823895,117.684155 258.261704,117.684155 C257.699513,117.684155 257.243767,118.139901 257.243767,118.702093 C257.325202,126.84559 257.576293,134.941584 257.827384,143.057937 L258.845321,142.04 C223.172277,142.723149 187.492446,143.053413 151.80583,143.030792 L152.823767,144.048729 C152.776263,136.169895 152.674469,128.155336 151.507235,120.357937 L150.523229,121.647324 L244.716353,119.957549 L258.288849,119.72003 C259.598595,119.686099 259.598595,117.650224 258.288849,117.684155 Z" id="Path" fill="#000A24" fill-rule="nonzero"></path>
                <path d="M157.601286,128.657519 C158.363788,127.979512 159.193786,127.381458 160.078266,126.872735 C162.623109,125.590135 163.559611,126.390912 165.670135,127.598864 C166.488287,128.182269 167.409259,128.605916 168.384634,128.847534 C171.268789,129.329357 173.182511,126.356981 175.849507,127.239193 C176.853871,127.578505 177.518924,128.331779 178.645441,128.515007 C179.771958,128.698236 180.586308,128.358924 181.678894,128.141764 C184.820927,127.517429 187.230045,129.173274 190.182063,127.571719 C191.335725,126.947384 190.311001,125.189746 189.157339,125.814081 C187.481136,126.716652 185.262033,125.427265 183.524753,125.495127 C181.319223,125.583348 180.009477,126.89988 177.573214,125.983737 C175.326966,125.142242 174.695845,124.015725 172.313871,125.556203 C170.277997,126.879522 168.045321,126.234828 166.009447,125.223677 C165.18437,124.687627 164.262107,124.318721 163.294948,124.137877 C160.519372,123.812138 158.239193,125.569776 156.196532,127.218834 C155.178595,128.03997 156.624066,129.471868 157.635217,128.657519 L157.601286,128.657519 Z" id="Path" fill="#2696AF" fill-rule="nonzero"></path>
                <path d="M220.815187,127.150972 C221.045919,129.566876 221.032347,132.220299 221.534529,134.615845 C221.778834,135.749148 221.934918,136.081674 222.98,136.570284 C224.50012,137.248909 227.832167,136.644933 229.481226,136.644933 C232.159532,136.644933 234.842362,136.678864 237.529716,136.746726 C240.21707,136.814589 242.8999,136.929955 245.578206,137.092825 C246.670792,137.153901 248.659163,137.690015 249.649955,136.916383 C250.233572,136.461704 250.240359,135.891659 250.32858,135.219821 C250.681465,132.505321 249.975695,129.159701 249.819611,126.445202 C249.812301,125.886066 249.360809,125.434574 248.801674,125.427265 C240.051938,125.983737 231.297678,126.230304 222.538894,126.166966 C221.976703,126.166966 221.520957,126.622712 221.520957,127.184903 C221.520957,127.747094 221.976703,128.20284 222.538894,128.20284 C231.302202,128.266178 240.056462,128.019611 248.801674,127.463139 L247.783737,126.445202 L248.075546,131.460239 C248.075546,132.023498 248.577728,134.853363 248.238416,135.226607 C247.783737,135.674499 243.630553,134.948371 242.884066,134.914439 C241.092496,134.826218 239.307713,134.758356 237.516143,134.710852 C233.937529,134.606796 230.358914,134.579651 226.780299,134.629417 C224.133662,134.629417 223.814709,134.765142 223.30574,132.043857 C223.013931,130.462661 222.993572,128.772885 222.837489,127.17133 C222.715336,125.875157 220.679462,125.861584 220.801614,127.17133 L220.815187,127.150972 Z" id="Path" fill="#2696AF" fill-rule="nonzero"></path>
                <path d="M151.003986,152.334738 C151.348889,160.97137 151.699512,169.608002 152.056921,178.244634 C152.067752,178.802277 152.517215,179.25174 153.074858,179.262571 C185.268819,179.031839 217.465042,178.769437 249.663528,178.475366 L258.86568,178.393931 C259.424815,178.386621 259.876307,177.935129 259.883617,177.375994 C259.931121,169.157848 259.836114,160.939701 259.693602,152.721555 C259.693602,152.159363 259.237856,151.703617 258.675665,151.703617 C226.264544,153.060867 193.704126,152.239731 161.279432,151.533961 C158.198475,151.466099 155.112995,151.393712 152.02299,151.316801 C150.713244,151.28287 150.713244,153.318744 152.02299,153.352676 C178.489357,154.0313 204.955725,154.445262 231.381375,154.289178 C240.481734,154.234888 249.588879,154.119522 258.675665,153.739492 L257.657728,152.721555 C257.800239,160.939701 257.895247,169.157848 257.847743,177.375994 L258.86568,176.358057 C232.743149,176.588789 206.62288,176.814998 180.504873,177.036682 L153.074858,177.247055 L154.092795,178.264993 C153.744434,169.623837 153.393812,160.987205 153.040927,152.355097 C152.986637,151.031779 150.950762,151.024993 151.003986,152.334738 Z" id="Path" fill="#000A24" fill-rule="nonzero"></path>
                <path d="M226.373124,161.387593 L242.490463,161.387593 C243.426966,161.387593 250.043558,160.708969 250.54574,161.387593 C251.047922,162.066218 250.60003,164.102093 250.593244,164.780717 L250.54574,169.531091 L251.563677,168.513154 C243.040149,168.440767 234.523408,168.696383 226.013453,169.28 L227.03139,170.297937 L227.03139,160.756472 C227.03139,160.194281 226.575644,159.738535 226.013453,159.738535 C225.451262,159.738535 224.995516,160.194281 224.995516,160.756472 L224.995516,170.297937 C225.002826,170.857073 225.454318,171.308565 226.013453,171.315874 C234.523408,170.732257 243.040149,170.476642 251.563677,170.549028 C252.122812,170.541719 252.574304,170.090227 252.581614,169.531091 L252.635904,164.102093 C252.635904,163.063797 253.002362,161.333303 252.439103,160.349297 C251.645112,158.992048 249.928191,159.33136 248.530224,159.338146 L226.373124,159.338146 C225.810933,159.338146 225.355187,159.793893 225.355187,160.356084 C225.355187,160.918275 225.810933,161.374021 226.373124,161.374021 L226.373124,161.387593 Z" id="Path" fill="#000A24" fill-rule="nonzero"></path>
                <path d="M162.358445,164.475336 C163.315306,160.179641 167.163109,163.796712 169.558655,164.102093 C170.390379,164.19397 171.231748,164.070101 172.001704,163.742422 C172.843199,163.430254 173.542182,162.866996 174.356532,162.500538 C176.43991,161.550463 177.335695,162.066218 179.106906,163.1113 C180.321644,163.823857 181.35994,164.753572 182.818984,164.923229 C184.101584,165.079312 184.753064,164.665351 185.818505,164.102093 C188.064753,162.921286 188.533004,162.290164 191.023558,162.819492 C193.514111,163.348819 195.90287,164.176741 198.373064,162.880568 C199.533513,162.269806 198.508789,160.512167 197.348341,161.12293 C194.029865,162.846637 190.311001,159.43994 186.829656,160.824335 C186.429268,160.980419 186.103528,161.312945 185.716712,161.469028 C184.094798,162.147653 182.615396,162.670194 180.898475,161.903348 C179.37157,161.224723 178.50293,160.030344 176.731719,159.867474 C174.960508,159.704604 174.01722,160.546099 172.524245,161.224723 C170.854828,161.903348 169.402571,161.699761 167.773871,161.129716 C167.095247,160.885411 166.586278,160.403587 165.812646,160.233931 C163.193154,159.663886 160.953692,161.50296 160.383647,163.966368 C160.098625,165.242182 162.066637,165.791868 162.351659,164.509268 L162.358445,164.475336 Z" id="Path" fill="#000A24" fill-rule="nonzero"></path>
                <path d="M248.292706,104.552765 L248.292706,113.727773 C248.292706,114.289964 248.748452,114.74571 249.310643,114.74571 C249.872834,114.74571 250.32858,114.289964 250.32858,113.727773 L250.32858,104.552765 C250.32858,103.990574 249.872834,103.534828 249.310643,103.534828 C248.748452,103.534828 248.292706,103.990574 248.292706,104.552765 Z" id="Path" fill="#2696AF" fill-rule="nonzero"></path>
                <path d="M244.336323,110.110703 C247.586936,109.873184 250.844335,110.198924 254.088161,109.968191 C255.391121,109.873184 255.397907,107.837309 254.088161,107.932317 C250.844335,108.163049 247.586936,107.837309 244.336323,108.074828 C243.040149,108.169836 243.026577,110.20571 244.336323,110.110703 Z" id="Path" fill="#2696AF" fill-rule="nonzero"></path>
                <rect id="Rectangle" fill="#D8D8D8" opacity="0" x="0" y="0" width="554" height="330"></rect>
            </g>
        </g>
    </g>
</svg>