<?xml version="1.0" encoding="UTF-8"?>
<svg width="454px" height="300px" viewBox="0 0 454 300" version="1.1" xmlns="http://www.w3.org/2000/svg" xmlns:xlink="http://www.w3.org/1999/xlink">
    <!-- Generator: Sketch 63.1 (92452) - https://sketch.com -->
    <title>Illu - On est là pour vous</title>
    <desc>Created with Sketch.</desc>
    <defs>
        <linearGradient x1="39.5561447%" y1="64.8733999%" x2="75.6057822%" y2="21.6203958%" id="linearGradient-1">
            <stop stop-color="#8985E6" offset="0%"></stop>
            <stop stop-color="#00A99D" offset="100%"></stop>
        </linearGradient>
        <linearGradient x1="0%" y1="50%" x2="100.004814%" y2="50%" id="linearGradient-2">
            <stop stop-color="#FFFFFF" offset="0%"></stop>
            <stop stop-color="#EEF4F9" offset="100%"></stop>
        </linearGradient>
        <linearGradient x1="0.0125411507%" y1="50%" x2="100.012541%" y2="50%" id="linearGradient-3">
            <stop stop-color="#FFFFFF" offset="0%"></stop>
            <stop stop-color="#EEF4F9" offset="100%"></stop>
        </linearGradient>
    </defs>
    <g id="Interfaces" stroke="none" stroke-width="1" fill="none" fill-rule="evenodd">
        <g id="HOME-PAGE" transform="translate(-204.000000, -2894.000000)">
            <g id="Illu---On-est-là-pour-vous." transform="translate(155.000000, 2879.000000)">
                <g id="Group" opacity="0.23" transform="translate(49.000000, 15.000000)" fill="url(#linearGradient-1)" fill-rule="nonzero">
                    <path d="M59.1970671,33.1257098 C92.2731981,16.5876443 149.855413,-11.495195 196.551544,5.93528861 C243.247676,23.3657722 307.388456,66.5772231 335.995413,51.9514821 C364.602371,37.325741 402.232668,24.7893916 420.364337,70.0760686 C438.496006,115.362746 424.54312,135.61922 443.368892,162.809641 C462.194665,190.000062 458.185866,236.774103 412.424649,249.267956 C366.663432,261.76181 343.071014,236.568705 324.599376,252.667644 C306.127738,268.766583 295.609953,303.620468 237.043245,292.465242 C178.476537,281.310016 163.8083,217.162153 125.462652,239.472605 C87.1170047,261.783058 -29.364805,221.822559 7.62804992,162.78131 C40.3712949,110.48986 3.42093604,61.010234 59.1970671,33.1257098 Z" id="Path"></path>
                </g>
                <path d="M233.709298,282.27922 C234.148424,246.532917 234.16259,175.118222 234.16259,175.118222 C248.327956,174.941154 262.549984,175.118222 276.65869,174.969485 L350.587738,174.048736 C359.738565,173.935413 370.256349,173.82209 379.407176,173.701685 L380.823713,280.45897 C331.599064,281.004337 233.709298,282.27922 233.709298,282.27922 Z" id="Path" fill="url(#linearGradient-2)" fill-rule="nonzero"></path>
                <path d="M241.429423,206.749485 C245.331981,205.609173 249.085803,206.607832 253.002527,207.004462 C254.985679,207.20986 256.954665,207.273604 258.31454,205.630421 C259.18571,204.589267 257.691264,203.073573 256.813011,204.128892 C255.070671,206.253697 250.509423,204.490109 248.186303,204.22805 C245.740689,203.884748 243.250668,204.04625 240.869891,204.70259 C239.559594,205.085055 240.112044,207.139033 241.429423,206.749485 Z" id="Path" fill="#000A24" fill-rule="nonzero"></path>
                <path d="M242.357254,215.184961 C244.155631,214.763813 246.024473,214.742054 247.832168,215.121217 C249.177878,215.461186 250.403183,216.247363 251.748892,216.537754 C253.710796,216.955632 254.836942,215.63117 256.49429,214.86624 C257.73376,214.292543 256.657192,212.458128 255.417722,213.031825 C253.937441,213.740094 253.498315,214.568768 251.571825,214.235881 C250.346521,214.030484 249.170796,213.223058 247.938409,212.93975 C245.870265,212.465211 243.844618,212.769766 241.79064,213.138066 C240.44493,213.378877 241.018627,215.425772 242.357254,215.184961 L242.357254,215.184961 Z" id="Path" fill="#000A24" fill-rule="nonzero"></path>
                <path d="M242.789298,226.481841 C244.914103,223.592106 251.288518,227.360094 254.121591,227.105117 C256.521921,226.84355 258.659748,225.469045 259.893978,223.393791 C260.644743,222.246396 258.803245,221.183994 258.059563,222.324306 C253.809953,228.769548 245.310733,219.59039 240.9478,225.405273 C240.133292,226.503089 241.974789,227.565491 242.782215,226.481841 L242.789298,226.481841 Z" id="Path" fill="#000A24" fill-rule="nonzero"></path>
                <path d="M244.602465,236.964212 C244.970764,236.291357 248.051732,236.553417 248.717504,236.581747 C250.247363,236.645491 251.727644,237.020874 253.243339,237.141279 C254.996224,237.289738 256.734968,236.725476 258.066646,235.576006 C259.143214,234.733167 257.634602,233.238721 256.565117,234.074477 C254.142839,235.965554 249.716162,234.322371 246.755601,234.464025 C245.339064,234.534852 243.547145,234.464025 242.76805,235.880562 C242.10936,237.077535 243.943775,238.14702 244.602465,236.950047 L244.602465,236.964212 Z" id="Path" fill="#000A24" fill-rule="nonzero"></path>
                <polygon id="Path" fill="#E3EBF2" fill-rule="nonzero" points="379.237192 188.511576 381.057441 280.232324 267.082902 281.599282 266.544618 189.807707"></polygon>
                <path d="M380.674977,186.960468 C380.608872,182.540874 380.549849,178.121279 380.49791,173.701685 C380.49028,173.118126 380.019066,172.646912 379.435507,172.639282 C331.011201,173.24131 282.586895,173.489204 234.16259,174.055819 C233.57903,174.063448 233.107816,174.534662 233.100187,175.118222 C233.100187,201.607457 233.026999,228.099054 232.880624,254.593011 C232.823963,263.824108 232.746053,273.052845 232.646157,282.27922 C232.636339,282.544851 232.739365,282.802415 232.930203,282.987488 L232.965616,283.029984 L232.965616,283.029984 C233.152406,283.21905 233.408133,283.323899 233.673885,283.32046 C269.974997,282.848196 306.273749,282.390182 342.57014,281.946334 C355.31897,281.790515 368.0678,281.641778 380.81663,281.500125 C381.40019,281.492496 381.871404,281.021282 381.879033,280.437722 C381.477681,249.288081 381.076329,218.128996 380.674977,186.960468 Z M246.486459,281.046833 L234.778783,281.202652 C235.161248,248.926864 235.182496,216.651076 235.21791,184.382371 C235.21791,181.641373 235.21791,178.907457 235.21791,176.166459 C282.933947,175.621092 330.657067,175.366115 378.380187,174.749922 C378.781539,205.559594 379.182891,236.369267 379.584243,267.178939 C379.640905,271.244399 379.695205,275.31222 379.747145,279.382402 C335.329277,279.892356 290.909048,280.447166 246.486459,281.046833 Z" id="Shape" fill="#000A24" fill-rule="nonzero"></path>
                <path d="M379.463838,187.675819 C331.301591,187.980374 283.203089,189.028612 235.069173,189.035694 C234.482424,189.035694 234.006771,189.511348 234.006771,190.098097 C234.006771,190.684845 234.482424,191.160499 235.069173,191.160499 C283.23142,191.160499 331.329922,190.105179 379.463838,189.800624 C380.050586,189.800624 380.52624,189.32497 380.52624,188.738222 C380.52624,188.151473 380.050586,187.675819 379.463838,187.675819 L379.463838,187.675819 Z" id="Path" fill="#000A24" fill-rule="nonzero"></path>
                <path d="M291.022371,205.417941 C290.767498,204.095257 290.188286,202.856523 289.336693,201.812855 C288.999713,201.436761 288.605276,201.11643 288.16805,200.863775 C289.298618,199.737556 289.556205,198.002922 288.801686,196.596773 C288.047167,195.190624 286.459356,194.446204 284.89585,194.765585 C284.788025,194.747222 284.677872,194.747222 284.570047,194.765585 C283.530523,194.875616 282.598357,195.45489 282.039379,196.338213 C281.480402,197.221536 281.355967,198.311952 281.70156,199.298502 C281.936752,200.011227 282.363027,200.64574 282.933947,201.132917 C280.809142,202.627363 280.14337,205.382527 280.46209,207.875632 C280.50038,208.240378 280.71828,208.561913 281.042871,208.732637 C281.182082,209.123074 281.584525,209.354328 281.99195,209.278003 C283.821881,209.04559 285.66473,208.929673 287.50936,208.930952 C288.571763,208.930952 290.229111,209.384243 291.050702,208.428081 C291.695226,207.648986 291.227769,206.289111 291.022371,205.417941 Z M286.978159,197.669485 C287.290706,198.494746 286.913873,199.421384 286.114072,199.79429 C284.187582,200.764618 282.856037,197.449922 284.293822,196.918721 C284.531479,196.970299 284.779354,196.945511 285.00209,196.847894 C285.772453,196.614906 286.600064,196.959003 286.978159,197.669485 Z M289.258783,206.827395 L287.842246,206.827395 C286.058003,206.812076 284.274511,206.906691 282.501903,207.110702 C282.431076,205.630421 282.693136,204.072231 283.883027,203.073573 C285.561622,201.657036 287.50936,202.48571 288.394696,204.298877 C288.706334,204.936318 288.699251,206.034134 289.102964,206.579501 C289.32961,206.876973 289.754571,206.84156 289.244618,206.827395 L289.258783,206.827395 Z" id="Shape" fill="#000A24" fill-rule="nonzero"></path>
                <g id="Group" opacity="0.2" transform="translate(279.895476, 210.482059)" fill="#2696AF" fill-rule="nonzero">
                    <path d="M6.27525741,1.41653666 C8.23716069,0.708268331 9.93700468,3.16595944 11.9768175,3.54134165 C14.3211856,3.95213729 16.2264275,1.62193448 18.4716381,0.743681747 C22.9053978,-0.991575663 27.4666459,3.25803432 32.1837129,3.33594384 C36.6670515,3.41385335 40.9237441,-0.290390016 45.2795944,0.85700468 C48.1126677,1.56527301 50.3791264,4.31335413 53.3042746,4.47625585 C55.4715757,4.59666147 57.4334789,3.27928237 59.5016225,2.56393136 C62.8304836,1.40237129 66.6268019,-0.191232449 69.6156942,1.73525741 C71.3013729,2.82599064 72.9587207,4.42667707 74.920624,4.21419657 C76.8825273,4.00171607 78.6390328,2.52143526 80.6788456,2.85432137 C82.7186583,3.18720749 84.0502028,6.50898596 81.8120749,9.63953198 C80.8197404,11.1643279 80.5600125,13.0525499 81.1038066,14.7886427 C81.4579407,15.9856162 82.435351,16.9984399 82.414103,18.2520749 C82.3174582,19.29373 81.7275447,20.2260039 80.8275819,20.7593448 C78.2919813,22.4591888 74.9914509,21.8571607 72.1229641,20.9364119 C69.2544774,20.015663 66.2726677,18.8116069 63.3404368,19.5198752 C61.6901716,19.9023401 60.2240562,20.8585023 58.6517005,21.5101092 C56.4547942,22.4240505 54.0536384,22.734587 51.6965055,22.40961 C47.1494228,21.7721685 42.6660842,18.8186895 38.3243994,20.3414665 C36.9078627,20.8514197 35.5904836,21.82883 34.0747894,22.1971295 C30.483869,23.0824649 27.0912637,20.2139782 23.4861778,19.4136349 C18.0183463,18.1883307 12.2459594,21.7721685 6.88436817,20.1219033 C4.95787832,19.5198752 3.01722309,17.7846178 3.27219969,15.6668955 C3.38552262,14.7036505 3.93797192,13.7970671 3.81048362,12.8338222 C3.6475819,11.5943526 2.45769111,10.8719189 1.60776911,10.0007488 C-0.566614665,7.82636505 1.60776911,7.16767551 2.80474259,5.94945398 C4.00171607,4.73123245 4.4125117,2.07522621 6.27525741,1.41653666 Z" id="Path"></path>
                </g>
                <path d="M286.560281,220.397816 C286.56439,223.150045 286.789397,225.897504 287.233136,228.613729 C287.360807,229.075168 287.781351,229.394201 288.260125,229.392828 C310.452533,229.293666 332.628414,228.901758 354.787769,228.217098 C355.368238,228.202207 355.835281,227.735165 355.850172,227.154696 C356.212447,223.793345 356.281173,220.406822 356.055569,217.033541 C356.04794,216.449982 355.576726,215.978768 354.993167,215.971139 L316.789173,216.856474 L298.374197,217.295601 C295.484462,217.359345 291.999782,216.969797 289.166708,217.55766 C288.106853,217.644418 287.156824,218.245133 286.624025,219.165429 C286.431633,219.458768 286.415322,219.833909 286.581529,220.142839 C286.565866,220.226898 286.558747,220.312325 286.560281,220.397816 L286.560281,220.397816 Z M296.971825,219.469984 L305.471045,219.264587 L321.761217,218.882122 L354.001591,218.117192 C354.127962,220.785622 354.073537,223.459546 353.83869,226.120624 C332.293167,226.772231 310.745283,227.152335 289.195039,227.260936 C288.869013,224.987775 288.705696,222.694238 288.706334,220.397816 C288.702498,220.282492 288.683446,220.168181 288.649672,220.057847 C289.896225,218.882122 295.519875,219.48415 296.971825,219.455819 L296.971825,219.469984 Z" id="Shape" fill="#000A24" fill-rule="nonzero"></path>
                <path d="M288.146802,251.76702 C293.94752,250.924181 299.989048,251.115413 305.85351,250.888768 C311.583401,250.662122 317.320374,250.49922 323.057348,250.336318 C334.595039,250.010515 346.13273,249.62805 357.64209,248.827707 C358.228839,248.827707 358.704493,248.352053 358.704493,247.765304 C358.381602,243.597155 357.844973,239.448327 357.096724,235.335195 C356.969755,234.876288 356.552962,234.557905 356.076817,234.5561 L287.601435,237.226271 C287.27564,237.241541 286.97405,237.402737 286.780342,237.665135 C286.586634,237.927534 286.521414,238.263223 286.602777,238.579064 C286.5095,238.745115 286.46529,238.934238 286.475289,239.124431 C286.579168,242.991576 286.683047,246.863443 286.786927,250.740031 C286.793313,251.072476 286.951968,251.383586 287.217308,251.583973 C287.482648,251.784359 287.825296,251.851838 288.146802,251.76702 L288.146802,251.76702 Z M356.48053,246.809142 C344.893261,247.609485 333.284743,247.949454 321.676225,248.28234 C315.705523,248.452324 309.741903,248.622309 303.778284,248.870203 C298.820406,249.082683 293.820031,248.997691 288.904649,249.578471 L288.628424,239.343994 L355.205647,236.744649 C355.843089,240.038097 356.147644,243.416537 356.48053,246.780811 L356.48053,246.809142 Z" id="Shape" fill="#000A24" fill-rule="nonzero"></path>
                <path d="M358.513261,257.801466 C358.505631,257.217907 358.034417,256.746693 357.450858,256.739064 C334.382559,256.554914 311.285928,256.420343 288.281373,258.474321 C288.057267,258.360023 287.794693,258.348183 287.56121,258.441847 C287.327726,258.535512 287.146132,258.725536 287.063151,258.963027 C286.84692,259.275361 286.786815,259.669963 286.90025,260.032512 C286.421914,263.696311 286.400502,267.405338 286.836505,271.074415 C286.851397,271.654884 287.318439,272.121926 287.898908,272.136817 C311.229267,272.410681 334.524212,271.605616 357.783744,269.721622 C358.364213,269.706731 358.831256,269.239689 358.846147,268.65922 C358.761154,265.018721 358.577005,261.420718 358.513261,257.801466 Z M288.847988,270.019095 C288.532717,266.866015 288.568348,263.687685 288.954228,260.542465 C311.392168,258.580562 333.915101,258.679719 356.416786,258.856786 C356.494696,261.7961 356.622184,264.735413 356.693011,267.674727 C334.103973,269.464285 311.484243,270.245741 288.833822,270.019095 L288.847988,270.019095 Z" id="Shape" fill="#000A24" fill-rule="nonzero"></path>
                <path d="M281.312012,219.689548 L281.276599,277.059282 C281.276599,277.646031 281.752253,278.121685 282.339002,278.121685 C282.92575,278.121685 283.401404,277.646031 283.401404,277.059282 L283.436817,219.689548 C283.436817,219.102799 282.961164,218.627145 282.374415,218.627145 C281.787666,218.627145 281.312012,219.102799 281.312012,219.689548 Z" id="Path" fill="#000A24" fill-rule="nonzero"></path>
                <path d="M283.982184,243.862746 C283.503806,243.481894 282.858763,243.384732 282.289423,243.607769 C282.192763,243.60049 282.095693,243.60049 281.999033,243.607769 C280.285023,243.607769 279.371357,245.732574 280.1717,247.149111 C280.67579,248.046862 281.670343,248.553346 282.692885,248.433045 C283.715426,248.312744 284.565275,247.589266 284.847245,246.599036 C285.129214,245.608805 284.787967,244.546161 283.982184,243.905242 L283.982184,243.862746 Z" id="Path" fill="#2696AF" fill-rule="nonzero"></path>
                <path d="M281.708643,226.297691 C282.659334,226.59427 283.695929,226.369909 284.438895,225.706754 C285.18186,225.043599 285.522076,224.039049 285.334977,223.060905 C285.133341,222.007479 284.218879,221.240988 283.146427,221.22649 C282.796298,221.227606 282.449788,221.297389 282.126521,221.431888 C281.745579,221.439681 281.373742,221.549764 281.049953,221.750608 C280.171895,222.255627 279.69081,223.24524 279.836028,224.247708 C279.981245,225.250175 280.723372,226.062594 281.708643,226.297691 L281.708643,226.297691 Z" id="Path" fill="#2696AF" fill-rule="nonzero"></path>
                <path d="M283.146427,262.546864 C282.796298,262.54798 282.449788,262.617763 282.126521,262.752262 C281.745579,262.760055 281.373742,262.870139 281.049953,263.070983 C280.171895,263.576001 279.69081,264.565614 279.836028,265.568082 C279.981245,266.57055 280.723372,267.382968 281.708643,267.618066 C282.659334,267.914645 283.695929,267.690284 284.438895,267.027129 C285.18186,266.363974 285.522076,265.359423 285.334977,264.381279 C285.133341,263.327854 284.218879,262.561363 283.146427,262.546864 L283.146427,262.546864 Z" id="Path" fill="#2696AF" fill-rule="nonzero"></path>
                <path d="M349.369516,239.705211 L349.751981,244.663089 C349.858222,246.015881 351.990109,246.030047 351.876786,244.663089 L351.494321,239.705211 C351.388081,238.352418 349.256193,238.345335 349.369516,239.705211 Z" id="Path" fill="#2696AF" fill-rule="nonzero"></path>
                <path d="M348.526677,243.466115 C350.070603,243.227904 351.62639,243.074216 353.187083,243.005741 C354.546958,242.941997 354.554041,240.817192 353.187083,240.880936 C351.438821,240.96809 349.696402,241.14777 347.967145,241.41922 C346.621435,241.624618 347.18805,243.671513 348.526677,243.466115 L348.526677,243.466115 Z" id="Path" fill="#2696AF" fill-rule="nonzero"></path>
                <path d="M350.934789,261.406552 L350.934789,266.931045 C350.934789,267.517794 351.410443,267.993448 351.997192,267.993448 C352.583941,267.993448 353.059594,267.517794 353.059594,266.931045 L353.059594,261.406552 C353.059594,260.819804 352.583941,260.34415 351.997192,260.34415 C351.410443,260.34415 350.934789,260.819804 350.934789,261.406552 L350.934789,261.406552 Z" id="Path" fill="#2696AF" fill-rule="nonzero"></path>
                <path d="M350.297348,265.514509 L355.255226,264.537098 C356.593853,264.275039 356.027239,262.221061 354.688612,262.490203 L349.730733,263.467613 C348.392106,263.729672 348.958721,265.776568 350.297348,265.514509 Z" id="Path" fill="#2696AF" fill-rule="nonzero"></path>
                <path d="M324.785523,220.943183 C322.05869,220.185335 320.42259,220.943183 317.787832,221.297317 C316.151732,221.523963 314.997254,220.27741 313.538222,220.723619 C312.929111,220.914852 312.560811,221.849766 312.072106,221.984337 C311.137192,222.246396 310.216443,221.233573 309.409017,221.056505 C307.99248,220.737785 307.602933,221.198159 306.370546,221.842683 C304.203245,222.96883 302.453822,221.934758 300.314852,222.501373 C299.741154,222.657192 299.153292,223.322964 298.607925,223.400874 C296.568112,223.691264 296.48312,222.161404 295.32156,221.212324 C292.623058,218.988362 290.498253,221.686864 289.719158,224.250796 C289.322527,225.561092 291.369423,226.120624 291.766053,224.81741 C292.941778,220.957348 294.599126,224.293292 296.185647,225.277785 C297.008068,225.807655 298.033263,225.915432 298.947894,225.568175 C300.583994,225.058222 300.144867,224.49869 302.425491,224.774914 C302.885866,224.831576 303.261248,225.206958 303.742871,225.249454 C304.899918,225.393171 306.060164,225.008156 306.901747,224.201217 C309.316942,222.366802 309.154041,224.505772 311.406334,224.583682 C312.489984,224.583682 312.71663,223.91791 313.573635,223.485866 C314.806022,222.876755 313.84986,223.294633 314.954758,223.308799 C315.386802,223.308799 315.833011,223.684181 316.300468,223.726677 C317.004926,223.724473 317.703181,223.5949 318.361529,223.344212 C320.486334,222.798846 321.959532,222.359719 324.225991,222.990078 C324.778439,223.110945 325.328744,222.777863 325.477861,222.232361 C325.626977,221.686859 325.322635,221.120154 324.785523,220.943183 Z" id="Path" fill="#2696AF" fill-rule="nonzero"></path>
                <path d="M359.809392,221.814353 C363.138253,223.053822 365.008081,226.141872 365.234727,229.605304 C365.418877,232.438378 364.717691,236.942964 361.57298,238.104524 C360.298097,238.579064 360.864711,240.633042 362.132512,240.158502 C366.311295,238.614477 367.579095,233.713261 367.359532,229.612387 C367.118721,225.100718 364.618534,221.339813 360.368924,219.753292 C359.086958,219.278752 358.534509,221.33273 359.809392,221.80727 L359.809392,221.814353 Z" id="Path" fill="#2696AF" fill-rule="nonzero"></path>
                <path d="M360.935538,244.372699 C363.29336,246.51492 364.774425,249.454341 365.093073,252.624025 C365.340967,256.037878 363.31532,258.665554 361.296755,261.201154 C360.453916,262.256474 361.948362,263.772168 362.798284,262.702683 C365.05766,259.86961 367.366615,256.845304 367.288705,253.048986 C367.063154,249.152858 365.32175,245.499723 362.437067,242.87117 C361.417161,241.964587 359.908549,243.459033 360.935538,244.372699 L360.935538,244.372699 Z" id="Path" fill="#2696AF" fill-rule="nonzero"></path>
                <path d="M359.837722,242.269142 C360.305179,242.084992 360.829298,242.198315 361.31092,242.042496 C361.821714,241.881703 362.232813,241.499225 362.429984,241.001342 C362.588178,240.443545 362.612445,239.856279 362.500811,239.287332 L362.309579,237.162527 C362.262952,236.605786 361.805636,236.172859 361.247176,236.156786 C360.698506,236.045687 360.149194,236.344226 359.943963,236.865055 C359.469423,238.232012 359.001966,239.606053 358.527426,240.973011 C358.439043,241.339541 358.548847,241.725599 358.816897,241.99075 C359.084946,242.255902 359.472174,242.361504 359.837722,242.269142 L359.837722,242.269142 Z" id="Path" fill="#2696AF" fill-rule="nonzero"></path>
                <path d="M364.639782,262.66727 C364.470103,262.493318 364.311606,262.308799 364.165242,262.114821 C364.023459,261.116669 363.754493,260.140772 363.364899,259.21092 C363.271688,258.88756 363.033537,258.625856 362.720374,258.502652 C362.097098,257.928955 360.850546,258.155601 360.928456,259.21092 C360.928456,259.338409 360.928456,259.465897 360.978034,259.593385 C360.132834,260.870525 359.550186,262.303068 359.264025,263.807582 C359.173933,264.175493 359.282482,264.563744 359.550321,264.831583 C359.81816,265.099421 360.20641,265.207971 360.574321,265.117878 L364.172324,264.40961 C364.520898,264.299817 364.789278,264.019637 364.883978,263.666664 C364.978678,263.313691 364.886586,262.936798 364.639782,262.66727 L364.639782,262.66727 Z" id="Path" fill="#2696AF" fill-rule="nonzero"></path>
                <path d="M241.301934,179.757379 C241.365679,181.882184 241.344431,184.006989 241.23819,186.131794 C241.174446,187.498752 243.299251,187.491669 243.362995,186.131794 C243.469236,184.006989 243.490484,181.882184 243.426739,179.757379 C243.391326,178.390421 241.259438,178.390421 241.301934,179.757379 Z" id="Path" fill="#000A24" fill-rule="nonzero"></path>
                <path d="M242.824711,180.593136 C243.018945,180.470459 243.266064,180.469017 243.461716,180.589419 C243.657368,180.70982 243.767444,180.931074 243.74546,181.15975 C243.780874,181.868019 243.115101,182.158409 242.534321,182.250484 C242.260974,182.326509 242.029038,182.508034 241.889562,182.755106 C241.750086,183.002179 241.714501,183.294547 241.79064,183.567863 C241.973131,184.111839 242.545866,184.421425 243.100936,184.276131 C243.978428,184.153862 244.765723,183.672642 245.274694,182.947459 C245.783664,182.222276 245.968587,181.318279 245.785273,180.451482 C245.580531,179.614123 244.992852,178.922374 244.199591,178.584993 C243.406329,178.247613 242.50041,178.304125 241.755226,178.737473 C241.272019,179.043154 241.117409,179.676439 241.405393,180.170398 C241.693376,180.664357 242.320649,180.841797 242.824711,180.571888 L242.824711,180.593136 Z" id="Path" fill="#000A24" fill-rule="nonzero"></path>
                <path d="M246.868924,182.413385 C246.30745,183.002989 246.046535,183.817043 246.160655,184.623183 C246.308255,185.375388 246.84957,185.98978 247.577192,186.230952 C248.993729,186.705491 251.08312,185.749329 251.118534,184.106147 C251.132858,182.780908 250.110586,181.67474 248.788331,181.584711 C248.078801,181.63304 247.40798,181.925899 246.890172,182.413385 C246.478919,182.832174 246.478919,183.503208 246.890172,183.921997 C247.311029,184.321329 247.970843,184.321329 248.3917,183.921997 C248.568768,183.766178 248.207551,184.021154 248.349204,183.921997 C248.490858,183.822839 248.590016,183.766178 248.717504,183.702434 C248.441279,183.844087 248.752917,183.702434 248.809579,183.702434 C249.022059,183.603276 248.618346,183.766178 248.809579,183.702434 C249.000811,183.63869 248.724587,183.66702 248.731669,183.659938 C248.738752,183.652855 248.830827,183.716599 248.731669,183.659938 C248.802496,183.737847 248.823744,183.752012 248.788331,183.702434 C248.752917,183.652855 248.915819,183.936162 248.894571,183.893666 C248.894571,183.992824 248.965398,184.091981 248.993729,184.198222 C248.986669,184.129938 248.986669,184.061108 248.993729,183.992824 C248.854861,184.090691 248.702051,184.167096 248.540437,184.21947 C248.490858,184.21947 248.221716,184.261966 248.264212,184.276131 C248.306708,184.290296 248.264212,184.120312 248.264212,184.226552 C248.283353,184.114195 248.33227,184.009026 248.405866,183.921997 C248.802589,183.497372 248.802589,182.83801 248.405866,182.413385 C248.203412,182.207034 247.926476,182.090774 247.637395,182.090774 C247.348313,182.090774 247.071377,182.207034 246.868924,182.413385 Z" id="Path" fill="#000A24" fill-rule="nonzero"></path>
                <path d="M259.242371,183.85117 C259.313198,184.070733 258.859906,184.453198 258.647426,184.467363 C258.725335,184.467363 258.647426,184.623183 258.647426,184.410702 C258.667133,184.260967 258.702747,184.113759 258.753666,183.971576 C258.777308,183.90667 258.816169,183.848379 258.866989,183.801591 C258.866989,183.801591 258.923651,183.766178 258.902402,183.801591 C258.881154,183.837005 258.902402,183.801591 258.902402,183.801591 L259.036973,183.801591 C258.916568,183.801591 258.89532,183.801591 258.980312,183.801591 C259.066697,183.818558 259.147219,183.857598 259.214041,183.914914 C259.072387,183.794509 259.391108,184.120312 259.263619,183.964493 C259.136131,183.808674 259.334446,184.099064 259.348612,184.134477 C259.649093,184.634822 260.295227,184.801872 260.800562,184.50986 C261.293892,184.204603 261.461954,183.56659 261.183027,183.05791 C260.702197,182.042793 259.586587,181.491402 258.488112,181.725946 C257.389637,181.96049 256.59651,182.91943 256.5722,184.042402 C256.422502,184.74182 256.63474,185.469621 257.136925,185.978939 C257.639109,186.488257 258.363845,186.710739 259.065304,186.57092 C260.481841,186.301778 261.742559,184.764836 261.289267,183.312886 C260.885554,181.981342 258.831576,182.540874 259.242371,183.85117 Z" id="Path" fill="#000A24" fill-rule="nonzero"></path>
                <path d="M262.472075,178.128362 L262.188768,185.083557 C262.139189,186.450515 264.263994,186.450515 264.313573,185.083557 L264.59688,178.128362 C264.653541,176.761404 262.528736,176.761404 262.472075,178.128362 Z" id="Path" fill="#000A24" fill-rule="nonzero"></path>
                <path d="M253.3,181.570546 C251.883463,181.92468 250.544836,183.596193 251.338097,185.069392 C252.046365,186.351357 254.17117,186.563838 255.361061,185.954727 C255.953355,185.652383 256.392126,185.116008 256.571081,184.47554 C256.750035,183.835072 256.652846,183.148942 256.303058,182.58337 C255.58343,181.527114 254.206804,181.144053 253.045023,181.676786 C252.542122,181.974888 252.371777,182.621567 252.662559,183.128736 C252.96818,183.626141 253.611263,183.794716 254.121591,183.511201 C253.69663,183.695351 254.057847,183.567863 254.043682,183.56078 C254.029516,183.553697 254.489891,183.631607 254.426147,183.56078 C254.503314,183.673135 254.554154,183.801445 254.574883,183.936162 C254.574883,183.674103 254.53947,183.978658 254.46156,184.006989 C254.259847,184.080561 254.04576,184.114238 253.831201,184.106147 C253.643024,184.061223 253.450846,184.035125 253.257504,184.028237 C253.111128,183.92908 253.111128,183.964493 253.257504,184.134477 C253.277731,184.055088 253.308709,183.978835 253.349579,183.907832 C253.497778,183.757514 253.683713,183.649868 253.887863,183.596193 C255.191076,183.284555 254.631544,181.23766 253.3,181.570546 Z" id="Path" fill="#000A24" fill-rule="nonzero"></path>
                <path d="M455.800998,78.9353822 C452.387145,75.2382215 436.847738,65.2445554 436.847738,65.2445554 C436.847738,65.2445554 427.703994,78.9991264 423.89351,81.534727 L428.582246,81.9951014 C428.582246,81.9951014 423.673947,98.3844306 430.75663,100.78546 C432.739782,101.493729 434.935413,101.210421 437.230203,100.410078 C436.953978,108.909298 434.758346,119.476661 434.758346,119.476661 C434.758346,119.476661 445.779002,120.737379 445.049485,114.851669 C442.605959,95.6930109 460.128518,83.6453666 455.800998,78.9353822 Z" id="Path" fill="#000A24" fill-rule="nonzero"></path>
                <path d="M430.338752,92.9095164 L429.630484,95.7425897 C429.630484,95.7425897 435.672012,97.3432761 439.291264,91.0680187 C439.291264,91.1034321 434.092574,94.2481435 430.338752,92.9095164 Z" id="Path" fill="#FFFFFF" fill-rule="nonzero"></path>
                <path d="M444.036661,70.6982215 C441.911856,68.8708892 441.246084,67.7376599 438.944212,69.5083307 C436.64234,71.2790016 434.82209,71.3923245 432.328986,69.926209 C427.080718,66.8523245 425.317129,58.5160062 431.252418,58.4947582 C438.46259,58.4947582 440.318253,52.0282683 445.524025,55.9662402 C452.557129,61.2782527 459.42025,58.0910452 460.475569,63.4951326 C461.530889,68.89922 469.038534,71.2365055 463.733604,76.6547582 C458.428674,82.0730109 458.336599,87.1158814 454.561529,88.1216225 C451.409735,88.936131 456.140967,77.8517317 452.033011,77.1859594 C446.940562,76.3431201 444.036661,70.6982215 444.036661,70.6982215 Z" id="Path" fill="#5E6DBE" fill-rule="nonzero"></path>
                <polygon id="Path" fill="#000A24" fill-rule="nonzero" points="450.177348 289.064431 450.177348 303.775164 445.03532 303.775164 444.291638 289.064431"></polygon>
                <path d="M458.995289,199.404743 C458.995289,199.404743 458.995289,214.10131 454.582777,222.189735 C454.582777,222.189735 457.529173,284.659002 454.582777,292.740343 L439.121279,294.95014 C439.121279,294.95014 436.181966,262.610608 435.445367,253.813916 C434.708768,245.017223 429.566739,210.453729 430.303339,199.433073 L458.995289,199.404743 Z" id="Path" fill="#212F79" fill-rule="nonzero"></path>
                <path d="M426.655757,306.707395 C429.227586,306.233533 431.741857,305.488036 434.156318,304.483432 C437.40727,303.003151 443.604618,299.759282 443.604618,299.759282 C443.604618,299.759282 444.497036,298.866864 445.084899,299.759282 C445.678688,300.545055 445.678688,301.629516 445.084899,302.415289 C445.757468,302.763885 446.45602,303.059882 447.17429,303.300624 C449.752387,303.300624 451.154758,299.759282 451.4239,300.049672 C451.669908,301.08835 452.071042,302.084024 452.613791,303.003151 C453.499126,304.483432 455.687676,311.26156 452.472137,312.161061 C450.120686,312.812668 437.40727,312.458534 436.181966,312.458534 C434.956661,312.458534 423.723526,312.748924 424.417629,308.208924 C424.644275,306.877379 426.655757,306.707395 426.655757,306.707395 Z" id="Path" fill="#00A99D" fill-rule="nonzero"></path>
                <polygon id="Path" fill="#FFFFFF" fill-rule="nonzero" points="441.571888 119.094197 434.390047 119.150858 430.260842 136.730078 428.815975 154.011825 428.815975 181.209329 430.211264 199.333916 441.571888 199.404743"></polygon>
                <path d="M416.810827,191.245491 C416.810827,191.245491 413.460718,196.458346 407.603339,194.992231 C409.740221,192.869081 412.100707,190.983543 414.643526,189.36858 C418.574415,186.910889 416.810827,191.245491 416.810827,191.245491 Z" id="Path" fill="#000A24" fill-rule="nonzero"></path>
                <path d="M436.13947,119.504992 C436.13947,121.594384 431.068268,129.583651 429.59507,150.180094 C428.369766,167.391014 429.864212,191.882933 430.303339,199.425991 C430.367101,200.158845 430.367101,200.895851 430.303339,201.628705 L427.356942,201.628705 C427.356942,201.628705 424.481373,140.8522 434.042995,118.803807 C434.042995,118.803807 436.13947,118.109704 436.13947,119.504992 Z" id="Path" fill="#00A99D" fill-rule="nonzero"></path>
                <path d="M448.70415,115.616599 C457.585835,113.647613 460.461404,123.697941 464.873916,130.313167 C468.634821,135.979314 486.192793,161.179501 476.63117,167.80181 C467.069548,174.424119 453.116661,167.80181 444.291638,163.389298 L435.473697,158.976786 L435.473697,148.685647 C435.473697,148.685647 452.380062,153.834758 457.529173,154.571357 C462.678284,155.307956 453.116661,139.867707 449.440749,134.739844 C447.308861,131.736786 442.088924,117.089797 448.70415,115.616599 Z" id="Path" fill="#00A99D" fill-rule="nonzero"></path>
                <path d="M448.70415,115.616599 C448.70415,115.616599 437.258534,116.771076 438.250109,120.199095 C440.835289,129.406583 440.636973,159.720468 437.704743,172.214321 C434.772512,184.708175 437.704743,201.607457 437.704743,201.607457 L461.95585,203.810172 C461.95585,203.810172 464.895164,172.214321 466.368362,166.328612 C467.84156,160.442902 448.70415,115.616599 448.70415,115.616599 Z" id="Path" fill="#00A99D" fill-rule="nonzero"></path>
                <path d="M427.711076,155.060062 C427.711076,155.060062 416.378783,182.470047 413.425304,188.348674 L418.574415,192.775351 L427.711076,178.567488 L427.711076,155.060062 Z" id="Path" fill="#0E6176" fill-rule="nonzero"></path>
                <path d="M435.473697,150.527145 C435.473697,150.527145 429.59507,147.956131 423.716443,145.753417 C423.716443,145.753417 422.250328,151.632044 435.473697,155.513354 L435.473697,150.527145 Z" id="Path" fill="#000A24" fill-rule="nonzero"></path>
                <path d="M448.463339,138.082871 C447.896724,137.700406 446.940562,137.778315 446.338534,137.742902 L443.278814,137.537504 C442.915086,137.493394 442.562192,137.679722 442.393479,138.004961 C442.178936,138.198549 442.068619,138.482219 442.096006,138.769891 C442.180998,140.335164 442.096006,141.886271 442.096006,143.444462 C442.096006,144.570608 441.954353,145.951732 442.478471,146.985803 C443.271732,148.522746 445.269048,148.721061 446.770577,148.225273 C449.228268,147.410764 448.789142,143.692356 448.973292,141.624212 C449.015788,140.583058 449.539906,138.826552 448.463339,138.082871 Z M446.983058,140.094353 C446.983058,140.696381 446.8839,141.312574 446.834321,141.921685 C446.735164,143.076162 446.600593,144.216474 446.501435,145.370952 C446.430608,146.164212 446.501435,146.07922 445.793167,146.298783 C444.05791,146.808736 444.178315,145.243463 444.157067,143.975663 C444.157067,142.559126 444.227894,141.14259 444.157067,139.726053 C444.958824,139.925568 445.793207,139.956918 446.607676,139.818128 C447.195538,139.655226 447.046802,139.315257 446.997223,140.094353 L446.983058,140.094353 Z" id="Shape" fill="#FFFFFF" fill-rule="nonzero"></path>
                <path d="M416.874571,314.597504 L475.660842,314.597504 C476.247591,314.597504 476.723245,314.12185 476.723245,313.535101 C476.723245,312.948353 476.247591,312.472699 475.660842,312.472699 L416.874571,312.472699 C416.287822,312.472699 415.812168,312.948353 415.812168,313.535101 C415.812168,314.12185 416.287822,314.597504 416.874571,314.597504 L416.874571,314.597504 Z" id="Path" fill="#000A24" fill-rule="nonzero"></path>
                <path d="M178.613105,193.228643 C179.321373,138.34493 179.321373,28.6837441 179.321373,28.6837441 C201.022715,28.4146022 222.915289,28.7262402 244.61663,28.4570983 L358.130796,27.0405616 C372.189922,26.8634945 388.331357,26.6935101 402.390484,26.5164431 L404.515289,190.438066 C328.928892,191.266739 178.613105,193.228643 178.613105,193.228643 Z" id="Path" fill="url(#linearGradient-3)" fill-rule="nonzero"></path>
                <polygon id="Path" fill="#E3EBF2" fill-rule="nonzero" points="402.107176 49.2518565 404.890671 190.091014 229.891732 192.187488 229.07014 51.2420905"></polygon>
                <g id="Group" opacity="0.2" transform="translate(240.232449, 99.992200)" fill="#2696AF" fill-rule="nonzero">
                    <path d="M5.10661466,10.9994072 C9.98658346,7.57847114 22.275039,-5.36159126 27.1762559,3.63341654 C32.0774727,12.6284243 36.0721061,11.8209984 40.1588144,18.4149766 C44.2455226,25.0089548 50.4782839,30.6680187 37.3682371,40.0313261 C32.4882683,43.5160062 31.1213105,47.7018721 20.6389392,47.7018721 C10.1565679,47.7018721 1.81316693,46.8519501 1.81316693,38.6360374 L1.81316693,31.4400312 C1.83441498,19.165741 -3.07388456,16.7222153 5.10661466,10.9994072 Z" id="Path"></path>
                </g>
                <g id="Group" opacity="0.2" transform="translate(342.931357, 95.034321)" fill="#2696AF" fill-rule="nonzero">
                    <path d="M39.8188456,4.6674883 C52.7376599,12.7984087 45.9453666,28.3094852 49.0263339,35.4771607 C52.1073011,42.6448362 43.8984711,48.8280187 31.5746022,50.8890796 C19.2507332,52.9501404 6.70730109,46.9015289 1.57943838,38.6785335 C-3.54842434,30.4555382 12.0830577,-12.7984087 39.8188456,4.6674883 Z" id="Path"></path>
                </g>
                <g id="Group" opacity="0.2" transform="translate(290.519501, 95.742590)" fill="#2696AF" fill-rule="nonzero">
                    <path d="M13.3154446,6.46648986 C25.943869,0.148736349 37.325741,-3.44926677 40.144649,6.46648986 C42.9635569,16.3822465 47.2273323,14.894883 47.2273323,29.0602496 C47.2273323,43.2256162 38.1260842,49.8195944 27.5374727,49.1254914 C16.9488612,48.4313885 0.346965279,43.544337 0.346965279,32.3891108 C0.332886115,21.580936 2.05397816,12.1184711 13.3154446,6.46648986 Z" id="Path"></path>
                </g>
                <path d="M190.356193,76.7114197 C196.10025,74.9195008 201.773479,76.3147894 207.581279,77.0018097 C210.747239,77.3701092 214.104431,77.710078 216.193822,74.9195008 C217.008331,73.8216849 215.166833,72.7946958 214.359407,73.8500156 C212.050452,76.9593136 204.316162,74.3741342 201.22103,73.9916693 C197.311388,73.5171295 193.564649,73.4817161 189.789579,74.6645242 C188.486365,75.0682371 189.038814,77.1222153 190.356193,76.7114197 L190.356193,76.7114197 Z" id="Path" fill="#000A24" fill-rule="nonzero"></path>
                <path d="M191.801061,89.6656474 C194.372075,89.1981903 196.97142,88.7661466 199.592012,89.3044306 C201.83014,89.7718877 203.806209,90.9334477 205.966427,91.5425585 C209.196131,92.449142 210.61975,90.4447426 213.381997,89.2265211 C214.628549,88.6740718 213.551981,86.8467395 212.305429,87.3921061 C210.435601,88.22078 209.677754,89.3256786 207.552949,89.3185959 C205.109423,89.3185959 203.083775,88.0082995 200.732324,87.4133541 C197.545117,86.6059282 194.428736,87.0379719 191.248612,87.6116693 C189.902902,87.8524805 190.469516,89.9064587 191.808144,89.6656474 L191.801061,89.6656474 Z" id="Path" fill="#000A24" fill-rule="nonzero"></path>
                <path d="M192.070203,107.266115 C193.642559,104.489704 199.747832,105.750421 202.184275,106.416193 C204.507395,107.053635 206.710109,108.080624 209.1678,108.01688 C212.960198,107.867767 216.416207,105.799499 218.339875,102.5278 C219.048144,101.36624 217.227894,100.303838 216.50546,101.458315 C214.626093,104.659977 210.953656,106.354948 207.297972,105.707925 C204.911108,105.282964 202.715476,104.1639 200.314446,103.781435 C197.318471,103.29273 191.999376,103.073167 190.257036,106.175382 C189.95975,106.681942 190.1294,107.333588 190.635959,107.630874 C191.142519,107.92816 191.794165,107.75851 192.091451,107.25195 L192.070203,107.266115 Z" id="Path" fill="#000A24" fill-rule="nonzero"></path>
                <path d="M194.903276,123.365055 C195.611544,122.019345 200.222371,122.444306 201.624743,122.493885 C204.039938,122.585959 206.355975,123.145491 208.742839,123.357972 C211.264228,123.60308 213.774512,122.792815 215.676786,121.119844 C216.739189,120.255757 215.223495,118.76131 214.168175,119.618315 C210.30103,122.748861 204.252418,120.255757 199.648674,120.326583 C197.523869,120.36908 194.272917,120.085772 193.068861,122.267239 C192.410172,123.471295 194.244587,124.54078 194.903276,123.343807 L194.903276,123.365055 Z" id="Path" fill="#000A24" fill-rule="nonzero"></path>
                <path d="M404.883588,134.902746 L403.736193,46.801248 C403.641758,40.0349246 403.554405,33.2733229 403.474134,26.5164431 C403.466505,25.9328837 402.995291,25.4616698 402.411732,25.4540406 C344.737441,26.1623089 287.048986,27.3380343 229.374696,27.500936 C212.694977,27.5505148 196.015257,27.4230265 179.342621,27.6213417 C178.759062,27.6289709 178.287848,28.1001848 178.280218,28.6837441 C178.280218,69.4752782 178.164535,110.25973 177.933167,151.037098 C177.857618,165.103307 177.739574,179.167155 177.578968,193.228643 C177.576027,193.492919 177.677904,193.747611 177.86234,193.936911 L177.897754,193.972324 L177.897754,193.972324 C178.083594,194.162803 178.339955,194.267911 178.606022,194.262898 L233.907613,193.554446 C271.37973,193.082267 308.851846,192.610088 346.323963,192.13791 C365.716349,191.90182 385.111097,191.665731 404.508206,191.429641 C405.093347,191.425779 405.566746,190.95238 405.570608,190.367239 L404.883588,134.902746 Z M267.762839,29.2291108 L356.749672,28.1242122 L401.370577,27.5930109 C401.455569,34.5765367 401.545283,41.5600624 401.639719,48.5435881 C344.071669,48.9118877 286.503619,49.9601248 228.935569,50.44883 C212.749277,50.5763183 196.567707,50.6471451 180.390858,50.6613105 C180.390858,48.0123869 180.390858,45.370546 180.390858,42.7216225 C180.390858,38.3917421 180.390858,34.0642226 180.390858,29.739064 C209.521934,29.4061778 238.638846,29.5903276 267.762839,29.2291108 Z M295.264899,190.650546 C262.835653,191.051898 230.406407,191.465055 197.977161,191.890016 L179.718003,192.123744 C180.270452,145.675507 180.334197,99.2131045 180.383775,52.7577847 C238.079314,52.7577847 295.767769,51.744961 353.456225,51.0862715 C369.510307,50.9021217 385.578554,50.7533853 401.660967,50.6400624 C401.797899,61.0988248 401.934831,71.5623089 402.071763,82.0305148 L403.219158,170.132012 C403.30415,176.53948 403.386781,182.949308 403.467051,189.361498 C367.402028,189.777015 331.334644,190.206698 295.264899,190.650546 Z" id="Shape" fill="#000A24" fill-rule="nonzero"></path>
                <path d="M190.1083,35.2493916 C189.633555,35.5056829 189.45352,36.0963255 189.704587,36.5738534 C189.789579,39.7421737 189.756526,42.9057722 189.605429,46.064649 C189.541685,47.4316069 191.66649,47.4316069 191.730234,46.064649 C191.786895,44.945585 191.815226,43.8194384 191.843557,42.7003744 C193.023159,42.5275867 194.079809,41.8773427 194.765641,40.9021756 C195.451473,39.9270085 195.706136,38.712729 195.469891,37.544181 C195.202536,36.4266066 194.422274,35.5013728 193.36586,35.049222 C192.309446,34.5970712 191.101408,34.6713023 190.1083,35.2493916 L190.1083,35.2493916 Z M191.871888,40.4976599 C191.871888,39.3006864 191.871888,38.0966303 191.836474,36.8996568 C192.265285,36.8700709 192.687019,37.0205718 193.000219,37.3149523 C193.313418,37.6093327 193.489731,38.020945 193.486739,38.4507644 C193.479508,39.4219369 192.814708,40.264599 191.871888,40.4976599 L191.871888,40.4976599 Z" id="Shape" fill="#000A24" fill-rule="nonzero"></path>
                <path d="M200.569423,39.6760686 C199.759347,39.7299911 198.985431,40.0316454 198.352543,40.540156 C198.239265,40.6012174 198.13838,40.6828863 198.05507,40.7809672 C197.93776,40.8809698 197.845571,41.0071224 197.785928,41.1492668 C196.737691,42.7145398 196.822683,44.9951638 198.912075,45.6892668 C200.703994,46.2842122 203.57248,45.1297348 203.579563,42.9695164 C203.607894,41.36883 202.276349,39.6264899 200.569423,39.6760686 Z M200.356942,43.6919501 C199.280374,43.9256786 198.855413,43.1040874 199.556599,42.2754134 L199.592012,42.2754134 L199.592012,42.2754134 C199.772524,42.1487056 199.96188,42.0350919 200.158627,41.9354446 C200.430667,41.7415861 200.805737,41.7877013 201.022715,42.0416849 C201.26918,42.3220421 201.407337,42.6812512 201.412262,43.0545086 C201.355601,43.3732293 200.689828,43.6282059 200.37819,43.6919501 L200.356942,43.6919501 Z" id="Shape" fill="#000A24" fill-rule="nonzero"></path>
                <path d="M219.175632,41.6308892 C218.587008,40.4700096 217.381569,39.7528145 216.080499,39.7893916 C214.423151,39.8602184 213.325335,41.3829953 213.134103,42.9270203 C212.893292,44.8251794 214.239002,46.5533541 216.257566,46.1850546 C218.127395,45.8450858 219.876817,43.8194384 219.274789,41.8858658 C219.248309,41.7984619 219.215159,41.7132194 219.175632,41.6308892 Z M215.761778,44.095663 C214.954353,44.095663 215.216412,42.9270203 215.45014,42.4808112 C215.896349,41.6238066 216.810016,41.8362871 217.234977,42.4808112 C217.355382,43.2103276 216.455881,44.0885803 215.761778,44.095663 Z" id="Shape" fill="#000A24" fill-rule="nonzero"></path>
                <path d="M222.20702,33.7974415 C222.065367,37.3529485 221.921352,40.9108164 221.774977,44.4710452 C221.718315,45.8380031 223.84312,45.8380031 223.899782,44.4710452 C224.041435,40.9155382 224.18545,37.3576703 224.331825,33.7974415 C224.388487,32.4304836 222.263682,32.4304836 222.20702,33.7974415 Z" id="Path" fill="#000A24" fill-rule="nonzero"></path>
                <path d="M207.829173,39.6123245 L207.701685,39.6123245 C205.902683,40.0656162 203.976193,42.218752 205.031513,44.1523245 C205.945179,45.8380031 208.870328,46.1000624 210.435601,45.3068019 C211.213896,44.9180854 211.792122,44.2191089 212.028092,43.3817548 C212.264061,42.5444008 212.13588,41.6463562 211.67507,40.9084555 C210.8184,39.676644 209.256687,39.1503209 207.829173,39.6123245 L207.829173,39.6123245 Z M209.621092,43.3307332 C208.904718,43.6689893 208.081779,43.7022136 207.340468,43.4228081 C206.270983,42.8349454 207.545866,41.8504524 208.2683,41.6663027 L208.37454,41.6663027 C208.48101,41.633781 208.58998,41.6100918 208.700343,41.5954758 C209.085008,41.5761478 209.464764,41.6885755 209.776911,41.9141966 C209.954333,42.1184892 210.038394,42.3875851 210.008809,42.6565437 C209.979224,42.9255023 209.838679,43.1698915 209.621092,43.3307332 L209.621092,43.3307332 Z" id="Shape" fill="#000A24" fill-rule="nonzero"></path>
                <path d="M268.981061,66.484025 C268.598596,64.7912637 267.514945,61.0445242 265.638034,60.3929173 C264.632293,60.0458658 263.6478,61.0303588 262.889953,61.5473947 C261.473417,62.4917525 260.05688,63.4502756 258.640343,64.4229641 C257.514197,65.1878939 258.576599,67.0293916 259.709828,66.2573791 L262.245429,64.5292044 C262.599563,64.2883931 263.222839,63.7217785 263.796537,63.3039002 C262.346947,66.6469267 260.82181,69.9521789 259.221123,73.2196568 C259.027678,72.631881 258.776183,72.0648295 258.470359,71.5268955 C258.286565,71.196272 257.934878,70.994529 257.556693,71.0027769 C255.736443,71.1869267 254.759033,73.3400624 254.015351,75.2523869 C253.399158,74.041248 252.563401,72.9434321 251.281435,73.2834009 C249.043307,73.8712637 247.357629,78.4608424 246.521872,80.2881747 C245.955257,81.5205616 247.789672,82.6042122 248.356287,81.3576599 C249.107051,79.7215601 250.041966,78.2625273 250.927301,76.6972543 C251.465585,75.7481747 251.224774,75.5215289 251.833885,75.9323245 C252.287176,76.2368799 252.945866,78.0571295 253.158346,78.4608424 C253.351597,78.7831015 253.699792,78.9803013 254.075554,78.9803013 C254.451315,78.9803013 254.799511,78.7831015 254.992761,78.4608424 C255.51688,77.3701092 255.984337,75.6277691 256.78468,74.735351 C256.93416,74.4683557 257.059775,74.1886844 257.160062,73.8995944 C257.429204,74.7070203 257.705429,75.5144462 257.981654,76.3218721 C258.257878,77.129298 259.490265,77.4480187 259.922309,76.5768487 C262.004618,72.4122309 263.966521,68.1956734 265.808019,63.9271763 L265.850515,63.9980031 C266.333744,64.9453779 266.688637,65.9528948 266.905835,66.9939782 C267.238721,68.3821841 269.271451,67.8155694 268.981061,66.484025 Z" id="Path" fill="#000A24" fill-rule="nonzero"></path>
                <path d="M273.471482,111.324493 C272.584649,115.04245 271.504249,118.711555 270.234696,122.316817 C270.000651,123.186351 269.687714,124.032702 269.299782,124.845335 C268.719002,125.822746 268.853573,126.035226 268.138222,125.475694 C267.224555,124.767426 266.495039,121.665211 266.013417,120.602808 C265.623869,119.703307 264.320655,120.064524 264.072761,120.850702 L260.885554,130.943526 C258.647426,129.130359 257.230889,124.285803 255.814353,122.11142 C255.006927,120.836537 254.185335,119.016287 252.414665,119.405835 C250.481092,119.823713 250.204867,122.550546 249.829485,124.108736 C249.040174,127.480051 248.45128,130.895164 248.065897,134.336131 C247.910078,135.696006 250.034883,135.681841 250.190702,134.336131 C250.517799,131.501859 250.990603,128.686307 251.607239,125.900655 C251.685148,125.553604 252.117192,122.359314 252.520905,122.224743 C253.767457,121.778534 254.851108,124.569111 255.268986,125.30571 C256.947582,128.273354 257.811669,132.204243 261.253853,133.549953 C261.808,133.70238 262.383535,133.389589 262.557067,132.841685 C263.444763,130.051108 264.327738,127.262891 265.205991,124.477036 C266.15507,126.998471 267.621186,129.909454 269.866396,128.492917 C271.282933,127.614665 272.033697,123.705023 272.522402,122.288487 C273.698446,118.889411 274.703091,115.433433 275.532543,111.933604 C275.837098,110.616225 273.790203,110.014197 273.471482,111.324493 Z" id="Path" fill="#2696AF" fill-rule="nonzero"></path>
                <path d="M328.872231,107.93897 C327.399033,110.906615 326.952824,114.11507 325.86209,117.20312 C325.5717,118.010546 323.985179,122.160998 322.766958,121.82103 C321.867457,121.55897 320.309267,117.500593 319.820562,116.629423 C319.624699,116.310716 319.277435,116.116529 318.903354,116.116529 C318.529274,116.116529 318.182009,116.310716 317.986147,116.629423 L315.01142,121.403151 C313.864025,119.087114 312.886615,116.445273 309.805647,116.70025 C305.315226,117.09688 302.616724,123.27298 301.518908,126.885148 C301.115195,128.202527 303.169173,128.762059 303.565803,127.451763 C303.979973,125.993971 304.567299,124.591046 305.315226,123.27298 C306.554696,121.148175 307.695008,119.172106 310.273105,119.547488 C312.220842,119.830796 311.972949,120.00078 312.730796,121.544805 C313.111609,122.402131 313.554263,123.230629 314.055257,124.023744 C314.25112,124.342451 314.598384,124.536638 314.972465,124.536638 C315.346545,124.536638 315.69381,124.342451 315.889672,124.023744 L318.800655,119.34209 C320.061373,122.03351 321.718721,125.546521 324.558877,123.265897 C328.73766,119.915788 328.503931,113.470546 330.713729,109.015538 C331.308674,107.783151 329.474259,106.713666 328.872231,107.93897 Z" id="Path" fill="#2696AF" fill-rule="nonzero"></path>
                <path d="M379.718814,108.540998 C379.463838,111.466147 379.109704,114.377129 378.606833,117.273947 C378.472262,117.982215 378.337691,120.815289 377.848986,121.091513 L377.487769,121.608549 C377.190296,120.900281 376.885741,120.142434 376.581186,119.412917 C376.27663,118.683401 375.11507,118.265523 374.64053,119.157941 C373.696173,120.95222 372.751815,122.744139 371.807457,124.533697 C371.495819,125.114477 370.872543,126.538097 370.589236,126.509766 C370.511326,126.509766 369.548081,124.271638 369.576412,124.3283 C368.4361,122.281404 366.743339,120.439906 364.321061,120.014945 C358.442434,118.973791 357.833323,125.546521 358.442434,129.654477 C358.647832,131.000187 360.694727,130.42649 360.496412,129.087863 C360.163526,126.849735 359.46234,122.302652 363.272824,122.005179 C365.298471,121.856443 366.814165,123.875008 367.741997,125.369454 C368.450265,126.566427 368.761903,128.832886 370.57507,128.97454 C371.55248,129.059532 371.991607,128.436256 372.515725,127.727988 C373.681936,126.048206 374.664948,124.248391 375.447956,122.359314 C375.755462,123.260998 376.319087,124.053518 377.069891,124.639938 C377.400791,124.830983 377.808476,124.830983 378.139376,124.639938 C380.221685,123.662527 380.193354,120.390328 380.554571,118.449672 C381.163682,115.156225 381.574477,111.841529 381.864867,108.533916 C381.964025,107.181123 379.83922,107.188206 379.718814,108.540998 Z" id="Path" fill="#2696AF" fill-rule="nonzero"></path>
                <path d="M386.88649,77.263869 C378.30936,77.263869 369.725148,77.263869 361.148019,77.2072075 C356.303463,77.1647114 351.133105,76.6618409 346.331045,77.3913573 C344.978253,77.5896724 345.55195,79.6365679 346.890577,79.4382527 C351.678471,78.7299844 356.933822,79.2965991 361.764212,79.3320125 C370.143027,79.409922 378.514758,79.3745086 386.88649,79.3886739 C387.26605,79.3886739 387.616777,79.1861812 387.806557,78.8574727 C387.996337,78.5287642 387.996337,78.1237787 387.806557,77.7950702 C387.616777,77.4663617 387.26605,77.263869 386.88649,77.263869 L386.88649,77.263869 Z" id="Path" fill="#000A24" fill-rule="nonzero"></path>
                <path d="M377.841903,74.5724493 C377.879437,74.890635 378.05239,75.1771692 378.316443,75.3586271 C378.453046,75.7426471 378.852478,75.966571 379.251357,75.8827457 C380.609326,75.7127238 381.976577,75.6275663 383.345148,75.6277691 C384.230484,75.6277691 385.512449,75.9606552 386.178222,75.1461466 C386.730671,74.4378783 386.404867,73.4533853 386.2278,72.6884555 C386.023452,71.6631885 385.568426,70.7044697 384.903339,69.8978783 C384.706867,69.68641 384.488433,69.4964673 384.251732,69.3312637 C385.037482,68.3811548 385.144958,67.0410075 384.520671,65.9778168 C383.896383,64.9146261 382.6737,64.3555264 381.461154,64.5787832 C381.360177,64.5639569 381.257576,64.5639569 381.156599,64.5787832 C380.304157,64.669973 379.538856,65.142261 379.075123,65.8633184 C378.611389,66.5843759 378.499106,67.4766395 378.769735,68.2901092 C378.928439,68.7633151 379.192396,69.1943655 379.541747,69.5508268 C378.155379,70.824984 377.514523,72.7181798 377.841903,74.5724493 Z M382.318159,73.5171295 C381.517816,73.5171295 380.717473,73.6092044 379.924212,73.6941966 C379.924212,72.3414041 380.434165,70.8611232 381.97819,70.7265338 C382.691408,70.7233598 383.341304,71.1354215 383.642621,71.7818721 C383.938136,72.3260398 384.159657,72.907235 384.30131,73.5100468 L383.855101,73.5100468 C383.345148,73.5029641 382.828112,73.5029641 382.318159,73.5171295 Z M382.16234,68.3751014 C381.121186,68.8638066 380.42,67.1781279 380.951201,66.7885803 C381.169811,66.7940379 381.387086,66.752997 381.588643,66.6681747 C382.643963,66.2219657 383.196412,67.8934789 382.16234,68.3751014 Z" id="Shape" fill="#000A24" fill-rule="nonzero"></path>
                <path d="M353.739532,74.8557566 C355.274875,73.3245828 357.516333,72.7398545 359.603994,73.325897 C361.02053,73.7083619 362.267083,74.6432761 363.782777,74.8061778 C364.621785,74.8360985 365.459271,74.7137152 366.254633,74.444961 C368.273198,74.041248 370.143027,73.3471451 372.324493,73.8287676 C373.656037,74.1191576 374.222652,72.0722621 372.884025,71.7747894 C370.915039,71.3427457 369.264774,71.0665211 367.302871,71.5977223 C365.688019,72.0226833 365.886334,73.014259 363.301154,72.5255538 C362.359158,72.3626521 361.176349,71.5268955 360.170608,71.2719189 C357.342023,70.5159402 354.324414,71.3073559 352.23092,73.3542278 C351.218097,74.2749766 352.726708,75.7765055 353.739532,74.8557566 Z" id="Path" fill="#000A24" fill-rule="nonzero"></path>
                <path d="M246.323557,161.611544 C247.52053,160.49248 248.901654,159.125523 250.431513,158.452668 C252.103027,157.744399 252.889204,158.346427 254.390733,159.0122 C256.480125,159.947114 257.294633,159.422995 259.384025,158.898877 C261.069704,158.473916 262.415413,159.472574 264.235663,159.217598 C266.948331,158.82805 269.63975,159.968362 272.274509,159.146771 C273.577722,158.743058 273.01819,156.68908 271.707894,157.099875 C270.029298,157.623994 268.456942,156.894477 266.806677,156.766989 C265.545959,156.674914 264.398565,157.099875 263.166178,156.866147 C262.287925,156.703245 261.749641,156.157878 260.942215,156.023307 C260.616412,155.966646 260.233947,156.200374 259.908144,156.249953 C258.491607,156.455351 258.78908,156.837816 256.912168,156.837816 C254.553635,156.837816 255.106084,156.356193 253.434571,155.725835 C252.740867,155.459746 251.978289,155.432333 251.26727,155.647925 C248.880406,156.271201 246.585616,158.480998 244.822028,160.110016 C243.816287,161.04493 245.324899,162.539376 246.323557,161.611544 Z" id="Path" fill="#000A24" fill-rule="nonzero"></path>
                <path d="M302.560062,160.117098 C304.109944,159.14213 305.798113,158.406691 307.56752,157.935632 C309.692324,157.517754 311.009704,158.325179 312.858284,159.033448 C314.402309,159.62131 315.542621,160.187925 317.143307,159.401747 C318.41819,158.785554 319.324774,156.993635 321.024618,157.276942 C321.237098,157.312356 321.973697,157.985211 322.306583,158.112699 C324.268487,158.820967 326.556193,156.299532 328.248955,157.156537 C329.467176,157.77273 330.543744,155.938315 329.325523,155.322122 C326.804087,154.047239 325.118409,156.278284 322.526147,155.775413 C321.69039,155.612512 321.754134,154.882995 320.542995,154.847582 C319.47351,154.847582 318.899813,155.435445 318.02156,155.895819 C317.639095,156.094134 317.447863,156.653666 317.07248,156.809485 C315.75553,157.268425 314.315583,157.225555 313.028268,156.68908 C311.958783,156.356193 311.144275,155.81791 309.99688,155.690421 C306.951326,155.34337 304.068674,156.859064 301.49766,158.282683 C300.300686,158.948456 301.370172,160.782871 302.567145,160.117098 L302.560062,160.117098 Z" id="Path" fill="#000A24" fill-rule="nonzero"></path>
                <path d="M358.201622,157.071544 C359.674821,156.327863 361.523401,155.322122 363.230328,155.385866 C365.05766,155.44961 365.355133,156.39869 366.771669,156.639501 C368.188206,156.880312 369.052293,156.32078 370.419251,156.150796 C372.303245,155.92415 373.415226,156.79532 375.150484,156.774072 C377.275289,156.774072 379.400094,155.824992 381.616973,155.832075 C382.203722,155.832075 382.679376,155.356421 382.679376,154.769672 C382.679376,154.182924 382.203722,153.70727 381.616973,153.70727 C379.293853,153.70727 376.389953,154.897161 374.165991,154.415538 C372.359906,154.011825 371.835788,153.70727 369.852637,154.118066 C368.560888,154.45536 367.195841,154.37856 365.950078,153.898502 C365.251982,153.624953 364.524786,153.43246 363.782777,153.324805 C361.402995,153.112324 359.193198,154.203058 357.125055,155.251295 C355.906833,155.874571 356.983401,157.708986 358.201622,157.08571 L358.201622,157.071544 Z" id="Path" fill="#000A24" fill-rule="nonzero"></path>
                <path d="M167.075413,154.302215 C167.075413,154.302215 177.239064,146.114633 186.850265,142.360811 C186.850265,142.360811 187.558534,149.443495 176.396225,152.694446 C176.311232,152.694446 168.336131,158.360593 168.229891,158.403089 L168.229891,158.403089 L167.075413,154.316381 L167.075413,154.302215 Z" id="Path" fill="#000A24" fill-rule="nonzero"></path>
                <path d="M113.367426,165.393697 L108.643276,176.640998 L108.643276,176.640998 C108.643276,176.640998 107.694197,181.42181 102.920468,182.059251 C98.1467395,182.696693 92.5726677,183.404961 92.5726677,183.404961 C92.5726677,183.404961 97.4526365,177.030546 104.7478,176.046053 L104.7478,176.046053 C104.7478,176.046053 110.668924,161.172418 110.697254,161.094509 L110.697254,161.094509 L113.367426,165.386615 L113.367426,165.393697 Z" id="Path" fill="#000A24" fill-rule="nonzero"></path>
                <path d="M130.53585,122.656786 C130.53585,122.656786 139.311295,123.180905 148.072574,138.691981 C151.762652,145.236381 154.347832,149.981778 156.437223,153.898502 C159.362371,159.274259 173.329423,148.721061 173.329423,148.721061 C173.782715,152.014509 173.90312,155.987894 173.90312,155.874571 C173.90312,155.874571 158.448705,171.527301 155.34649,168.325928 C151.033136,163.84259 145.430733,157.609828 143.660062,153.452293 C140.572012,146.227956 130.004649,131.495975 130.004649,131.495975 L130.53585,122.656786 Z" id="Path" fill="#0E6176" fill-rule="nonzero"></path>
                <polygon id="Path" fill="#000A24" fill-rule="nonzero" points="103.678315 292.485367 107.701279 294.765991 100.073229 306.381591 97.6509516 305.014633"></polygon>
                <path d="M94.6833073,306.523245 C95.0445242,305.694571 96.6735413,303.038565 97.9484243,303.732668 C99.2233073,304.426771 102.24053,304.440936 102.127207,306.487832 C102.049298,308.060187 102.438846,310.319563 106.128924,311.240312 C106.837192,311.410296 107.056755,312.161061 107.056755,313.088892 C107.056755,313.088892 102.438846,313.088892 100.590265,311.240312 C98.7416849,309.391732 94.3291732,307.344836 94.6833073,306.523245 Z" id="Path" fill="#00A99D" fill-rule="nonzero"></path>
                <polygon id="Path" fill="#000A24" fill-rule="nonzero" points="136.570296 296.217941 141.195289 296.217941 140.267457 310.085835 137.491045 310.085835"></polygon>
                <path d="M139.282964,122.748861 C139.282964,122.748861 153.228768,124.873666 155.318159,168.078034 C155.806864,178.156693 156.734696,199.100187 156.734696,202.471544 C156.734696,205.842902 157.442964,207.81897 153.370421,207.514415 C146.656037,207.032793 139.913323,204.157223 139.913323,204.157223 L139.282964,122.748861 Z" id="Path" fill="#0E6176" fill-rule="nonzero"></path>
                <path d="M157.365055,75.2028081 C150.112387,72.3697348 137.646864,83.1141654 137.646864,83.1141654 C137.646864,83.1141654 134.070109,81.4072387 132.951045,85.649766 C131.831981,89.8922933 137.299813,92.0666771 137.299813,92.0666771 C135.883276,107.053635 126.675788,115.637847 126.555382,117.118128 C126.434977,118.598409 140.904899,128.889548 139.304212,122.6922 C137.533541,115.914072 143.199688,103.937254 143.199688,103.937254 C155.948518,110.212512 157.435881,100.920031 157.435881,100.920031 C157.435881,100.920031 157.612949,100.162184 157.875008,98.9085491 C158.228006,96.968023 159.681385,95.4122148 161.593417,94.9280811 C159.646115,91.8964096 158.384336,88.4760694 157.896256,84.9060842 C157.308393,80.4439938 159.071981,75.9110764 157.365055,75.2028081 Z" id="Path" fill="#000A24" fill-rule="nonzero"></path>
                <path d="M154.121186,99.6451482 L152.888799,102.570296 C152.888799,102.570296 146.613541,100.041778 147.527207,92.2437441 C147.527207,92.2437441 150.006147,98.3490172 154.121186,99.6451482 Z" id="Path" fill="#FFFFFF" fill-rule="nonzero"></path>
                <path d="M157.88209,75.7481747 C157.88209,75.7481747 146.26649,82.4129797 137.611451,83.121248 C128.956412,83.8295164 134.962527,90.458908 137.264399,92.0879251 C139.566271,93.7169423 136.860686,105.169641 133.291014,106.182465 C129.721342,107.195289 115.322246,103.18649 119.345211,94.8926677 C123.368175,86.5988456 125.535476,81.8321997 123.906459,76.994727 C120.917566,68.0776287 134.672137,57.9068955 142.965959,63.9200936 C152.527582,70.9531981 162.691232,69.6995632 157.88209,75.7481747 Z" id="Path" fill="#5E6DBE" fill-rule="nonzero"></path>
                <path d="M149.744087,193.164899 C149.744087,193.164899 150.218627,232.580031 147.491794,246.894134 C145.9761,254.869236 144.028362,274.382028 144.028362,279.55947 C144.028362,284.736911 142.101872,301.848674 142.101872,301.848674 L135.352075,301.961997 C135.352075,301.961997 134.792543,289.368986 134.57298,283.709922 C134.169267,273.340874 136.13117,258.92053 134.57298,251.597036 C133.241435,238.926115 133.156443,198.306927 133.156443,198.306927 L149.744087,193.164899 Z" id="Path" fill="#19275E" fill-rule="nonzero"></path>
                <path d="M117.702028,191.87585 C117.702028,191.87585 114.621061,206.324524 120.202215,215.390359 C120.202215,215.390359 120.648424,240.923432 120.648424,245.77507 C120.555418,252.455036 118.758716,259.000687 115.428487,264.792075 C107.141747,279.106178 100.958565,296.359594 100.958565,296.359594 L106.539719,299.745117 C106.539719,299.745117 111.731326,289.496474 115.789704,283.709922 C117.489548,281.273479 125.99585,269.105429 130.422527,259.912106 C134.502153,251.412886 140.118721,212.783931 139.807083,212.217317 L117.702028,191.87585 Z" id="Path" fill="#212F79" fill-rule="nonzero"></path>
                <path d="M129.785086,111.593635 C129.785086,111.593635 143.242184,125.050733 146.613541,131.814696 C149.984899,138.578658 155.027769,165.464524 151.670577,182.300062 C148.313385,199.135601 148.29922,214.271295 141.563588,212.606864 C134.827956,210.942434 117.546209,196.550421 114.160686,193.193229 C110.775164,189.836037 122.291607,169.820374 123.970203,159.727551 C125.648799,149.634727 121.34961,118.322184 129.785086,111.593635 Z" id="Path" fill="#00A99D" fill-rule="nonzero"></path>
                <path d="M135.642465,312.862246 C135.642465,312.862246 135.642465,308.825117 137.10858,308.825117 C138.574696,308.825117 141.195289,307.316505 142.116037,309.165086 C142.965959,310.86493 150.43819,308.825117 150.43819,312.862246 L135.642465,312.862246 Z" id="Path" fill="#00A99D" fill-rule="nonzero"></path>
                <path d="M129.778003,111.57947 C129.778003,111.57947 121.739158,113.817598 117.092917,131.00727 C112.446677,148.196942 107.573791,163.941747 104.16702,173.361716 C105.998178,174.498263 107.939193,175.447415 109.960655,176.194789 C109.960655,176.194789 123.793136,151.936599 125.004275,144.159813 C126.215413,136.383027 132.795226,119.49791 132.795226,119.49791 L129.778003,111.57947 Z" id="Path" fill="#00A99D" fill-rule="nonzero"></path>
                <path d="M134.955445,125.079064 C135.146677,127.862559 135.160842,130.653136 135.529142,133.4083 C135.541143,134.309584 135.785067,135.192588 136.23741,135.972231 C136.945679,136.970889 137.845179,137.133791 139.027988,137.147956 C139.941654,137.147956 140.210796,136.744243 140.890733,137.487925 C141.570671,138.231607 141.308612,139.761466 141.372356,140.753042 C141.83273,148.175694 143.050952,155.626677 147.987582,161.455725 C148.858752,162.489797 150.33195,160.995351 149.467863,159.982527 C144.063775,153.608112 144.219594,145.817161 143.320094,138.026209 C143.157192,136.609672 142.795975,135.370203 141.195289,135.008986 C140.642839,134.874415 139.870827,135.200218 139.382122,135.044399 C137.965585,134.584025 137.774353,133.464961 137.505211,132.055507 C137.087332,129.824462 137.18649,127.380936 137.030671,125.086147 C136.938596,123.74752 134.849204,123.740437 134.941279,125.086147 L134.955445,125.079064 Z" id="Path" fill="#FFFFFF" fill-rule="nonzero"></path>
                <path d="M141.322777,188.185772 C139.114466,192.43986 134.781079,195.169894 129.990484,195.325117 C128.651856,195.374696 128.644774,197.449922 129.990484,197.414509 C135.525318,197.258494 140.5466,194.132035 143.128861,189.234009 C143.752137,188.051201 141.946053,186.988799 141.322777,188.185772 L141.322777,188.185772 Z" id="Path" fill="#FFFFFF" fill-rule="nonzero"></path>
                <path d="M85.6882995,314.597504 L163.526989,314.597504 C164.113738,314.597504 164.589392,314.12185 164.589392,313.535101 C164.589392,312.948353 164.113738,312.472699 163.526989,312.472699 L85.6882995,312.472699 C85.1015508,312.472699 84.625897,312.948353 84.625897,313.535101 C84.625897,314.12185 85.1015508,314.597504 85.6882995,314.597504 Z" id="Path" fill="#000A24" fill-rule="nonzero"></path>
                <rect id="Rectangle" fill="#D8D8D8" opacity="0" x="0" y="0" width="554" height="330"></rect>
            </g>
        </g>
    </g>
</svg>