<?xml version="1.0" encoding="utf-8"?>
<!-- Generator: Adobe Illustrator 22.0.1, SVG Export Plug-In . SVG Version: 6.00 Build 0)  -->
<svg version="1.1" id="Calque_1" xmlns="http://www.w3.org/2000/svg" xmlns:xlink="http://www.w3.org/1999/xlink" x="0px" y="0px"
	 viewBox="0 0 898 269.4" style="enable-background:new 0 0 898 269.4;" xml:space="preserve">
<style type="text/css">
	.st0{fill:#2696AF;}
</style>
<title>Fichier 1</title>
<g id="Calque_2_1_">
	<g id="Calque_1-2">
		<g id="Page-1">
			<g id="iPad-Pro-Portrait">
				<g id="POOOL-NEW">
					<path id="Combined-Shape" class="st0" d="M361.6,225.7c-49.6,0-89.8-40.2-89.8-89.8s40.2-89.8,89.8-89.8s89.8,40.2,89.8,89.8v0
						C451.4,185.5,411.2,225.7,361.6,225.7C361.6,225.7,361.6,225.7,361.6,225.7z M362.8,179.6c23.5,0,42.5-19,42.5-42.5
						s-19-42.5-42.5-42.5s-42.5,19-42.5,42.5c0,0,0,0,0,0C320.4,160.6,339.4,179.6,362.8,179.6z"/>
					<path id="Combined-Shape-2" class="st0" d="M109.2,269.4h104.4c24.1,0,43.7-19.6,43.7-43.7c0,0,0,0,0,0v-182
						c0-24.1-19.5-43.7-43.6-43.7c0,0,0,0,0,0H43.7C19.6,0,0,19.6,0,43.7c0,0,0,0,0,0v182c0,24.1,19.5,43.7,43.7,43.7c0,0,0,0,0,0
						h17V58.2C60.7,44.8,71.6,34,85,34c12.6,0,23.1,9.6,24.2,22.2c44-22.8,98.2-5.6,121,38.4s5.6,98.2-38.4,121
						c-25.9,13.4-56.6,13.4-82.5,0V269.4z"/>
					<circle id="Oval" class="st0" cx="151.7" cy="137.1" r="42.5"/>
					<path id="Combined-Shape-Copy" class="st0" d="M555.8,225.7c-49.6,0-89.8-40.2-89.8-89.8s40.2-89.8,89.8-89.8
						c49.6,0,89.8,40.2,89.8,89.8v0C645.6,185.5,605.4,225.7,555.8,225.7C555.8,225.7,555.8,225.7,555.8,225.7z M557,179.6
						c23.5,0,42.5-19,42.5-42.5c0-23.5-19-42.5-42.5-42.5s-42.5,19-42.5,42.5c0,0,0,0,0,0C514.5,160.6,533.5,179.6,557,179.6z"/>
					<path id="Combined-Shape-Copy-2" class="st0" d="M747.5,225.7c-49.6,0-89.8-40.2-89.8-89.8c0-49.6,40.2-89.8,89.8-89.8
						c49.6,0,89.8,40.2,89.8,89.8v0C837.3,185.5,797.1,225.7,747.5,225.7z M748.7,179.6c23.5,0,42.5-19,42.5-42.5
						c0-23.5-19-42.5-42.5-42.5s-42.5,19-42.5,42.5c0,0,0,0,0,0C706.3,160.6,725.3,179.6,748.7,179.6
						C748.7,179.6,748.7,179.6,748.7,179.6z"/>
					<path id="Rectangle" class="st0" d="M873.7,0L873.7,0C887.1,0,898,10.9,898,24.3v177.2c0,13.4-10.9,24.3-24.3,24.3l0,0l0,0
						c-13.4,0-24.3-10.9-24.3-24.3c0,0,0,0,0,0V24.3C849.5,10.9,860.3,0,873.7,0z"/>
				</g>
			</g>
		</g>
	</g>
</g>
</svg>
