<?xml version="1.0" encoding="UTF-8"?>
<svg width="349px" height="254px" viewBox="0 0 349 254" version="1.1" xmlns="http://www.w3.org/2000/svg" xmlns:xlink="http://www.w3.org/1999/xlink">
    <!-- Generator: Sketch 63.1 (92452) - https://sketch.com -->
    <title>Illu - Inscrivez-vous à notre newsletter</title>
    <desc>Created with Sketch.</desc>
    <defs>
        <linearGradient x1="39.5551991%" y1="64.8737853%" x2="75.6054418%" y2="21.626095%" id="linearGradient-1">
            <stop stop-color="#8985E6" offset="0%"></stop>
            <stop stop-color="#00A99D" offset="100%"></stop>
        </linearGradient>
    </defs>
    <g id="Interfaces" stroke="none" stroke-width="1" fill="none" fill-rule="evenodd">
        <g id="HOME-PAGE" transform="translate(-208.000000, -4851.000000)">
            <g id="Illu---Inscrivez-vous-à-notre-newsletter" transform="translate(154.000000, 4818.000000)">
                <g id="Group" opacity="0.23" transform="translate(54.000000, 60.000000)" fill="url(#linearGradient-1)" fill-rule="nonzero">
                    <path d="M45.83,25.68 C71.2,13 115.36,-8.55 151.2,4.82 C187.04,18.19 236.25,51.36 258.2,40.12 C280.15,28.88 309,19.26 322.91,54 C336.82,88.74 326.12,104.28 340.56,125.14 C355,146 351.93,181.89 316.82,191.47 C281.71,201.05 263.62,181.73 249.42,194.08 C235.22,206.43 227.18,233.17 182.25,224.62 C137.32,216.07 126.08,166.88 96.66,184 C67.24,201.12 -22.12,170.46 6.26,125.16 C31.38,85.06 3,47.08 45.83,25.68 Z" id="Path"></path>
                </g>
                <path d="M208.06,160.24 C208.06,160.24 193.87,178.43 194.45,185 C194.45,185 191.23,178.27 186.84,183.57 C180.84,190.78 178.36,208.97 165.93,193.93 C153.5,178.89 153.11,164.62 153.11,164.62 C155.11,165.77 159.11,151.89 160.37,148.01 C164.86,133.76 176.95,127.01 194.31,132.8 C222.22,142.05 208.06,160.24 208.06,160.24 Z" id="Path" fill="#000A24" fill-rule="nonzero"></path>
                <path d="M179.6,182.52 L176.15,187.02 C176.15,187.02 166.45,179.81 171.56,166.76 C171.56,166.76 173.09,178.42 179.6,182.52 Z" id="Path" fill="#FFFFFF" fill-rule="nonzero"></path>
                <path d="M133.5,191.16 C126,197.86 144.32,203.75 144.32,203.75 C144.32,203.75 149,182.8 156.79,179.3 C164.58,175.8 160.37,148 160.37,148 C160.37,148 141,184.46 133.5,191.16 Z" id="Path" fill="#000A24" fill-rule="nonzero"></path>
                <path d="M191.56,143.9 C196.13,144.68 195.71,145.09 199.08,148.03 C202.74,151.22 205.82,154.25 210.36,155.98 C219.9,159.6 235.1,146.08 225.73,142.54 C214.41,138.26 211.29,130.54 200.66,127.87 C186.32,124.27 182,118.62 173.84,122.93 C165.68,127.24 158.24,140.46 160.92,146.42 C163.17,151.42 172.68,133.56 177.86,138.23 C181.62255,141.664801 186.470569,143.671244 191.56,143.9 L191.56,143.9 Z" id="Path" fill="#5E6DBE" fill-rule="nonzero"></path>
                <path d="M181.69,215.34 C181.69,215.34 187.69,203.34 176.69,199.34 C166.54,195.65 164.24,191.05 164.24,191.05 C164.24,191.05 163.18,201.75 169.14,204.61 C175.1,207.47 174.53,212.26 174.53,212.26 L181.69,215.34 Z" id="Path" fill="#000000" fill-rule="nonzero"></path>
                <path d="M202.13,229.66 C202.13,229.66 185.45,252.44 177.71,254.43 C171.87,255.94 148.4,237.43 143.36,229.9 L141.3,231.07 C141.3,231.07 158.03,269 165.3,269.49 C185.45,270.83 205.68,248.25 208.2,232.44 L202.13,229.66 Z" id="Path" fill="#065B5B" fill-rule="nonzero"></path>
                <path d="M173.93,212.06 C173.93,212.06 176.06,237.25 171.39,241.79 C171.39,241.79 155.31,219.6 153.11,215.34 C150.625515,210.46118 149.03057,205.17856 148.4,199.74 C148.06,194.95 147.48,176.85 129.16,187.02 C117.27,193.61 104.16,206.42 95.47,217.33 C78.32,238.86 73.94,267.8 73.94,267.8 L133.51,269.17 C133.51,269.17 129.64,262.51 131.7,256.26 C134.29,248.41 142.44,233.12 142.44,233.12 C142.44,233.12 152.58,248.74 160.28,256.72 C167.35,264.05 173.43,273.13 183.06,267.88 C193.38,262.25 184.21,220.31 182.6,215.73 L173.93,212.06 Z" id="Path" fill="#00A99D" fill-rule="nonzero"></path>
                <path d="M202.13,229.66 C202.13,229.66 200.84,220.91 209.55,220.04 C218.26,219.17 222.37,211.83 222.37,211.83 C222.37,211.83 222.14,221.91 216.19,225.57 C210.24,229.23 208.19,232.44 208.19,232.44 L202.13,229.66 Z" id="Path" fill="#000A24" fill-rule="nonzero"></path>
                <rect id="Rectangle" fill="#000A24" fill-rule="nonzero" transform="translate(215.362121, 212.796647) rotate(-30.000000) translate(-215.362121, -212.796647) " x="196.982121" y="210.221647" width="36.76" height="5.15" rx="2.26"></rect>
                <path d="M216.18,205.13 C216.625931,198.778362 217.886253,192.510361 219.93,186.48 C220.4,185.1 218.22,184.48 217.76,185.88 C215.669102,192.107469 214.382025,198.576459 213.93,205.13 C213.83,206.58 216.08,206.57 216.18,205.13 L216.18,205.13 Z" id="Path" fill="#000000" fill-rule="nonzero"></path>
                <path d="M208.16,208.34 L203.31,194.13 C202.84,192.76 200.67,193.35 201.14,194.72 L206,208.94 C206.47,210.3 208.64,209.71 208.17,208.34 L208.16,208.34 Z" id="Path" fill="#000000" fill-rule="nonzero"></path>
                <path d="M201.63,211.6 L188.63,200.89 C188.183348,200.469645 187.486652,200.469645 187.04,200.89 C186.828093,201.100283 186.708907,201.386464 186.708907,201.685 C186.708907,201.983536 186.828093,202.269717 187.04,202.48 L200.04,213.19 C200.479066,213.629066 201.190934,213.629066 201.63,213.19 C202.069066,212.750934 202.069066,212.039066 201.63,211.6 Z" id="Path" fill="#000000" fill-rule="nonzero"></path>
                <path d="M64.49,269.56 C89.34,269.35 114.19,269.68 139.04,270.26 C161.24,270.79 183.45,271.46 205.66,271.72 C219.06,271.88 232.463333,271.88 245.87,271.72 C246.450367,271.665222 246.893816,271.177946 246.893816,270.595 C246.893816,270.012054 246.450367,269.524778 245.87,269.47 C222.8,269.79 199.73,269.47 176.66,268.97 C153.96,268.44 131.26,267.75 108.56,267.45 C93.8933333,267.25 79.2033333,267.21 64.49,267.33 C63.909633,267.384778 63.4661838,267.872054 63.4661838,268.455 C63.4661838,269.037946 63.909633,269.525222 64.49,269.58 L64.49,269.56 Z" id="Path" fill="#000A24" fill-rule="nonzero"></path>
                <path d="M334.2,62.73 C332.92,53.03 331.81,46.17 330.44,36.47 C330.37,36 330.44,34.18 330.44,34.18 L253.84,44.38 C253.610503,44.4142447 253.404582,44.539774 253.269001,44.7280808 C253.13342,44.9163876 253.079686,45.151491 253.12,45.38 L257.77,76.21 C257.58936,76.2005372 257.410492,76.2496384 257.26,76.35 C251.56336,80.0164084 245.685937,83.3940077 239.65,86.47 L239.57,86.47 C239.189044,86.4772031 238.860652,86.7399171 238.77,87.11 C238.68072,87.289512 238.68072,87.500488 238.77,87.68 C242.4,113.83 245.69,137.73 249.32,163.88 C249.37,164.33 250.32,166.35 250.74,166.24 C289.57,159 327.81,152.74 367,147.86 C367.47,147.79 366.36,145.48 366.3,145.02 C363.19,119.51 360.19,96.24 357.06,70.72 C357,70.39 341.53,65.23 334.2,62.73 Z" id="Shape" fill="#FFFFFF" fill-rule="nonzero"></path>
                <path d="M274.83,58.27 C275.362031,59.1059565 276.300081,59.5940474 277.29,59.55 C278.273932,59.4850102 279.218285,59.1378216 280.01,58.55 C280.32,58.36 280.62,58.17 280.93,58.02 C282.627443,57.3393347 284.454347,57.0422494 286.28,57.15 C287.01,57.15 287.71,57.15 288.39,57.06 C294.91,56.49 301.5,55.3 307.87,54.16 C310.33,53.72 312.87,53.26 315.36,52.85 C315.618311,52.8208965 315.853038,52.6861254 316.008399,52.4777153 C316.163759,52.2693051 316.22588,52.0058644 316.18,51.75 C316.124178,51.4430502 315.948075,51.1711078 315.690823,50.9945988 C315.43357,50.8180897 315.116476,50.7516347 314.81,50.81 C312.18,51.24 309.49,51.73 306.88,52.21 C299.77,53.51 292.41,54.86 285.16,55.15 L284.76,55.15 C283.341552,55.1164261 281.928751,55.3400349 280.59,55.81 C280.208659,55.9930079 279.846816,56.2141342 279.51,56.47 C279.113862,56.8019249 278.654644,57.0502429 278.16,57.2 C276.94,57.57 276.5,57.02 275.82,56.2 L275.62,55.94 C274.07,54.12 271.62,56 269.62,57.51 C269.18,57.84 268.76,58.16 268.37,58.43 C268.036432,58.6472835 267.85443,59.0345215 267.9,59.43 C267.94013,59.8315886 268.181069,60.1854675 268.54,60.37 C268.664978,60.4293831 268.801632,60.4601302 268.94,60.4600004 C269.127799,60.4550404 269.310828,60.3997864 269.47,60.3 L272.24,58.4 C273.41,57.49 273.9,57.16 274.83,58.27 Z" id="Path" fill="#000A24" fill-rule="nonzero"></path>
                <path d="M274.87,74.85 C274.984724,74.701151 275.088338,74.54406 275.18,74.38 C275.28,74.2133333 275.39,74.0433333 275.51,73.87 C276.01,73.18 276.51,73.04 276.75,73.04 C277.2,73.04 277.66,73.4 278.09,74.04 C278.901427,75.1877868 280.343101,75.7069492 281.7,75.34 C283.606749,74.8743756 285.45752,74.2038064 287.22,73.34 C287.97,73.01 288.68,72.69 289.4,72.4 L290.19,72.06 C291.199261,71.4652367 292.378716,71.2258249 293.54,71.38 C293.930766,71.4915306 294.304284,71.6564171 294.65,71.87 C295.039322,72.1076493 295.460101,72.2894257 295.9,72.41 C297.160872,72.5360143 298.422559,72.1785958 299.43,71.41 L299.76,71.21 C300.76,70.57 301.69,70.02 302.93,70.34 C303.200655,70.4240189 303.456928,70.5487838 303.69,70.71 C303.982363,70.9042779 304.302739,71.0526626 304.64,71.15 C306.3,71.5 308.04,70.65 309.58,69.91 C310.165941,69.6097867 310.766711,69.3394404 311.38,69.1 C314.251792,68.1083612 317.240032,67.4932342 320.27,67.27 C320.576948,67.2302525 320.855283,67.0694855 321.043087,66.8234631 C321.23089,66.5774406 321.312586,66.2665675 321.27,65.96 C321.270897,65.6803225 321.154631,65.4130499 320.949413,65.2230338 C320.744196,65.0330176 320.468782,64.9376242 320.19,64.96 C317.635912,65.1495468 315.10689,65.5917069 312.64,66.28 C311.787557,66.5634177 310.952747,66.897342 310.14,67.28 C308.14,68.15 305.88,69.12 304.21,68.51 L303.83,68.37 C302.799368,67.8185189 301.579077,67.7454475 300.49,68.17 C299.629212,68.5886717 298.800319,69.0699649 298.01,69.61 C297.249385,70.0630051 296.28885,70.0034678 295.59,69.46 C295.266795,69.2855435 294.932782,69.1318977 294.59,69 C292.9,68.41 291.29,69.09 289.74,69.76 L288.74,70.18 C288.26,70.37 287.74,70.65 287.03,70.97 C284.63,72.15 281.34,73.76 279.7,72.3 C279.435098,72.0604889 279.193976,71.7959245 278.98,71.51 C278.493038,70.6629633 277.478052,70.2745115 276.55,70.58 C275.251131,70.9607306 274.143944,71.8179078 273.45,72.98 C272.989088,73.647427 272.429356,74.2408782 271.79,74.74 C271.4468,74.9511935 271.253035,75.3387239 271.29,75.74 C271.325196,76.1612665 271.5693,76.5368107 271.94,76.74 C272.124765,76.8351407 272.336762,76.863407 272.54,76.82 L272.54,77 L272.93,76.72 C273.672308,76.20418 274.327261,75.5728598 274.87,74.85 L274.87,74.85 Z" id="Path" fill="#000A24" fill-rule="nonzero"></path>
                <path d="M322.21,81.52 L312.47,83.93 C311.47,84.17 310.55,84.41 309.57,84.63 C308.172377,85.0192695 306.688975,84.9704045 305.32,84.49 C303.983539,84.0399552 302.51574,84.2124216 301.32,84.96 C300.974534,85.1610422 300.640672,85.3813915 300.32,85.62 C299.812356,86.0553062 299.229452,86.3942035 298.6,86.62 C297.582538,86.7674145 296.545247,86.5627789 295.66,86.04 C295.33,85.9 295.01,85.76 294.66,85.66 C293.265511,85.0745543 291.680968,85.1517594 290.35,85.87 L289.71,86.23 C288.76,86.79 288.01,87.23 286.96,86.65 C286.759557,86.5384743 286.577434,86.3968227 286.42,86.23 C286.17933,85.9666504 285.876911,85.7673285 285.54,85.65 C284.06,85.18 282.25,85.9 280.8,86.49 L280.03,86.79 C277.728532,87.6964795 275.524099,88.8321981 273.45,90.18 C273.11961,90.3800942 272.924215,90.7440648 272.94,91.13 C272.961846,91.5501984 273.200414,91.928878 273.57,92.13 C273.703573,92.2079712 273.855336,92.2493612 274.01,92.25 C274.213908,92.2495172 274.412796,92.1867107 274.58,92.07 L274.7,91.99 L274.7,91.99 C276.977419,90.5020021 279.429144,89.2996494 282,88.41 C282.59,88.21 283.18,88.02 283.8,87.84 C284.47052,87.5387895 285.260072,87.7990816 285.62,88.44 L285.62,88.51 L285.69,88.51 C285.876897,88.6075745 286.045947,88.7360526 286.19,88.89 C286.458957,89.1678934 286.809038,89.3534363 287.19,89.42 C288.275158,89.5519688 289.365386,89.2176323 290.19,88.5 C290.489597,88.2852412 290.803678,88.0914461 291.13,87.92 C292.62,87.17 293.68,87.62 294.91,88.14 C295.67785,88.5043302 296.497615,88.7472237 297.34,88.86 C298.740834,88.9074081 300.115026,88.4693623 301.23,87.62 L301.57,87.4 C302.88,86.57 303.27,86.31 305.09,86.83 C305.72908,87.0885919 306.403169,87.2503733 307.09,87.31 C308.858801,87.2537355 310.60736,86.9161759 312.27,86.31 C312.97,86.09 313.64,85.89 314.27,85.73 L322.7,83.73 C322.980988,83.6752539 323.22504,83.5027089 323.370352,83.2560602 C323.515665,83.0094114 323.548302,82.7123124 323.46,82.44 C323.418132,82.1513346 323.262313,81.8914932 323.027395,81.7185937 C322.792477,81.5456942 322.498062,81.4741632 322.21,81.52 Z" id="Path" fill="#000A24" fill-rule="nonzero"></path>
                <path d="M368,147.85 L358.59,70.57 C358.501981,69.9508062 357.942565,69.5103207 357.32,69.57 L357.19,69.57 C349.78,67.2 343.63,65.32 335.19,62.75 C335.14,62.3 335.08,61.85 335.02,61.4 C333.91,52.52 332.75,43.33 331.43,33.99 L331.43,33.99 C331.293478,33.5033116 330.845381,33.1703222 330.34,33.1797945 L330.34,33.1797945 L253.05,43.4 C252.709076,43.4085775 252.391411,43.5747974 252.19,43.85 C251.986246,44.1138476 251.909393,44.4542 251.98,44.78 C253.54,55.44 254.98,65.55 256.49,75.78 C252.215055,78.5549997 247.784444,81.0824848 243.22,83.35 C241.74,84.12 240.22,84.9 238.78,85.69 C238.588421,85.7353412 238.414487,85.8362229 238.28,85.98 C237.889425,86.2237088 237.678072,86.6738114 237.74,87.13 L248.66,166.53 C248.689197,166.777313 248.824165,166.999828 249.03,167.14 C249.25119,167.290329 249.512562,167.370002 249.78,167.370002 L250.01,167.370002 C288.6,160.11 327.92,153.94 366.89,149.04 C367.19879,149.040803 367.493959,148.91294 367.704585,148.687134 C367.915211,148.461327 368.022256,148.157988 368,147.85 Z M338.29,86.68 C337.29,79.33 336.29,72.09 335.45,65.02 C342.26,67.1 348.28,68.94 355.04,71.09 C349.47,76.26 343.85,81.5 338.29,86.68 Z M329.51,94.88 C320.89,102.88 311.99,111.23 303.2,119.39 L298.29,116.89 C285.87,110.58 273.88,104.49 261.98,98.14 C259.36,80.14 256.98,63.43 254.31,45.45 L329.38,35.45 C330.64,44.45 331.75,53.23 332.82,61.77 C333.89,70.31 335.04,79.41 336.32,88.52 L329.51,94.88 Z M259.56,96.88 C253.56,93.63 247.5,90.32 241.45,86.88 L244.31,85.38 C248.51,83.19 252.83,80.92 256.85,78.28 C257.74,84.32 258.64,90.5 259.56,96.84 L259.56,96.88 Z M297.2,118.88 L302.83,121.75 C303.268134,121.979868 303.803147,121.911994 304.17,121.58 C313,113.28 322,104.89 330.72,96.77 C339.19,88.87 347.95,80.69 356.59,72.67 L365.66,146.92 C327.33,151.75 288.66,157.83 250.66,164.97 L240.18,88.64 C259,99.42 277.57,108.84 297.2,118.81 L297.2,118.88 Z" id="Shape" fill="#000A24" fill-rule="nonzero"></path>
                <path d="M270.37,151.93 C274.726075,151.904066 278.956812,150.469264 282.43,147.84 C282.714494,147.620741 282.859545,147.265748 282.81,146.91 C282.769183,146.557548 282.544663,146.253115 282.22,146.11 C281.953068,146.002261 281.648333,146.052408 281.43,146.24 C276.79,149.83 269.16,151.69 263.55,148.31 C258.88,145.49 257.77,139.9 257.55,136.82 C256.85177,130.449749 260.229169,124.327213 265.99,121.52 C269.421175,119.984457 273.335583,119.941004 276.8,121.4 C279.586599,122.455985 281.776406,124.67134 282.8,127.47 C283.665834,130.086127 283.6938,132.907222 282.88,135.54 C282.302645,137.288429 280.917586,138.651149 279.16,139.2 C278.05069,139.542465 276.843281,139.293436 275.96,138.54 C276.039596,138.210973 276.096398,137.876846 276.13,137.54 C276.248805,134.430578 276.017349,131.317661 275.44,128.26 C275.35,127.69 275.27,127.13 275.19,126.6 C275.196115,126.543498 275.196115,126.486502 275.19,126.43 C275.180686,126.37011 275.160342,126.312468 275.13,126.26 L275.13,126.19 C275.031174,125.969043 274.835368,125.806487 274.6,125.75 L274.55,125.75 C269.925936,124.579677 265.179391,127.161971 263.65,131.68 C262.13,135.8 262.88,141.23 267.26,143.19 C270.240546,144.561587 273.772278,143.33431 275.26,140.41 C277.609206,141.723844 280.531943,141.411123 282.55,139.63 C284.55,137.96 285.05,135.19 285.25,133.26 C286.04,125.58 281.25,119.73 273.25,118.7 C265.92,117.76 259.25,122.18 256.55,129.7 C254.46,135.57 255.76,143.05 259.64,147.5 C262.407093,150.459809 266.320795,152.075624 270.37,151.93 L270.37,151.93 Z M270.88,141.73 C269.408649,142.186564 267.805422,141.803017 266.7,140.73 C265.002523,138.730255 264.359955,136.041128 264.97,133.49 C265.85,129.75 268.79,127.3 272.12,127.3 C272.552732,127.301153 272.98448,127.341316 273.41,127.42 C273.47,127.8 273.54,128.21 273.61,128.65 C274.39,133.06 275.69,140.54 270.88,141.73 L270.88,141.73 Z" id="Shape" fill="#000A24" fill-rule="nonzero"></path>
                <rect id="Rectangle" fill="#D8D8D8" opacity="0" x="0" y="0" width="457" height="330"></rect>
            </g>
        </g>
    </g>
</svg>